<svg xmlns="http://www.w3.org/2000/svg" width="26.222" height="14.303" viewBox="0 0 26.222 14.303"><path d="M3.884,18.535l.6.083,5.447-5.447a2.324,2.324,0,0,1,.62-2.277,2.353,2.353,0,0,1,3.361,0,2.324,2.324,0,0,1,.62,2.277l3.063,3.063.6-.083a1.393,1.393,0,0,1,.6.083l4.255-4.255a1.393,1.393,0,0,1-.083-.6,2.384,2.384,0,1,1,2.384,2.384,1.393,1.393,0,0,1-.6-.083l-4.255,4.255a1.393,1.393,0,0,1,.083.6,2.384,2.384,0,0,1-4.768,0l.083-.6-3.063-3.063a2.869,2.869,0,0,1-1.192,0L6.184,20.323l.083.6a2.384,2.384,0,1,1-2.384-2.384Z" transform="translate(-1.5 -9)" fill="#0e58c7"/></svg>