<svg xmlns="http://www.w3.org/2000/svg" width="71" height="71" viewBox="0 0 71 71"><g transform="translate(-362 -504)"><rect width="71" height="71" rx="5" transform="translate(362 504)" fill="#ebeafb"/><g transform="translate(378 519.34)"><path d="M13.5,27.208A3.748,3.748,0,1,1,9.748,23.46,3.748,3.748,0,0,1,13.5,27.208Z" transform="translate(0 2.454)" fill="#1b26fb"/><path d="M6,6.66v4.865A21.886,21.886,0,0,1,27.885,33.41H32.75A26.758,26.758,0,0,0,6,6.66Zm0,9.73v4.865A12.165,12.165,0,0,1,18.154,33.41H23.02A17.014,17.014,0,0,0,6,16.39Z" transform="translate(0 0)" fill="#1b26fb"/></g></g></svg>