<svg xmlns="http://www.w3.org/2000/svg" width="14.122" height="14.122" viewBox="0 0 14.122 14.122">
  <path id="square-edit-outline" d="M6.069,4.5A1.564,1.564,0,0,0,4.5,6.069V17.053a1.569,1.569,0,0,0,1.569,1.569H17.053a1.569,1.569,0,0,0,1.569-1.569V11.561H17.053v5.492H6.069V6.069h5.492V4.5H6.069M16.1,5.285a.542.542,0,0,0-.377.157l-.957.949,1.961,1.961.957-.949a.53.53,0,0,0,0-.745L16.465,5.441a.524.524,0,0,0-.369-.157M14.205,6.948l-5.782,5.79V14.7h1.961l5.782-5.79Z" transform="translate(-4.5 -4.5)" fill="#0e57c4"/>
</svg>
