<svg xmlns="http://www.w3.org/2000/svg" width="14.73" height="16.203" viewBox="0 0 14.73 16.203"><path d="M15.52,19.32H5.209A2.177,2.177,0,0,1,3,17.1V6.723A2.177,2.177,0,0,1,5.209,4.5H15.52A2.177,2.177,0,0,1,17.73,6.723V17.1A2.177,2.177,0,0,1,15.52,19.32ZM5.209,5.982a.7.7,0,0,0-.736.741V17.1a.7.7,0,0,0,.736.741H15.52a.7.7,0,0,0,.736-.741V6.723a.7.7,0,0,0-.736-.741Z" transform="translate(-3 -3.117)" fill="#fff"/><path d="M13.311,5.648a.675.675,0,0,1-.736-.691V2.191a.738.738,0,0,1,1.473,0V4.957A.675.675,0,0,1,13.311,5.648Zm-5.892,0a.675.675,0,0,1-.736-.691V2.191A.675.675,0,0,1,7.419,1.5a.675.675,0,0,1,.736.691V4.957A.675.675,0,0,1,7.419,5.648Zm9.574,2.765H3.736a.693.693,0,1,1,0-1.383H16.993a.693.693,0,1,1,0,1.383Z" transform="translate(-3 -1.5)" fill="#fff"/></svg>