<svg xmlns="http://www.w3.org/2000/svg" width="123.989" height="50.451" viewBox="0 0 123.989 50.451"><g transform="translate(-223 -805)"><g transform="translate(222.293 804.9)"><rect width="106" height="35" rx="5" transform="translate(0.707 0.1)" fill="#205fbf"/><text transform="translate(53.706 22.1)" fill="#fff" font-size="14" font-family="GillSans-SemiBold, Gill Sans" font-weight="600"><tspan x="-13.337" y="0">CST</tspan></text></g><g transform="translate(-49.302 393.23)"><g transform="translate(93 230)"><path d="M308.621,222.712l-24.782-10.871a.267.267,0,0,0-.336.335l10.871,24.782a.267.267,0,0,0,.478.066l3.791-7.3,9.131,9.131a.268.268,0,0,0,.378,0l2.365-2.365a.267.267,0,0,0,0-.377l-9.132-9.131,7.3-3.791A.267.267,0,0,0,308.621,222.712Z" transform="translate(-7.303 -6.71)" fill="#232eaf"/><g transform="translate(264.302 194.197)"><g transform="translate(3.43 2.783)"><path d="M275.757,205.163a1.239,1.239,0,0,1-1.749-.1l-3.852-4.31A1.239,1.239,0,0,1,272,199.1l3.853,4.311A1.239,1.239,0,0,1,275.757,205.163Z" transform="translate(-269.84 -198.69)" fill="#86c1fd"/></g><g transform="translate(9.365)"><path d="M282.336,202.079a1.239,1.239,0,0,1-2.05-.743l-.85-5.718a1.239,1.239,0,1,1,2.45-.365l.85,5.718A1.236,1.236,0,0,1,282.336,202.079Z" transform="translate(-279.422 -194.197)" fill="#86c1fd"/></g><g transform="translate(0 8.369)"><path d="M271.954,211.356a1.238,1.238,0,0,1-1.145.274l-5.587-1.485a1.239,1.239,0,0,1,.637-2.394l5.587,1.485a1.238,1.238,0,0,1,.508,2.12Z" transform="translate(-264.302 -207.709)" fill="#86c1fd"/></g><g transform="translate(0.129 12.98)"><path d="M272.1,217.317a1.244,1.244,0,0,1-.458.258l-5.521,1.713a1.239,1.239,0,1,1-.735-2.366l5.521-1.713a1.239,1.239,0,0,1,1.192,2.108Z" transform="translate(-264.511 -215.153)" fill="#86c1fd"/></g><g transform="translate(13.245 0.777)"><path d="M287.752,202.938a1.239,1.239,0,0,1-1.968-1.405l2.25-5.325a1.239,1.239,0,1,1,2.282.964l-2.25,5.325A1.235,1.235,0,0,1,287.752,202.938Z" transform="translate(-285.686 -195.451)" fill="#86c1fd"/></g></g></g></g></g></svg>