<svg xmlns="http://www.w3.org/2000/svg" width="18.138" height="18.138" viewBox="0 0 18.138 18.138">
  <path id="square-edit-outline" d="M6.515,4.5A2.008,2.008,0,0,0,4.5,6.515V20.623a2.015,2.015,0,0,0,2.015,2.015H20.623a2.015,2.015,0,0,0,2.015-2.015V13.569H20.623v7.054H6.515V6.515h7.054V4.5H6.515M19.394,5.508a.7.7,0,0,0-.484.2L17.681,6.929,20.2,9.448l1.229-1.219a.681.681,0,0,0,0-.957L19.867,5.709a.673.673,0,0,0-.474-.2M16.965,7.644,9.538,15.081V17.6h2.519l7.427-7.437Z" transform="translate(-4.5 -4.5)" fill="#fff"/>
</svg>
