<svg xmlns="http://www.w3.org/2000/svg" width="67" height="67" viewBox="0 0 67 67">
  <g id="Group_2392" data-name="Group 2392" transform="translate(-140 -486)">
    <rect id="Rectangle_1592" data-name="Rectangle 1592" width="67" height="67" rx="10" transform="translate(140 486)" fill="#edf4fd"/>
    <path id="Icon_awesome-book" data-name="Icon awesome-book" d="M18.513,14.877V.992A.989.989,0,0,0,17.521,0H3.967A3.968,3.968,0,0,0,0,3.967V17.191a3.968,3.968,0,0,0,3.967,3.967H17.521a.989.989,0,0,0,.992-.992V19.5a1,1,0,0,0-.368-.773,9.216,9.216,0,0,1,0-3.087A.985.985,0,0,0,18.513,14.877ZM5.289,5.537a.249.249,0,0,1,.248-.248H14.3a.249.249,0,0,1,.248.248v.826a.249.249,0,0,1-.248.248H5.537a.249.249,0,0,1-.248-.248Zm0,2.645a.249.249,0,0,1,.248-.248H14.3a.249.249,0,0,1,.248.248v.826a.249.249,0,0,1-.248.248H5.537a.249.249,0,0,1-.248-.248ZM15.761,18.513H3.967a1.322,1.322,0,0,1,0-2.645H15.761A14.877,14.877,0,0,0,15.761,18.513Z" transform="translate(164.096 508.921)" fill="#0e57c4"/>
  </g>
</svg>
