<svg xmlns="http://www.w3.org/2000/svg" width="67" height="67" viewBox="0 0 67 67">
  <g id="Group_2389" data-name="Group 2389" transform="translate(-140 -684)">
    <rect id="Rectangle_1590" data-name="Rectangle 1590" width="67" height="67" rx="10" transform="translate(140 684)" fill="#edf4fd"/>
    <path id="Icon_material-work" data-name="Icon material-work" d="M19.672,6.7h-3.7V4.852A1.846,1.846,0,0,0,14.115,3h-3.7A1.846,1.846,0,0,0,8.557,4.852V6.7h-3.7A1.838,1.838,0,0,0,3.009,8.557L3,18.746A1.846,1.846,0,0,0,4.852,20.6h14.82a1.846,1.846,0,0,0,1.852-1.852V8.557A1.846,1.846,0,0,0,19.672,6.7Zm-5.557,0h-3.7V4.852h3.7Z" transform="translate(161.238 705.848)" fill="#0e57c4"/>
  </g>
</svg>
