<svg xmlns="http://www.w3.org/2000/svg" width="19" height="17.2" viewBox="0 0 19 17.2">
  <g id="Icon_feather-briefcase" data-name="Icon feather-briefcase" transform="translate(-2.5 -4)">
    <path id="Path_5150" data-name="Path 5150" d="M4.8,10.5H19.2A1.7,1.7,0,0,1,21,12.086v7.929A1.7,1.7,0,0,1,19.2,21.6H4.8A1.7,1.7,0,0,1,3,20.014V12.086A1.7,1.7,0,0,1,4.8,10.5Z" transform="translate(0 -0.9)" fill="none" stroke="#fff" stroke-linecap="round" stroke-linejoin="round" stroke-width="1"/>
    <path id="Path_5151" data-name="Path 5151" d="M21,20.7V6.3a2.063,2.063,0,0,0-2.25-1.8h-4.5A2.063,2.063,0,0,0,12,6.3V20.7" transform="translate(-4.5)" fill="none" stroke="#fff" stroke-linecap="round" stroke-linejoin="round" stroke-width="1"/>
  </g>
</svg>
