<svg xmlns="http://www.w3.org/2000/svg" xmlns:xlink="http://www.w3.org/1999/xlink" width="1366" height="150" viewBox="0 0 1366 150"><defs><clipPath id="a"><rect width="1366" height="150" transform="translate(0 905)" fill="#0f302f"/></clipPath></defs><g transform="translate(0 -747)"><rect width="1366" height="150" transform="translate(0 747)" fill="#0e58c7"/><g transform="translate(0 -158)" clip-path="url(#a)"><g transform="translate(235.418 827.487)" opacity="0.7"><g transform="translate(56.312 230.709)"><path d="M95.172,391.263c51.405,23.867,134.778,23.867,186.169,0s51.412-62.622,0-86.517-134.778-23.867-186.169,0S43.76,367.375,95.172,391.263Z" transform="translate(-56.621 -286.835)" fill="#f5f5f5"/></g><g transform="translate(89.327 271.652)"><path d="M253.392,373.723c-13.709,6.528-35.934,6.528-49.636,0s-13.709-17.128,0-23.663,35.927-6.528,49.636,0S267.1,367.188,253.392,373.723Z" transform="translate(-130.424 -345.161)" fill="#e6e6e6"/><ellipse cx="33.196" cy="15.822" rx="33.196" ry="15.822" transform="translate(128.878 6.485)" fill="#e6e6e6"/><path d="M161.563,381.551c-13.246,6.318-34.719,6.318-47.972,0s-13.246-16.545,0-22.863,34.726-6.318,47.972,0S174.8,375.241,161.563,381.551Z" transform="translate(-103.654 -347.781)" fill="#e6e6e6"/></g><g transform="translate(159.714 98.513)"><path d="M219.677,166.15l-7.027,23.909,7.68,3.952,5.988-19.936Z" transform="translate(-206.525 -118.671)" fill="#ffa8a7"/><path d="M228.73,152.74c-3.727.4-6.985,3.756-8.48,9.013s-3.51,13.436-3.51,13.436,4.085,4.471,9.631,3.117Z" transform="translate(-207.744 -114.674)" fill="#e6e6e6"/><path d="M215.328,349.741V348.73c-.414,1.179-2.345,6.24-5.181,8.746-2.26,1.994-5.328,4.289-6.135,6.542s4.17,3.208,6.255,2.871a12.794,12.794,0,0,0,7.3-3.77c1.221-1.453,2.008-3.18,2.885-4.324s2.857-2.4,3.341-3.727a8.374,8.374,0,0,0-.344-3.706c-.344-1.362-.639-2.632-1.067-2.52v.765a5.551,5.551,0,0,1-3.545,1.137C217.806,350.773,215.307,350.527,215.328,349.741Z" transform="translate(-203.925 -173.086)" fill="#263238"/><path d="M209.563,356.63c.7-.6,1.4-1.193,2.043-1.762,1.98-1.748,3.51-4.752,4.408-6.8a9.73,9.73,0,0,0,.8-3.7l.063-4.022,7.4-.344-.449,7.02h0v.169h-.042c-.358,1.46-3.657,5.307-5.539,7.82-1.257,1.685-3.636,3.812-6.437,4.142C209.149,359.473,207.809,358.616,209.563,356.63Z" transform="translate(-205.369 -170.484)" fill="#ffa8a7"/><path d="M268.672,350.77l-.267-.969c-.07,1.242-.491,6.648-2.506,9.828-1.607,2.548-3.9,5.616-4.05,8s4.914,1.9,6.816,1a12.85,12.85,0,0,0,5.946-5.679c.758-1.734,1.032-3.615,1.544-4.956s2.071-3.11,2.162-4.521a8.67,8.67,0,0,0-1.4-3.461c-.7-1.214-1.355-2.345-1.734-2.106.035.147.2.744.2.744a5.607,5.607,0,0,1-3.082,2.106C271.346,351.065,268.875,351.536,268.672,350.77Z" transform="translate(-221.187 -172.831)" fill="#263238"/><path d="M265.371,359.564c.5-.779,1.011-1.544,1.467-2.26a20.7,20.7,0,0,0,2.316-7.771,9.654,9.654,0,0,0-.281-3.777l-1.067-3.875L274.6,340l1.748,6.318h0l.042.168h0c.063,1.5-2.015,6.121-3.117,9.062a10.1,10.1,0,0,1-5.012,5.791C265.778,362.407,264.248,361.965,265.371,359.564Z" transform="translate(-222.126 -170.484)" fill="#ffa8a7"/><path d="M258.422,204.565c3.917,5.026,4.626,10.221,3.77,24.913s-1.123,26.991-.906,27.819,3.4,7.574,4.563,13.029c1.369,6.381,1.706,30.058,1.706,30.058a7.069,7.069,0,0,1-6.816,1.818s-11.344-38.131-12.446-41.416-8.073-38.131-8.073-38.131L241.28,203Z" transform="translate(-214.742 -129.653)" fill="#37474f"/><path d="M222.213,221.014c.6-6.788,2.05-18.546,2.05-18.546l17.353-1.018c2.808,4.38,1.586,11.667.821,18.251l-9.926,38.854c.2,1.86,1.916,5.805,0,15.808-2.106,11.168-5.089,25.882-5.089,25.882a10.16,10.16,0,0,1-7.476.147s-1.4-35.386-.519-45.052C220.444,244.888,221.806,225.654,222.213,221.014Z" transform="translate(-208.458 -129.191)" fill="#37474f"/><path d="M240.351,245.205l-2.808-14.25a30.668,30.668,0,0,1-7.083-3.615,21.572,21.572,0,0,0,4.956,4.57Z" transform="translate(-211.833 -136.908)" fill="#263238"/><path d="M223.59,135.8h13.976a17.1,17.1,0,0,0,17.1-17.1h0a15.535,15.535,0,0,0-15.535-15.542h0A15.542,15.542,0,0,0,223.59,118.7Z" transform="translate(-209.786 -99.898)" fill="#263238"/><path d="M262.746,153.44c2.7.133,4.682.639,6.514,5.939s5.651,25.643,4.373,27.763l-8.522-3.594-2.106-11.168C258.155,168.244,258.428,154.928,262.746,153.44Z" transform="translate(-220.47 -114.883)" fill="#ffa8a7"/><path d="M226.925,176.759c-.428,3.966-2.022,18.609-2.022,18.609,13.078,6.978,29.3,2.359,31.785-.519-2.246-7.406-4.668-11.618-6.521-13.59l2.359-9.252s-5.84-8.353-.225-18.953l-6.935-.569-10.186-.295c-2.436.133-4.17.372-4.17.372-1.565,1.46-4.022,5.468-5.616,9.554C224.363,164.762,223.254,168.967,226.925,176.759Z" transform="translate(-210.025 -114.51)" fill="#f5f5f5"/><path d="M262.929,153.43c3.068-.175,4.914.583,7.125,5.51s4,16.96,4,16.96-1.874,3.812-11.14,2.731l-1.4-8.353S257.425,161.594,262.929,153.43Z" transform="translate(-220.653 -114.873)" fill="#e6e6e6"/><path d="M255.243,187.05a23.323,23.323,0,0,1-4.682,5.461c-1.5.955,2.667,2.274,3.25,4.647,1.186,4.787-2.26,9.954-13.962,10.27-2.766.07-2.885.66-1.453,1.5,10.4,1.713,20.3-1.5,22.2-3.692-2.246-7.406-4.668-11.618-6.521-13.59Z" transform="translate(-213.929 -124.9)" fill="#e6e6e6"/><path d="M230.019,112.8c-1.643.969-3.671,5.1-3.475,13.752.176,7.336,2.548,9.126,3.742,9.673s3.51.2,5.735-.168v4.4a3.51,3.51,0,0,0,1.4,2.324,6.1,6.1,0,0,0,5.195.274c2.674-.962,3.208-2.281,3.208-2.281l-.049-10.122s1.313,1.285,3.545-.7c1.846-1.607,2.471-4.324,1.032-5.784a3.208,3.208,0,0,0-5.11,1.018s-1.313.105-2.625-2.331c0,0,.042-6.627-1.4-7.49C236.5,112.652,233.178,112.8,230.019,112.8Z" transform="translate(-210.662 -102.77)" fill="#ffa8a7"/><path d="M238.22,128.712a.92.92,0,1,0,.969-.913A.948.948,0,0,0,238.22,128.712Z" transform="translate(-214.146 -107.241)" fill="#263238"/><g transform="translate(21.687 28.154)" opacity="0.5" style="mix-blend-mode:multiply;isolation:isolate"><path d="M236.961,138.62l-2.141.7a1.1,1.1,0,0,0,1.4.765,1.179,1.179,0,0,0,.737-1.467Z" transform="translate(-234.82 -138.62)" fill="#f28f8f"/></g><path d="M228.093,124.231l1.867-1.292a1.081,1.081,0,0,0-1.544-.323,1.2,1.2,0,0,0-.323,1.615Z" transform="translate(-211.073 -105.638)" fill="#263238"/><path d="M240.05,124.186l2.106.814a1.081,1.081,0,0,0-.611-1.46,1.193,1.193,0,0,0-1.5.646Z" transform="translate(-214.691 -105.951)" fill="#263238"/><path d="M227.58,128.432a.927.927,0,1,0,.976-.913.941.941,0,0,0-.976.913Z" transform="translate(-210.975 -107.158)" fill="#263238"/><g transform="translate(18.227 20.741)" opacity="0.5" style="mix-blend-mode:multiply;isolation:isolate"><path d="M232.958,128.06l-.147,5.553-2.92-.9Z" transform="translate(-229.89 -128.06)" fill="#f28f8f"/></g><g transform="translate(25.359 29.663)" opacity="0.5" style="mix-blend-mode:multiply;isolation:isolate"><path d="M240.05,144.392c2.359-.309,7.216-1.706,7.967-3.622a4.977,4.977,0,0,1-1.7,2.443c-1.453,1.242-6.269,2.646-6.269,2.646Z" transform="translate(-240.05 -140.77)" fill="#f28f8f"/></g><path d="M248.124,102.6l.358-4.071a1.98,1.98,0,0,0-2.246,1.783A2.106,2.106,0,0,0,248.124,102.6Z" transform="translate(-216.532 -98.513)" fill="#263238"/><path d="M249.083,103.528l3.3-2.415a1.987,1.987,0,0,0-2.808-.519A2.162,2.162,0,0,0,249.083,103.528Z" transform="translate(-217.274 -99.023)" fill="#263238"/><path d="M252.065,129.5v3.875h0a2.618,2.618,0,0,1-2.625-2.625V127.19Z" transform="translate(-217.49 -107.059)" fill="#263238"/><path d="M232.68,104.47h0a13.043,13.043,0,0,0-13.05,13.043V119.2h6.388a5.939,5.939,0,0,0,5.883-5.138h0l.239,5.138h0a4.717,4.717,0,0,0,4.7-4.31l.077-.842h0a5.616,5.616,0,0,0,5.574,5.152h.562l.653-9.217Z" transform="translate(-208.606 -100.288)" fill="#263238"/><path d="M246.27,126.969h-7.293a3.068,3.068,0,0,0-3-2.429h-.47a3.075,3.075,0,0,0-2.808,1.9,2.625,2.625,0,0,0-1.783-.779,2.274,2.274,0,0,0-1.579.47,3.047,3.047,0,0,0-2.667-1.586h-.47a3.061,3.061,0,1,0,0,6.121h.47a3.061,3.061,0,0,0,3.061-3.061,2.928,2.928,0,0,0-.175-.969,1.685,1.685,0,0,1,1.334-.456,2.036,2.036,0,0,1,1.621.821h0a2.977,2.977,0,0,0-.063.618,3.068,3.068,0,0,0,3.061,3.061h.47a3.061,3.061,0,0,0,3.061-3.061V127.5h6.205a3.51,3.51,0,0,1,1.025-.534Zm-19.62,3.173h-.47a2.541,2.541,0,0,1,0-5.082h.47a2.541,2.541,0,0,1,0,5.082Zm9.329,0h-.47a2.541,2.541,0,0,1,0-5.082h.47a2.541,2.541,0,0,1,0,5.082Z" transform="translate(-209.652 -106.27)" fill="#455a64"/><path d="M271.515,199.927c-1.9,2.218-19.185,18.251-19.185,18.251l.6-9.68,10.066-12.158Z" transform="translate(-218.351 -127.668)" fill="#ffa8a7"/><path d="M224.4,223.423l5.854-4.156c5.616-3.966,12.263-10.2,12.263-17.367a10.712,10.712,0,0,0-9.126-10.3c-4.619-.618-8.424,3.931-9.013,8.311-.576-4.535-4.394-10.1-9.013-10.712a7.778,7.778,0,0,0-9.09,7.876c0,7.181,6.655,15.177,12.228,20.624Z" transform="translate(-204.626 -125.508)" fill="#d65022"/><path d="M249,217.68c-2.352,1.4-6.367,1.453-9.069,1.572s-6.044,4.254-3.847,5.925a9.434,9.434,0,0,0,11.189-.646Z" transform="translate(-213.298 -134.029)" fill="#ffa8a7"/><path d="M206.446,204.21c-.646.519-.835,2.211-.442,4.008s1.916,4.6,4.078,5.447c.99.393,5.293.519,7.364-1.706,2.19-2.359,2.015-6.395-1.137-5.679a33.932,33.932,0,0,1-9.126.463A18.322,18.322,0,0,1,206.446,204.21Z" transform="translate(-204.484 -130.014)" fill="#ffa8a7"/></g><g transform="translate(195.912 99.386)"><g transform="translate(0 0)"><rect width="6.921" height="10.073" transform="translate(72.997 181.643)" fill="#ffa8a7"/><path d="M354.836,367.58V366.6c-.66.288-2.2,6.156-4.949,8.655-2.176,1.994-5.152,4.289-5.911,6.507s4.142,3.587,6.184,3.222c2.366-.421,6.472-2.106,7.5-3.629s1.509-3.833,2.352-4.963,2.766-2.4,3.215-3.706a8.313,8.313,0,0,0-.393-3.636c-.323-1.221-.667-2.569-1.088-2.45v.751a5.478,5.478,0,0,1-3.454,1.172C357.307,368.555,354.829,368.359,354.836,367.58Z" transform="translate(-281.839 -179.282)" fill="#263238"/><path d="M322.934,357.566l-6.914.239.59-10.193,6.914-.232Z" transform="translate(-273.531 -173.556)" fill="#ffa8a7"/><path d="M309.238,358.991c-.365,0-.639.519-1.4,1.4a14.974,14.974,0,0,1-4.064,2.927c-2.59,1.3-7.63,3.292-9.9,4.317-1.4.646-1.362,2.366.112,3.341s5.026,1.685,9.294.7c2.323-.52,5.349-2.667,7.265-2.548s5.5.084,6.907-.891.849-3.054.449-4.844c-.435-1.952-1.06-5.005-1.706-4.872l-.042.814c-.835,1.263-5.11,1.516-6.935.59Z" transform="translate(-266.623 -176.878)" fill="#263238"/><path d="M310.445,168.388c-3.124,3-21.529,12.635-22.54,12.46-1.516-.211-7.02-5.616-11.723-10.614-.737-3.8-1.818-8.6-3.026-11.281a12.845,12.845,0,0,0-2.717-4.212l.316-1.292L288.572,170.3s19.55-14.741,22.463-15.584S313.569,165.39,310.445,168.388Z" transform="translate(-259.947 -115.759)" fill="#f28f8f"/><path d="M259.358,150.209c-2.387.6-4.212,2.211-3.812,4.794.26,1.7,3.068,2.941,4.577,1.65,1.214-1.046,4.851-3.552,6.514-2.267a4.1,4.1,0,0,1,.372,2.464c-.112,1.348.576,2.309.983,2.246s1.039-2.211,1.1-3.054c.091-1.306-.653-5.138-6.486-5.911h0A8.837,8.837,0,0,0,259.358,150.209Z" transform="translate(-255.491 -114.736)" fill="#ffa8a7"/><path d="M382.946,204.917c-.154-2.106-3.713-11.639-5.482-15.577l-8.964,4.212,3.433,7.862,9.287,7.174C383.627,208.209,383.017,205.8,382.946,204.917Z" transform="translate(-289.172 -126.455)" fill="#ffa8a7"/><path d="M348.752,219.667c0,6.606.856,49.341.856,49.341.161,1.9,2.583,8.15,2.808,16.988.281,9.926.576,32.29.576,32.29s-3.243,3.215-7.82,0c0,0-7.546-32.67-9.87-45.08-1.081-8.578-3.784-33.182-3.784-33.182L325.9,268.033a63.58,63.58,0,0,1,.7,9.947c0,4.563-3.98,34.158-3.98,34.158s-3.91,2.373-7.658.126c0,0-2.253-40.061-2.317-44.224-.077-5.1,3.7-48.38,3.7-48.38Z" transform="translate(-272.526 -135.492)" fill="#37474f"/><path d="M336.237,244.413l-.807-5.981s-5.216-2.394-7.02-4.092c0,0,3.278,4.331,5.342,5.539l-2.527,29.63Z" transform="translate(-277.224 -139.867)" fill="#263238"/><path d="M323.53,154c-3.6,0-8.424,3.173-12.495,6.318s-7.455,5.735-7.455,5.735c.7,3.8,3.124,7.286,5.735,10.136l11.589-6.283S325.959,159.616,323.53,154Z" transform="translate(-269.823 -115.923)" fill="#e6e6e6"/><path d="M339.938,154.368c6.205,1.5,14.074,4,16.847,9.715s7.02,14.98,7.02,14.98a25.117,25.117,0,0,1-10.27,6.072l-3.152-5.489v20.476c-4.851,5.272-21.761,7.722-32.354,0V166.428c0-5.391,2.99-11.863,11.231-12.348Z" transform="translate(-274.13 -115.947)" fill="#f5f5f5"/><path d="M362.474,187.66s-3.11-5.391-3.784-6.69l3.784,13.021Z" transform="translate(-286.248 -123.961)" fill="#e6e6e6"/><path d="M352.14,115.189a3.685,3.685,0,0,1,3.054,1.074c1.306,1.341,1.039,3.819,0,9.519l-4.043.463Z" transform="translate(-284.001 -104.348)" fill="#263238"/><path d="M317.33,112.553a6.255,6.255,0,0,1-2.534-.512c-1.242-.7-1.565.7-.884,1.93a5.791,5.791,0,0,0,4.7,3.124c.035-.175,1.165-3.159,1.165-3.159Z" transform="translate(-272.798 -103.361)" fill="#263238"/><path d="M340.781,124.331c.6.358,1.453-.8,2.2-1.572s3.159-1.839,4.366.7-1.558,6.037-3.2,7.174a2.874,2.874,0,0,1-3.362.295l-.435,9.912a10.572,10.572,0,0,1-7.967,6.051c-5.819.793-4.626-4.036-2.731-6.416v-3.6a14.257,14.257,0,0,1-4.429.225,6.549,6.549,0,0,1-4.31-4.436,35.1,35.1,0,0,1-.976-16.3c1.474-8.992,11.618-9.126,17.3-5.567S340.781,124.331,340.781,124.331Z" transform="translate(-274.537 -102.399)" fill="#ffa8a7"/><path d="M339.83,122.671c.3,0,1.446-1.9,2.2-2.583,1.039-.948-.3-9.491-.3-9.491s1.053-3.236-1-5.384-6.023-1.79-8.929-1.9a26.015,26.015,0,0,1-10.375-2.106c-4.128-1.8-4.436-2.008-4.914-.2s-.7,5.96,1.755,8.739l2.043.751s1.109.983,4.956,1.453a56.626,56.626,0,0,0,10.656-.2c1.116-.154,1.355.927,1.951,3.882C338.37,118.256,338.812,122.65,339.83,122.671Z" transform="translate(-273.586 -99.756)" fill="#263238"/><path d="M352.454,114.835l3.636-1.951a2.008,2.008,0,0,0-2.752-.913,2.176,2.176,0,0,0-.884,2.864Z" transform="translate(-284.322 -103.327)" fill="#263238"/><path d="M333.991,146.922s5.391-1.088,7.272-2.106a6.157,6.157,0,0,0,2.6-2.576,8.481,8.481,0,0,1-1.474,3.039c-1.4,1.762-8.424,3.061-8.424,3.061Z" transform="translate(-278.881 -112.418)" fill="#f28f8f"/><path d="M335.89,128.521a1.1,1.1,0,0,0,1.074,1.116,1.123,1.123,0,1,0-1.074-1.116Z" transform="translate(-279.453 -107.993)" fill="#263238"/><path d="M337.8,122.362l2.309,1.271a1.4,1.4,0,0,0-.541-1.839,1.285,1.285,0,0,0-1.769.569Z" transform="translate(-280.022 -106.278)" fill="#263238"/><path d="M334.954,139.47l-2.464.927a1.292,1.292,0,0,0,1.671.814A1.4,1.4,0,0,0,334.954,139.47Z" transform="translate(-278.439 -111.592)" fill="#f28f8f"/><path d="M321.521,123.687l2.106-1.629a1.285,1.285,0,0,0-1.832-.281,1.4,1.4,0,0,0-.274,1.909Z" transform="translate(-275.094 -106.24)" fill="#263238"/><path d="M323.09,128.12a1.081,1.081,0,1,0,1.081-1.13A1.116,1.116,0,0,0,323.09,128.12Z" transform="translate(-275.638 -107.873)" fill="#263238"/><path d="M329.339,127.14l-.358,6.493-3.391-1.151Z" transform="translate(-276.383 -107.918)" fill="#f28f8f"/><path d="M307.39,214.868l4.64-2.471c4.429-2.359,9.715-6.36,9.715-12.039,0-3.98-3.222-8.2-7.2-9.427-3.657-1.13-6.676,1.937-7.139,5.328-.456-3.678-3.475-8.613-7.139-9.743-3.973-1.235-7.2,1-7.2,4.97,0,5.686,5.265,12.951,9.687,18.041Z" transform="translate(-266.691 -125.512)" fill="#d65022"/><path d="M365.189,212.693l-9.287-7.174s-18.721,3.047-20.919,3.215-4.135-1.488-4.97-3.643-2.148-1.923-2.148-1.923a8.292,8.292,0,0,1,.211,3.713c-.758.814-5.089,1.629-8.009.639s-7.153.449-4.535,4.422,7.722,4.443,11.232,4.443a36.744,36.744,0,0,0,4.422-.295c1.144-.147,2.288-.267,3.44-.344C341.9,215.227,361.9,213.732,365.189,212.693Z" transform="translate(-273.141 -130.574)" fill="#ffa8a7"/></g></g><g transform="translate(92.476 102.33)"><g transform="translate(0 0)"><path d="M150.14,152.927c6.388-1.165,6.669-.288,26.773,10.958,0,0,23.677-9.6,26.485-11.231s6.83-2.7,9.828-.87a7.722,7.722,0,0,0-2.141.365c-.344.168-1.5.758-1.348,1.285.056.225.33.295.562.309a6.038,6.038,0,0,0,1.467-.07c.562-.1,1.228-.239,1.615.175a1.018,1.018,0,0,1-.056,1.278,3,3,0,0,1-1.137.779l-2.106.976a7.527,7.527,0,0,0-1.453.807c-.414.309-.765.7-1.193,1-1.334.92-2.9.442-4.3,1.039-.239.1-.477.225-.7.33-1.032.491-2.015,1.067-3,1.65-2.864,1.7-5.665,3.51-8.473,5.293s-5.468,3.51-8.29,5.1a13.606,13.606,0,0,1-3.306,1.572c-3.51.849-23.677-7.918-23.677-7.918Z" transform="translate(-120.658 -117.921)" fill="#9e6767"/><path d="M133.247,105.06h4.787a13.3,13.3,0,0,1,13.3,13.3v2.218A13.218,13.218,0,0,1,138.112,133.8H133.2A13.218,13.218,0,0,1,119.98,120.58v-2.225a13.3,13.3,0,0,1,13.267-13.3Z" transform="translate(-111.669 -104.282)" fill="#7d2525"/><path d="M125.248,369.131V368.12c.4,1.186,2.246,6.276,5.04,8.831,2.225,2.029,5.265,4.373,6.037,6.634s-4.212,3.145-6.318,2.808a12.888,12.888,0,0,1-7.244-3.889c-1.193-1.474-1.951-3.215-2.808-4.366s-2.808-2.45-3.285-3.784a8.584,8.584,0,0,1,.407-3.706c.323-1.242.7-2.618,1.1-2.5v.765a5.531,5.531,0,0,0,3.51,1.193C122.756,370.142,125.255,369.917,125.248,369.131Z" transform="translate(-110.655 -182.682)" fill="#263238"/><path d="M133,376.278c-.7-.618-1.4-1.214-2.015-1.79a20.5,20.5,0,0,1-4.3-6.872,9.638,9.638,0,0,1-.744-3.713V359.88H118.88v6.549h0v.168h.035c.344,1.467,3.58,5.363,5.419,7.9,1.228,1.706,3.573,3.875,6.374,4.247C133.362,379.128,134.716,378.293,133,376.278Z" transform="translate(-111.341 -180.226)" fill="#9e6767"/><path d="M164.447,359.218v-1.011c.393,1.186,2.239,6.318,5.04,8.831,2.225,2.029,5.258,4.373,6.03,6.641s-4.212,3.138-6.318,2.773a12.8,12.8,0,0,1-7.244-3.889c-1.193-1.467-1.958-3.208-2.808-4.366s-2.808-2.443-3.278-3.784a8.414,8.414,0,0,1,.4-3.7c.33-1.249.7-2.618,1.109-2.506v.772a5.573,5.573,0,0,0,3.51,1.193C161.948,360.208,164.454,360,164.447,359.218Z" transform="translate(-122.336 -179.726)" fill="#263238"/><path d="M172.2,366.384c-.7-.618-1.4-1.221-2.015-1.8a20.416,20.416,0,0,1-4.3-6.872A9.757,9.757,0,0,1,165.15,354v-4h-7.02v6.542h0v.176h0c.337,1.467,3.573,5.37,5.412,7.911,1.235,1.706,3.58,3.875,6.381,4.247C172.569,369.227,173.931,368.392,172.2,366.384Z" transform="translate(-123.039 -177.282)" fill="#9e6767"/><path d="M119.509,212.666c-5.468,11.933.2,54.016.2,54.016-.161,1.937-2.38,5.756-3.2,14.285-.976,10.08,1.53,35.386,1.53,35.386a7.623,7.623,0,0,0,7.125.281s6.725-38.117,7.988-48.134c1.1-8.747,3.222-27.98,3.222-27.98l6.016,27.931a51.779,51.779,0,0,0-1.9,8.634c-.576,5.89,5.138,33.336,5.138,33.336s2.436.9,7.02.218c0,0,2.022-36.425,2.548-43.522.9-11.933-2.267-49.138-4.457-56.157Z" transform="translate(-110.566 -135.843)" fill="#37474f"/><path d="M144.9,246.34l1.776-11.091s7.511-1.558,10.916-4.759a19.454,19.454,0,0,1-8.88,5.9l-1.994,8.536,3.51,25.867Z" transform="translate(-119.096 -141.664)" fill="#263238"/><path d="M130.241,154.143h0c-7.02.477-7.5,3.868-9.252,7.567a11.975,11.975,0,0,0-.337,9.034l4.914,14.138s-2.281,5.531-4.914,10.754c12.263,6.844,27.573,3.243,31.259-1.748.154-1.06-.793-9.343-1.4-14.741,2.162-5.419,2.731-8.852,1.818-12.432-1.692-6.648-8.255-13.12-11.161-12.888Z" transform="translate(-111.653 -118.814)" fill="#f5f5f5"/><path d="M126.038,198.034s1.446-5.749,1.965-7.02a2.408,2.408,0,0,1,2.478-1.65h0a7.153,7.153,0,0,1-3.061-4.563l-1.488-7.476s2.766-8.782,2.485-11.786l-7.02.407-.906.632a12.284,12.284,0,0,0,.2,7.63l4.914,14.138s-2.281,5.532-4.914,10.754a31.691,31.691,0,0,0,26.2,1.734Z" transform="translate(-111.669 -122.307)" fill="#e6e6e6"/><path d="M108.168,190.791c.042-.555,2.464-15.443,4.387-25.467,1.292-6.767,3.987-9.245,9.266-10.059l1.874-.295c2.506,8.234.779,11.933-2.527,17.6L118.052,187.6l-7.546,7.63C107.908,194.715,108.112,191.571,108.168,190.791Z" transform="translate(-108.14 -119.156)" fill="#9e6767"/><path d="M148.186,114.1c1.657.983,3.706,5.145,3.51,13.885-.176,7.406-2.576,9.238-3.777,9.764s-3.51.2-5.791-.168v4.443s3.124,3.629,2.927,5.665-4.514,2.52-7.434.526a18.876,18.876,0,0,1-4.794-5.019v-10.74a2.841,2.841,0,0,1-4.022.379c-2.492-1.657-2.59-5.763-1.144-7.237s4.584-1,5.166,1.032a17.936,17.936,0,0,0,8.424-2.506A13.5,13.5,0,0,0,148.186,114.1Z" transform="translate(-113.677 -106.976)" fill="#9e6767"/><path d="M149.717,130.839a.934.934,0,1,1-.983-.92.948.948,0,0,1,.983.92Z" transform="translate(-119.975 -111.69)" fill="#263238"/><path d="M150.838,140.18l2.162.7a1.109,1.109,0,0,1-1.4.772A1.186,1.186,0,0,1,150.838,140.18Z" transform="translate(-120.85 -114.748)" fill="#874c4c"/><path d="M160.588,126.385l-1.888-1.306a1.1,1.1,0,0,1,1.565-.323,1.207,1.207,0,0,1,.323,1.629Z" transform="translate(-123.209 -110.093)" fill="#263238"/><path d="M159.977,129.879a.934.934,0,1,1-.983-.92.948.948,0,0,1,.983.92Z" transform="translate(-123.033 -111.404)" fill="#263238"/><path d="M154.51,129.51l.147,5.609,2.948-.913Z" transform="translate(-121.96 -111.568)" fill="#874c4c"/><path d="M145.245,146c-2.38-.316-7.286-1.72-8.045-3.657a5.019,5.019,0,0,0,1.713,2.471c1.467,1.257,6.318,2.667,6.318,2.667Z" transform="translate(-116.801 -115.392)" fill="#874c4c"/><path d="M175.618,212.938l-4.465-2.38c-4.261-2.267-9.343-6.121-9.343-11.582a10.207,10.207,0,0,1,6.921-9.069c3.51-1.088,6.43,1.86,6.872,5.124.442-3.51,3.348-8.29,6.865-9.378,3.826-1.179,6.928.962,6.928,4.787,0,5.468-5.068,12.453-9.322,17.353Z" transform="translate(-124.136 -128.204)" fill="#d65022"/><path d="M111.51,209.08l7.546-7.63s19.044,4.212,21.192,4.415,3.854-1.769,5.363-3.468a1.945,1.945,0,0,1,1.5-.7,5.005,5.005,0,0,0-.19,2.106c.323.9,5.061,1.86,7.925.891s7.02.435,4.429,4.331-7.546,4.338-11.014,4.345a36.552,36.552,0,0,1-4.331-.288c-1.116-.147-2.232-.26-3.362-.344C133.489,212.211,114.732,210.091,111.51,209.08Z" transform="translate(-109.145 -133.009)" fill="#9e6767"/><path d="M119.187,107.252c3.061,1.285,2.373,3.91,1.1,6.963s-2.667,5.4-5.728,4.114a6,6,0,1,1,4.633-11.077Z" transform="translate(-108.953 -104.796)" fill="#613652"/><path d="M125.669,109.145l1.074-5.11a2.534,2.534,0,0,0-3.124,1.923A2.745,2.745,0,0,0,125.669,109.145Z" transform="translate(-112.739 -103.951)" fill="#257d79"/></g></g></g><g transform="translate(292 989.157)"><g transform="translate(0 0)"><path d="M101.012,316.674c-.541-6.739-6.528-20.3-14.25-28.5s-19.2-13.688-26.787-10.4c-7.048,3.089-5.5,12.565,3.833,18.174s23.228,12.488,27.987,23.1l9.217,12.748Z" transform="translate(-55.582 -276.808)" fill="#257d79"/><path d="M101.012,316.674c-.541-6.739-6.528-20.3-14.25-28.5s-19.2-13.688-26.787-10.4c-7.048,3.089-5.5,12.565,3.833,18.174s23.228,12.488,27.987,23.1l9.217,12.748Z" transform="translate(-55.582 -276.808)" fill="#d2dff2"/><path d="M105.633,327.828a.484.484,0,0,1-.47-.358c-6.36-22.631-26.464-39.83-37.906-43.059a.5.5,0,0,1,.267-.955c11.681,3.3,32.15,20.771,38.608,43.747a.5.5,0,0,1-.477.625Z" transform="translate(-58.968 -278.788)" fill="#fff"/><path d="M102.833,352.983c-1.4-3.7-6.507-9.575-14.4-14.138-8.732-5.04-19.416-6.823-22.189-11.077-3.327-5.1.765-10.529,9.35-10.136s24.464,10.782,28.254,28.051Z" transform="translate(-58.415 -288.969)" fill="#d2dff2"/><path d="M107.092,350.947a.5.5,0,0,1-.449-.288c-8.634-19.136-24.218-24.836-31.252-25.187a.492.492,0,1,1,.049-.983c7.778.379,23.291,6.233,32.1,25.762a.491.491,0,0,1-.246.653A.5.5,0,0,1,107.092,350.947Z" transform="translate(-61.347 -291.019)" fill="#fff"/><path d="M368.24,318.6c.47-5.847,3.145-15.443,9.947-24.569,7.272-9.785,16.145-15.907,22.73-13.043,6.135,2.667,3.812,11.14-6.753,19.494-7.406,5.861-15.092,13.492-19.227,22.7l-6.7,11.723Z" transform="translate(-148.765 -277.843)" fill="#d2dff2"/><g transform="translate(219.475 2.438)" opacity="0.1"><path d="M368.24,318.6c.47-5.847,3.145-15.443,9.947-24.569,7.272-9.785,16.145-15.907,22.73-13.043,6.135,2.667,3.812,11.14-6.753,19.494-7.406,5.861-15.092,13.492-19.227,22.7l-6.7,11.723Z" transform="translate(-368.24 -280.282)" fill="#d2dff2"/></g><path d="M368.9,324.575a.421.421,0,0,0,.393-.274c5.889-16.208,18.146-32.606,28.514-38.152a.407.407,0,0,0,.168-.562.414.414,0,0,0-.562-.168c-10.529,5.616-22.954,22.217-28.9,38.608a.414.414,0,0,0,.246.533Z" transform="translate(-148.84 -279.359)" fill="#fff"/><path d="M367.25,349.737a24.716,24.716,0,0,0,11.73,5.026c7.392,1.172,10.656-2.366,10.656-2.366s-2.913-6.929-7.111-8.873a41.124,41.124,0,0,1,12.825,5.258s4.514.07,6.318-6.816c0,0-2.675-4.149-11.646-6.388,0,0,5.461-1.4,13.337.639.59.232,3.1-8.676,3.868-12.783s-.891-4.064-4.092-4.914-14.109-1.4-16.145.372-3.026,7.785-3.026,7.785-1.916-3.411-1.46-6.451a11.406,11.406,0,0,0-6.809.161c-3.6,1.257-3.369,3-3.369,5.616a27.757,27.757,0,0,0,1.074,7.8s-2.485-2.148-2.569-10.073c0,0-4.865,4.163-6.816,7.722S362.561,344.4,367.25,349.737Z" transform="translate(-147.185 -289.001)" fill="#d2dff2"/><path d="M368.9,351.451a.435.435,0,0,0,.379-.239c5.96-12.39,28.135-26.787,36.074-28.331a.421.421,0,0,0,.33-.491.414.414,0,0,0-.484-.323c-8.08,1.565-30.613,16.194-36.671,28.781a.414.414,0,0,0,.2.555A.4.4,0,0,0,368.9,351.451Z" transform="translate(-148.84 -290.294)" fill="#fff"/></g></g></g></g></svg>