<svg xmlns="http://www.w3.org/2000/svg" xmlns:xlink="http://www.w3.org/1999/xlink" width="397.294" height="304.831" viewBox="0 0 397.294 304.831">
  <defs>
    <clipPath id="clip-path">
      <rect id="Rectangle_16900" data-name="Rectangle 16900" width="7.153" height="35.517" fill="#263238"/>
    </clipPath>
    <clipPath id="clip-path-3">
      <rect id="Rectangle_16908" data-name="Rectangle 16908" width="7.153" height="35.517" transform="translate(35.517 0) rotate(90)" fill="#263238"/>
    </clipPath>
    <clipPath id="clip-path-5">
      <rect id="Rectangle_16916" data-name="Rectangle 16916" width="7.153" height="35.517" transform="translate(0 2.07) rotate(-16.82)" fill="#263238"/>
    </clipPath>
    <clipPath id="clip-path-7">
      <rect id="Rectangle_16926" data-name="Rectangle 16926" width="7.153" height="35.517" transform="translate(6.241 0) rotate(10.12)" fill="#263238"/>
    </clipPath>
    <clipPath id="clip-path-10">
      <rect id="Rectangle_16938" data-name="Rectangle 16938" width="7.153" height="35.517" fill="#6b6b6b"/>
    </clipPath>
    <clipPath id="clip-path-14">
      <rect id="Rectangle_16954" data-name="Rectangle 16954" width="7.153" height="35.517" transform="translate(35.517) rotate(90)" fill="#263238"/>
    </clipPath>
    <clipPath id="clip-path-15">
      <path id="Path_5246" data-name="Path 5246" d="M434.825,185.031A25.579,25.579,0,0,0,422.3,180c-7.074-.606-17.372,7.908-17.574,12.521s-2.821,3.84-3.629,6.467,2.416,2.214,2.416,4.033-4.235,4.042-3.831,5.659,4.842,3.234,4.842,4.235-2.425,2.829-.4,4.446,4.042.4,4.85,2.425,2.636,4.042,3.234,2.636-1.415-9.666-.606-15.553,2.425-8.479,8.682-10.9,10.7-4.244,13.33-6.669S434.825,185.031,434.825,185.031Z" transform="translate(-399.659 -179.965)" fill="#263238" stroke="#263238" stroke-linecap="round" stroke-linejoin="round" stroke-width="1"/>
    </clipPath>
    <clipPath id="clip-path-16">
      <path id="Path_5272" data-name="Path 5272" d="M465.894,222.016c-1.854-.536,1.063-3.981,2.39-7.161s-2.39-5.044-5.272-6.634,0-4.78-.264-9.024-3.515-4.165-5.044-6.625,1.327-10.615-9.015-11.678-14.323.536-18.576,2.636a12.056,12.056,0,0,0-4.85,4.815c-.975.923-1.757,2.083-1.292,3.2,1.01,2.425,2.021,4.042.606,6.669s-.606,5.044.606,6.054,1.213,3.638-.808,5.659-1.415,3.629.4,4.64,3.84,3.638,2.021,6.063-1.213,5.852,2.425,6.661a19.333,19.333,0,0,1,3.409.879l.879,3.875c-.255,1.678-.571,3.207.773,3.515a2.715,2.715,0,0,0,1.652-.308,12.852,12.852,0,0,0,1.889-.536c1.327-.536,1.854,2.636,3.181,5.272s5.272,1.327,7.434-.536a1.951,1.951,0,0,1,1.626-.5,5.035,5.035,0,0,0,2.715,1.037,7.416,7.416,0,0,0,4.147.791c3.981-.527,3.445-2.118,3.981-4.508s2.636-2.39,5.835-5.044S467.748,222.544,465.894,222.016Z" transform="translate(-423.113 -180.555)" fill="#263238" stroke="#263238" stroke-linecap="round" stroke-linejoin="round" stroke-width="1"/>
    </clipPath>
  </defs>
  <g id="Psychologist-bro" transform="translate(-29.5 -92.17)">
    <g id="freepik--Floor--inject-2" transform="translate(30 395.233)">
      <line id="Line_10" data-name="Line 10" x2="382.498" transform="translate(13.796)" fill="none" stroke="#263238" stroke-linecap="round" stroke-linejoin="round" stroke-width="1"/>
      <line id="Line_11" data-name="Line 11" x2="7.662" fill="none" stroke="#263238" stroke-linecap="round" stroke-linejoin="round" stroke-width="1"/>
    </g>
    <g id="freepik--Pictures--inject-2" transform="translate(50.685 92.96)">
      <rect id="Rectangle_16893" data-name="Rectangle 16893" width="75.023" height="121.261" fill="none" stroke="rgba(255,255,255,0.2)" stroke-width="1"/>
      <rect id="Rectangle_16894" data-name="Rectangle 16894" width="56.448" height="91.235" transform="translate(9.288 15.017)" fill="none" stroke="rgba(255,255,255,0.2)" stroke-width="1"/>
      <rect id="Rectangle_16895" data-name="Rectangle 16895" width="75.023" height="121.261" transform="translate(275.103)" fill="none" stroke="rgba(255,255,255,0.2)" stroke-width="1"/>
      <rect id="Rectangle_16896" data-name="Rectangle 16896" width="56.448" height="91.235" transform="translate(284.391 15.017)" fill="none" stroke="rgba(255,255,255,0.2)" stroke-width="1"/>
    </g>
    <g id="freepik--Bookshelf--inject-2" transform="translate(144.082 92.67)">
      <rect id="Rectangle_16897" data-name="Rectangle 16897" width="7.153" height="35.517" transform="translate(5.545 61.201)" fill="#ededed"/>
      <g id="Group_2491" data-name="Group 2491" transform="translate(5.545 61.201)" clip-path="url(#clip-path)">
        <rect id="Rectangle_16898" data-name="Rectangle 16898" width="8.506" height="1.564" transform="translate(-0.378 4.165)" fill="#1e64cc"/>
        <rect id="Rectangle_16899" data-name="Rectangle 16899" width="8.506" height="1.564" transform="translate(-0.378 30.043)" fill="#1e64cc"/>
      </g>
      <rect id="Rectangle_16901" data-name="Rectangle 16901" width="7.153" height="35.517" transform="translate(13.532 61.201)" fill="#ededed"/>
      <g id="Group_2492" data-name="Group 2492" transform="translate(13.532 61.201)" clip-path="url(#clip-path)">
        <rect id="Rectangle_16902" data-name="Rectangle 16902" width="8.506" height="1.564" transform="translate(-0.378 4.165)" fill="#1e64cc"/>
        <rect id="Rectangle_16903" data-name="Rectangle 16903" width="8.506" height="1.564" transform="translate(-0.378 30.043)" fill="#1e64cc"/>
      </g>
      <rect id="Rectangle_16905" data-name="Rectangle 16905" width="7.153" height="35.517" transform="translate(151.752 89.645) rotate(90)" fill="#ededed"/>
      <g id="Group_2493" data-name="Group 2493" transform="translate(116.235 89.645)" clip-path="url(#clip-path-3)">
        <rect id="Rectangle_16906" data-name="Rectangle 16906" width="8.506" height="1.564" transform="translate(31.343 -0.387) rotate(90)" fill="#1e64cc"/>
        <rect id="Rectangle_16907" data-name="Rectangle 16907" width="8.506" height="1.564" transform="translate(5.466 -0.387) rotate(90)" fill="#1e64cc"/>
      </g>
      <rect id="Rectangle_16909" data-name="Rectangle 16909" width="7.153" height="35.517" transform="translate(151.743 82.396) rotate(90)" fill="#ededed"/>
      <g id="Group_2494" data-name="Group 2494" transform="translate(116.226 82.396)" clip-path="url(#clip-path-3)">
        <rect id="Rectangle_16910" data-name="Rectangle 16910" width="8.506" height="1.564" transform="translate(31.352 -0.387) rotate(90)" fill="#1e64cc"/>
        <rect id="Rectangle_16911" data-name="Rectangle 16911" width="8.506" height="1.564" transform="translate(5.483 -0.387) rotate(90)" fill="#1e64cc"/>
      </g>
      <rect id="Rectangle_16913" data-name="Rectangle 16913" width="7.153" height="35.517" transform="translate(20.452 62.978) rotate(-16.82)" fill="#ededed"/>
      <g id="Group_2495" data-name="Group 2495" transform="translate(20.452 60.908)" clip-path="url(#clip-path-5)">
        <rect id="Rectangle_16914" data-name="Rectangle 16914" width="8.506" height="1.564" transform="translate(0.847 6.176) rotate(-16.82)" fill="#1e64cc"/>
        <rect id="Rectangle_16915" data-name="Rectangle 16915" width="8.506" height="1.564" transform="translate(8.328 30.939) rotate(-16.82)" fill="#1e64cc"/>
      </g>
      <path id="Path_5230" data-name="Path 5230" d="M249.548,187.053s-5.562-6.6-4.517-9.2,2.636.518,2.636.518-4.683-10.544-.343-11.116,6.423,8.163,6.423,8.163,1.564-9.033,4.341-6.081-.518,10.6-.518,10.6,5.729-4.517,4.341-.694-7.126,8.33-7.126,8.33Z" transform="translate(-170.149 -101.714)" fill="#1e64cc"/>
      <path id="Path_5231" data-name="Path 5231" d="M250.281,187.722s-7.469-6.081-4.517-7.469,4.683,1.564,4.683,1.564-1.757-10.6,1.564-10.6,2.636,8.339,2.636,8.339,1.907-6.6,3.647-4.165-2.434,13.022-2.434,13.022" transform="translate(-170.17 -102.198)" fill="none" stroke="#263238" stroke-width="1"/>
      <path id="Path_5232" data-name="Path 5232" d="M258.862,188.01H245.84l1.3,12.68h10.421Z" transform="translate(-170.263 -104.235)" fill="#ededed"/>
      <rect id="Rectangle_16917" data-name="Rectangle 16917" width="13.541" height="14.692" transform="translate(23.101 33.452)" fill="#1e64cc"/>
      <rect id="Rectangle_16918" data-name="Rectangle 16918" width="6.661" height="14.692" transform="translate(26.546 20.597)" fill="#1e64cc"/>
      <rect id="Rectangle_16919" data-name="Rectangle 16919" width="7.153" height="35.517" transform="translate(5.545 12.873)" fill="#ededed"/>
      <g id="Group_2496" data-name="Group 2496" transform="translate(5.545 12.873)" clip-path="url(#clip-path)">
        <rect id="Rectangle_16920" data-name="Rectangle 16920" width="8.506" height="1.564" transform="translate(-0.378 4.165)" fill="#1e64cc"/>
        <rect id="Rectangle_16921" data-name="Rectangle 16921" width="8.506" height="1.564" transform="translate(-0.378 30.043)" fill="#1e64cc"/>
      </g>
      <rect id="Rectangle_16923" data-name="Rectangle 16923" width="7.153" height="35.517" transform="translate(152.426 11.847) rotate(10.12)" fill="#ededed"/>
      <g id="Group_2497" data-name="Group 2497" transform="translate(146.186 11.847)" clip-path="url(#clip-path-7)">
        <rect id="Rectangle_16924" data-name="Rectangle 16924" width="8.506" height="1.564" transform="translate(5.145 4.039) rotate(10.12)" fill="#1e64cc"/>
        <rect id="Rectangle_16925" data-name="Rectangle 16925" width="8.506" height="1.564" transform="translate(0.591 29.511) rotate(10.12)" fill="#1e64cc"/>
      </g>
      <rect id="Rectangle_16927" data-name="Rectangle 16927" width="7.153" height="35.517" transform="translate(13.532 12.873)" fill="#ededed"/>
      <g id="Group_2498" data-name="Group 2498" transform="translate(13.532 12.873)" clip-path="url(#clip-path)">
        <rect id="Rectangle_16928" data-name="Rectangle 16928" width="8.506" height="1.564" transform="translate(-0.378 4.165)" fill="#1e64cc"/>
        <rect id="Rectangle_16929" data-name="Rectangle 16929" width="8.506" height="1.564" transform="translate(-0.378 30.043)" fill="#1e64cc"/>
      </g>
      <rect id="Rectangle_16931" data-name="Rectangle 16931" width="7.153" height="35.517" transform="translate(57.687 12.873)" fill="#ededed"/>
      <g id="Group_2499" data-name="Group 2499" transform="translate(57.687 12.873)" clip-path="url(#clip-path)">
        <rect id="Rectangle_16932" data-name="Rectangle 16932" width="8.506" height="1.564" transform="translate(-0.387 4.165)" fill="#1e64cc"/>
        <rect id="Rectangle_16933" data-name="Rectangle 16933" width="8.506" height="1.564" transform="translate(-0.387 30.043)" fill="#1e64cc"/>
      </g>
      <rect id="Rectangle_16935" data-name="Rectangle 16935" width="7.153" height="35.517" transform="translate(64.91 12.873)" fill="#ccc"/>
      <g id="Group_2500" data-name="Group 2500" transform="translate(64.91 12.873)" clip-path="url(#clip-path-10)">
        <rect id="Rectangle_16936" data-name="Rectangle 16936" width="8.506" height="1.564" transform="translate(-0.387 4.165)" fill="#1e64cc"/>
        <rect id="Rectangle_16937" data-name="Rectangle 16937" width="8.506" height="1.564" transform="translate(-0.387 30.043)" fill="#1e64cc"/>
      </g>
      <rect id="Rectangle_16939" data-name="Rectangle 16939" width="7.153" height="35.517" transform="translate(72.133 12.873)" fill="#ededed"/>
      <g id="Group_2501" data-name="Group 2501" transform="translate(72.133 12.873)" clip-path="url(#clip-path)">
        <rect id="Rectangle_16940" data-name="Rectangle 16940" width="8.506" height="1.564" transform="translate(-0.387 4.165)" fill="#1e64cc"/>
        <rect id="Rectangle_16941" data-name="Rectangle 16941" width="8.506" height="1.564" transform="translate(-0.387 30.043)" fill="#1e64cc"/>
      </g>
      <rect id="Rectangle_16943" data-name="Rectangle 16943" width="7.153" height="35.517" transform="translate(79.355 12.873)" fill="#bababa"/>
      <g id="Group_2502" data-name="Group 2502" transform="translate(79.355 12.873)" clip-path="url(#clip-path-10)">
        <rect id="Rectangle_16944" data-name="Rectangle 16944" width="8.506" height="1.564" transform="translate(-0.387 4.165)" fill="#1e64cc"/>
        <rect id="Rectangle_16945" data-name="Rectangle 16945" width="8.506" height="1.564" transform="translate(-0.387 30.043)" fill="#1e64cc"/>
      </g>
      <rect id="Rectangle_16947" data-name="Rectangle 16947" width="7.153" height="35.517" transform="translate(86.578 12.873)" fill="#ccc"/>
      <g id="Group_2503" data-name="Group 2503" transform="translate(86.578 12.873)" clip-path="url(#clip-path)">
        <rect id="Rectangle_16948" data-name="Rectangle 16948" width="8.506" height="1.564" transform="translate(-0.387 4.165)" fill="#1e64cc"/>
        <rect id="Rectangle_16949" data-name="Rectangle 16949" width="8.506" height="1.564" transform="translate(-0.387 30.043)" fill="#1e64cc"/>
      </g>
      <rect id="Rectangle_16951" data-name="Rectangle 16951" width="7.153" height="35.517" transform="translate(146.058 41.308) rotate(90)" fill="#ededed"/>
      <g id="Group_2504" data-name="Group 2504" transform="translate(110.54 41.308)" clip-path="url(#clip-path-14)">
        <rect id="Rectangle_16952" data-name="Rectangle 16952" width="8.506" height="1.564" transform="translate(31.343 -0.378) rotate(90)" fill="#1e64cc"/>
        <rect id="Rectangle_16953" data-name="Rectangle 16953" width="8.506" height="1.564" transform="translate(5.474 -0.378) rotate(90)" fill="#1e64cc"/>
      </g>
      <path id="Path_5233" data-name="Path 5233" d="M159.83,92.67V193.29H323.418V92.67Zm106.27,3.8V141H217.095V96.475Zm-102.1,0h48.961V141H164Zm0,93.019V144.961h48.961v44.533Zm53.126,0V144.961H266.1v44.533Zm102.1,0h-48.97V144.961h48.97ZM270.265,141V96.475h48.97V141Z" transform="translate(-159.83 -92.67)" fill="none" stroke="rgba(255,255,255,0.2)" stroke-linecap="round" stroke-linejoin="round" stroke-width="1"/>
    </g>
    <g id="freepik--Table--inject-2" transform="translate(171.128 285.729)">
      <rect id="Rectangle_16955" data-name="Rectangle 16955" width="14.446" height="60.384" transform="translate(0 49.119)" fill="#fff" stroke="#263238" stroke-linecap="round" stroke-linejoin="round" stroke-width="1"/>
      <rect id="Rectangle_16956" data-name="Rectangle 16956" width="14.446" height="60.384" transform="translate(95.031 49.119)" fill="#fff" stroke="#263238" stroke-linecap="round" stroke-linejoin="round" stroke-width="1"/>
      <rect id="Rectangle_16957" data-name="Rectangle 16957" width="109.486" height="9.455" transform="translate(0 42.731)" fill="#fff" stroke="#263238" stroke-linecap="round" stroke-linejoin="round" stroke-width="1"/>
      <path id="Path_5234" data-name="Path 5234" d="M242.491,343.794a66.045,66.045,0,0,0-4.393-6.151c-2.2-2.636-8.348-7.689-8.348-7.689l7.908,4.174s-1.318-3.734-2.636-6.81-3.515-10.544-3.515-10.544,5.272,9.007,6.59,10.544,3.515,4.833,3.515,4.833.22-8.348,1.318-10.984,5.712-8.787,5.712-8.787-1.538,9.666-1.538,10.764.659,7.908.659,7.908l2.636-13.84.22,9.666,1.977-10.325s1.538,7.908,1.977,10.325a36.748,36.748,0,0,1,.439,5.492l1.977-7.249,4.833-8.348s0,9.446-.22,10.325-.439,6.59-.439,6.59l2.856-3.075-2.2,6.81,2.856.439,1.318,1.1s-5.272,1.573-7.592,2.214a39.276,39.276,0,0,0-6.687,3.278Z" transform="translate(-195.358 -312.38)" fill="#1e64cc"/>
      <path id="Path_5235" data-name="Path 5235" d="M244.211,344.188s-3.734-8.128-7.469-10.105-5.492-2.856-5.492-2.856,5.492.22,8.348,2.2a15.158,15.158,0,0,1,4.394,5.053,40.587,40.587,0,0,1-.879-8.348c0-4.613,1.1-14.5,1.1-14.5s-.22,12.3.879,16.476a48.4,48.4,0,0,0,3.075,8.128s.439-3.954,1.1-7.908a111.6,111.6,0,0,1,3.075-11.423l-1.757,15.817a45.6,45.6,0,0,0,3.076-6.151c1.318-3.3,7.908-7.689,7.908-7.689s-5.053,6.371-6.151,9.885-2.2,6.59-2.2,6.59a23.489,23.489,0,0,1,4.393-5.053c2.636-2.2,7.469-3.515,7.469-3.515s-6.59,4.833-7.249,6.371-1.757,4.394-1.757,4.394,6.151-5.272,11.423-6.81c0,0-8.128,5.712-10.325,9.666Z" transform="translate(-195.54 -312.774)" fill="none" stroke="#263238" stroke-linecap="round" stroke-linejoin="round" stroke-width="1"/>
      <path id="Path_5236" data-name="Path 5236" d="M240.7,346.15a15.29,15.29,0,0,0-.571,3.945c0,8.049,4.8,8.717,10.711,8.717s10.711-.448,10.711-8.717a15.288,15.288,0,0,0-.571-3.945Z" transform="translate(-196.617 -316.476)" fill="#263238" stroke="#263238" stroke-linecap="round" stroke-linejoin="round" stroke-width="1"/>
      <path id="Path_5237" data-name="Path 5237" d="M240.13,350.487V351h21.388v-.51a7.918,7.918,0,0,0-.053-1.107H240.183Q240.13,349.925,240.13,350.487Z" transform="translate(-196.617 -316.868)" fill="#1e64cc"/>
      <path id="Path_5238" data-name="Path 5238" d="M261.373,353.422c0-.246.07-.51.1-.782H240.24a4.421,4.421,0,0,0,.105.782Z" transform="translate(-196.63 -317.264)" fill="#1e64cc"/>
    </g>
    <g id="freepik--character-2--inject-2" transform="translate(272.817 169.376)">
      <path id="Path_5239" data-name="Path 5239" d="M450.384,367.81l4.947,60.411H453.6l-8.91-59.91Z" transform="translate(-323.118 -202.751)" fill="#fff" stroke="#263238" stroke-linecap="round" stroke-linejoin="round" stroke-width="1"/>
      <path id="Path_5240" data-name="Path 5240" d="M408.134,367.81l4.947,60.411H411.35l-8.91-59.91Z" transform="translate(-317.993 -202.751)" fill="#fff" stroke="#263238" stroke-linecap="round" stroke-linejoin="round" stroke-width="1"/>
      <path id="Path_5241" data-name="Path 5241" d="M403.166,367.81l-4.956,60.411h1.74l8.91-59.91Z" transform="translate(-317.48 -202.751)" fill="#fff" stroke="#263238" stroke-linecap="round" stroke-linejoin="round" stroke-width="1"/>
      <path id="Path_5242" data-name="Path 5242" d="M355.277,367.81l-4.947,60.411h1.731l8.91-59.91Z" transform="translate(-311.673 -202.751)" fill="#fff" stroke="#263238" stroke-linecap="round" stroke-linejoin="round" stroke-width="1"/>
      <path id="Path_5243" data-name="Path 5243" d="M400.094,258.046h54.928s6.59,1.828,3.664,9.525-19.393,89.012-19.393,89.012H352.108l-5.492-50.552s-1.107-7.328,4.024-8.427,26.01-.369,30.043-2.566,13.11-34.067,13.11-34.067S394.593,257.3,400.094,258.046Z" transform="translate(-311.21 -189.424)" fill="#e0e0e0" stroke="#263238" stroke-linecap="round" stroke-linejoin="round" stroke-width="1"/>
      <line id="Line_12" data-name="Line 12" x1="43.83" transform="translate(40.872 155.649)" fill="none" stroke="#263238" stroke-linecap="round" stroke-linejoin="round" stroke-width="1"/>
      <path id="Path_5244" data-name="Path 5244" d="M434.825,185.031A25.579,25.579,0,0,0,422.3,180c-7.074-.606-17.372,7.908-17.574,12.521s-2.821,3.84-3.629,6.467,2.416,2.214,2.416,4.033-4.235,4.042-3.831,5.659,4.842,3.234,4.842,4.235-2.425,2.829-.4,4.446,4.042.4,4.85,2.425,2.636,4.042,3.234,2.636-1.415-9.666-.606-15.553,2.425-8.479,8.682-10.9,10.7-4.244,13.33-6.669S434.825,185.031,434.825,185.031Z" transform="translate(-317.656 -179.965)" fill="#263238"/>
      <g id="Group_2505" data-name="Group 2505" transform="translate(82.003)" clip-path="url(#clip-path-15)">
        <path id="Path_5245" data-name="Path 5245" d="M426.531,186.366s-5.272-3.778-9.068-.51-3.515,7.3-6.3,8.567-6.8,2.012-5.272,5.536,4.288,8.787,1.265,9.824-5.272,3.778-4.288,4.789" transform="translate(-400.02 -180.518)" fill="none" stroke="#666" stroke-linecap="round" stroke-linejoin="round" stroke-width="1"/>
      </g>
      <path id="Path_5247" data-name="Path 5247" d="M434.825,185.031A25.579,25.579,0,0,0,422.3,180c-7.074-.606-17.372,7.908-17.574,12.521s-2.821,3.84-3.629,6.467,2.416,2.214,2.416,4.033-4.235,4.042-3.831,5.659,4.842,3.234,4.842,4.235-2.425,2.829-.4,4.446,4.042.4,4.85,2.425,2.636,4.042,3.234,2.636-1.415-9.666-.606-15.553,2.425-8.479,8.682-10.9,10.7-4.244,13.33-6.669S434.825,185.031,434.825,185.031Z" transform="translate(-317.656 -179.965)" fill="none" stroke="#263238" stroke-linecap="round" stroke-linejoin="round" stroke-width="1"/>
      <path id="Path_5248" data-name="Path 5248" d="M422.848,190.213s-10.1,4.648-11.511,8.488-.4,10.7-.808,11.713-3.638,2.829-3.234,3.629a14,14,0,0,0,2.223,2.425s.4,10.5,3.032,11.309,9.666-1.406,9.666-1.406l4.244,15.544,17.363-4.842-6.458-14.745s7.908-10.3,8.682-17.17S439.992,189,434.939,187.99s-11.309,1.819-11.309,1.819Z" transform="translate(-318.578 -180.912)" fill="#b16668" stroke="#263238" stroke-linecap="round" stroke-linejoin="round" stroke-width="1"/>
      <ellipse id="Ellipse_435" data-name="Ellipse 435" cx="0.905" cy="1.916" rx="0.905" ry="1.916" transform="translate(94.754 26.269)" fill="#263238"/>
      <path id="Path_5249" data-name="Path 5249" d="M413.71,205.574s2.223-2.636,4.64.4" transform="translate(-319.361 -182.943)" fill="none" stroke="#263238" stroke-linecap="round" stroke-linejoin="round" stroke-width="1"/>
      <path id="Path_5250" data-name="Path 5250" d="M394.853,303.41s-17.433,3.77-20.131,4.13a16.234,16.234,0,0,1-6.292-.879c-.721-.167-6.467-3.058-7.188-3.058s-2.873,1.8-5.211,2.337-5.386-.536-5.931.545,1.977,1.432,3.234,1.617a41.389,41.389,0,0,0,4.139.176s-4.675,2.7-5.4,3.058-5.571-1.081-5.211.536,7.548,2.522,10.606,2.873,10.957-2.329,10.957-2.329,10.421,2.329,14.938,2.153,10.6-.536,10.6-.536Z" transform="translate(-311.25 -194.939)" fill="#b16668" stroke="#263238" stroke-linecap="round" stroke-linejoin="round" stroke-width="1"/>
      <path id="Path_5251" data-name="Path 5251" d="M355.05,315.16s-7.188-2.873-5.747-2.873,5.026,1.617,5.026,1.617-2.7-2.513-1.757-2.513,6.107,2.293,6.107,2.293-3.418-1.977-1.441-1.617,6.151,1.617,6.151,1.617" transform="translate(-311.525 -195.907)" fill="#b2b2b2" stroke="#263238" stroke-linecap="round" stroke-linejoin="round" stroke-width="1"/>
      <path id="Path_5252" data-name="Path 5252" d="M334.554,314.587s-12.3,0-15.026,6.907,19.331,86.165,19.331,86.165-7.812,8.708-13.224,10.817-6.309,2.706-4.209,3.3,12.021.879,17.135-.6,12.021-5.413,14.727-6.617-1.2-3.6-3.005-8.11-8.532-32.064-8.831-40.781-3.313-32.758-3.313-32.758,9.622,6.915,27.653,10.219.606-18.936-7.513-24.041S334.554,314.587,334.554,314.587Z" transform="translate(-307.908 -196.292)" fill="#263238" stroke="#263238" stroke-linecap="round" stroke-linejoin="round" stroke-width="1"/>
      <path id="Path_5253" data-name="Path 5253" d="M342.029,424.656l-3.515-3.682c-1.757,1.88-8.128,8.5-12.75,10.3-5.413,2.1-6.309,2.706-4.209,3.3s12.021.879,17.135-.6,12.021-5.413,14.727-6.617c2.539-1.125-.747-3.313-2.636-7.3Z" transform="translate(-308.055 -209.088)" fill="#fff" stroke="#263238" stroke-linecap="round" stroke-linejoin="round" stroke-width="1"/>
      <path id="Path_5254" data-name="Path 5254" d="M321.306,433.846c-1.134.659-.94,1.01.29,1.362,2.109.606,12.021.879,17.135-.6s12.021-5.413,14.727-6.617c1.239-.554,1.081-1.362.378-2.5-5.984,2.812-18.567,8.629-20.755,8.919C330.418,434.787,322.572,434,321.306,433.846Z" transform="translate(-308.061 -209.747)" fill="#263238" stroke="#263238" stroke-linecap="round" stroke-linejoin="round" stroke-width="1"/>
      <path id="Path_5255" data-name="Path 5255" d="M430.369,241.12l-20.395,5.852s-1.819,7.478-7.267,11.52-12.3,7.908-13.936,14.736-1.213,13.33-.808,19.393-4.446,18.778-4.446,18.778-30.9-6.661-41.2-6.239-17.767-1.01-19.384,9.288,5.272,81.526,5.272,81.526-10.5,9.666-15.149,12.53-8.479,4.64-5.852,5.65,15.755-.4,20.6-1.213,13.33-1.213,14.543-4.042-3.032-15.948-2.829-17.161.589-29.63,2.408-39.928a214.176,214.176,0,0,0,2.425-22.618s45.042,12.521,56.149,12.521S418.867,340.1,422.1,321.5s.606-21.212,4.446-28.681,7.469-16.766,7.908-28.277S430.369,241.12,430.369,241.12Z" transform="translate(-306.337 -187.383)" fill="#fff" stroke="#263238" stroke-linecap="round" stroke-linejoin="round" stroke-width="1"/>
      <path id="Path_5256" data-name="Path 5256" d="M394.9,331.044c-6.959-5.632-9.9-9.288-11.107-11.546-.167.475-.272.738-.272.738s-30.9-6.661-41.2-6.239-17.767-1.011-19.384,9.288,5.272,81.526,5.272,81.526-10.5,9.666-15.149,12.53-8.479,4.64-5.852,5.65,15.755-.4,20.6-1.213,13.33-1.213,14.543-4.042-3.032-15.948-2.829-17.161.589-29.63,2.408-39.928a214.176,214.176,0,0,0,2.425-22.618s45.042,12.521,56.149,12.521c8.137,0,14.217-.879,18.154-8.655C411.539,340.209,402.3,337.037,394.9,331.044Z" transform="translate(-306.337 -196.221)" fill="#263238" stroke="#263238" stroke-linecap="round" stroke-linejoin="round" stroke-width="1"/>
      <path id="Path_5257" data-name="Path 5257" d="M327.5,418.06c-2.416,2.2-10.544,9.49-14.455,11.889-4.64,2.821-8.479,4.64-5.852,5.65s15.755-.4,20.6-1.213,13.33-1.213,14.542-4.042c.721-1.678-.492-7.03-1.547-11.318L330.7,422.313Z" transform="translate(-306.336 -208.846)" fill="#fff" stroke="#263238" stroke-linecap="round" stroke-linejoin="round" stroke-width="1"/>
      <path id="Path_5258" data-name="Path 5258" d="M307.192,437.22c2.636,1.01,15.755-.4,20.6-1.213s13.33-1.213,14.543-4.042a2.1,2.1,0,0,0,.123-.4c-9.921,2.056-27.055,3.515-35.807,4.183C306.138,436.341,306.217,436.869,307.192,437.22Z" transform="translate(-306.336 -210.485)" fill="#263238" stroke="#263238" stroke-linecap="round" stroke-linejoin="round" stroke-width="1"/>
      <path id="Path_5259" data-name="Path 5259" d="M419.382,246.972s-1.819,7.478-7.267,11.52-12.3,7.908-13.936,14.736-1.213,13.33-.808,19.393-4.446,18.778-4.446,18.778-3.726-.8-9.024-1.836c1.248,7.838,6.933,30.236,31.1,31.941,8.251-.782,13.8-4.437,16.5-20,3.234-18.585.606-21.212,4.446-28.681s7.469-16.766,7.908-28.277-4.042-23.426-4.042-23.426Z" transform="translate(-315.745 -187.383)" fill="#fff" stroke="#263238" stroke-linecap="round" stroke-linejoin="round" stroke-width="1"/>
      <line id="Line_13" data-name="Line 13" y1="6.265" x2="23.426" transform="translate(101.818 58.579)" fill="none" stroke="#263238" stroke-linecap="round" stroke-linejoin="round" stroke-width="1"/>
      <path id="Path_5260" data-name="Path 5260" d="M366.223,282.438s-.958-6.089-2.074-5.219.255,6.274.255,6.274a6.9,6.9,0,0,0,1.942.378" transform="translate(-313.296 -191.752)" fill="#b2b2b2" stroke="#263238" stroke-linecap="round" stroke-linejoin="round" stroke-width="1"/>
      <path id="Path_5261" data-name="Path 5261" d="M436.921,258.134s-1.213-5.861-8.682-4.85-10.1,4.648-12.117,14.542-5.053,26.053-5.053,26.053-25.851-16.159-29.682-18.787-8.69-3.023-10.9-1.415-8.286,7.478-8.286,7.478-3.032-6.063-3.436-4.042,1.01,7.276,4.042,8.488,8.471-2.979,9.077-3.181-3.638,4.244-2.223,4.446,2.636-1.617,5.272-3.234a21.589,21.589,0,0,0,4.666-4.095s14.34,13.734,18.778,17.17,16.537,12.548,18.962,12.548,5.65-3.84,7.267-7.276,11.511-25.482,12.926-36.15" transform="translate(-312.687 -188.844)" fill="#b16668" stroke="#263238" stroke-linecap="round" stroke-linejoin="round" stroke-width="1"/>
      <path id="Path_5262" data-name="Path 5262" d="M373.686,285.658l.879-1.634a17.19,17.19,0,0,1-.967-2.285,2.249,2.249,0,0,1,.677-1.889" transform="translate(-314.493 -192.081)" fill="#fff" stroke="#263238" stroke-linecap="round" stroke-linejoin="round" stroke-width="1"/>
      <path id="Path_5263" data-name="Path 5263" d="M363.287,286.184s-6.564-6.291-7.091-4.288,5.9,7.144,5.9,7.144a2.381,2.381,0,0,0,2.636-1.3" transform="translate(-312.38 -192.281)" fill="#b2b2b2" stroke="#263238" stroke-linecap="round" stroke-linejoin="round" stroke-width="1"/>
      <path id="Path_5264" data-name="Path 5264" d="M366.654,286.165s-3.075-8.55-4.437-7.03,2.1,9.015,2.1,9.015.492,1.819,4.13-.668" transform="translate(-313.076 -191.972)" fill="#b2b2b2" stroke="#263238" stroke-linecap="round" stroke-linejoin="round" stroke-width="1"/>
      <path id="Path_5265" data-name="Path 5265" d="M458.334,302.05s-13.479,11.291-29.665,12.416-23.242,4.1-24.27,13.031-2.249,34.164-2.249,34.164l43.6.272,10.114-47.915Z" transform="translate(-317.958 -194.774)" fill="#e0e0e0" stroke="#263238" stroke-linecap="round" stroke-linejoin="round" stroke-width="1"/>
      <path id="Path_5266" data-name="Path 5266" d="M448.866,316.69s-4.042,5.4-14.156,6.292-17.758,2.249-20.21,5.624" transform="translate(-319.456 -196.55)" fill="none" stroke="#263238" stroke-linecap="round" stroke-linejoin="round" stroke-width="1"/>
      <path id="Path_5267" data-name="Path 5267" d="M465.894,222.016c-1.854-.536,1.063-3.981,2.39-7.161s-2.39-5.044-5.272-6.634,0-4.78-.264-9.024-3.515-4.165-5.044-6.625,1.327-10.615-9.015-11.678-14.323.536-18.576,2.636a12.056,12.056,0,0,0-4.85,4.815c-.975.923-1.757,2.083-1.292,3.2,1.01,2.425,2.021,4.042.606,6.669s-.606,5.044.606,6.054,1.213,3.638-.808,5.659-1.415,3.629.4,4.64,3.84,3.638,2.021,6.063-1.213,5.852,2.425,6.661a19.333,19.333,0,0,1,3.409.879l.879,3.875c-.255,1.678-.571,3.207.773,3.515a2.715,2.715,0,0,0,1.652-.308,12.852,12.852,0,0,0,1.889-.536c1.327-.536,1.854,2.636,3.181,5.272s5.272,1.327,7.434-.536a1.951,1.951,0,0,1,1.626-.5,5.035,5.035,0,0,0,2.715,1.037,7.416,7.416,0,0,0,4.147.791c3.981-.527,3.445-2.118,3.981-4.508s2.636-2.39,5.835-5.044S467.748,222.544,465.894,222.016Z" transform="translate(-320.501 -180.037)" fill="#263238"/>
      <g id="Group_2506" data-name="Group 2506" transform="translate(102.612 0.519)" clip-path="url(#clip-path-16)">
        <path id="Path_5268" data-name="Path 5268" d="M430.042,185.18s2.267,1.265,1.265,5.035-2.777,5.545-1.01,6.8,6.292,3.778,5.272,7.03-4.279,6.292-1.511,8.313,8.559,3.269,8.313,7.3-2.021,7.03.246,8.313,5.8-1.01,6.3,1.757-1.01,6.546.756,7.03,4.481-.527,5.272,1.257a6.731,6.731,0,0,1,.5,3.515" transform="translate(-423.894 -181.116)" fill="none" stroke="#666" stroke-linecap="round" stroke-linejoin="round" stroke-width="1"/>
        <path id="Path_5269" data-name="Path 5269" d="M435.56,181.46s5.272,1.511,5.035,5.791-2.267,10.544-.5,11.581,6.546,2.522,6.045,5.8-2.267,6.037-.756,7.3,6.037,3.515,6.037,5.536-2.513,2.021-.756,4.789,7.311,2.513,7.557,6.292-1.257,5.8-.5,6.555,2.768,3.014,3.515,3.269.255,3.778.255,3.778" transform="translate(-424.623 -180.665)" fill="none" stroke="#666" stroke-linecap="round" stroke-linejoin="round" stroke-width="1"/>
        <path id="Path_5270" data-name="Path 5270" d="M444.16,177.44s7.8,4.288,7.3,9.323-1.257,7.557,0,8.787,4.024,3.023,4.024,5.545" transform="translate(-425.666 -180.177)" fill="none" stroke="#666" stroke-linecap="round" stroke-linejoin="round" stroke-width="1"/>
        <path id="Path_5271" data-name="Path 5271" d="M458.192,211.84s-.5,4.534,1.511,5.536,6.8,6.045,6.8,8.787-1.511,5.545.255,7.557a49.681,49.681,0,0,0,5.791,5.044" transform="translate(-427.362 -184.35)" fill="none" stroke="#666" stroke-linecap="round" stroke-linejoin="round" stroke-width="1"/>
      </g>
      <path id="Path_5273" data-name="Path 5273" d="M465.894,222.016c-1.854-.536,1.063-3.981,2.39-7.161s-2.39-5.044-5.272-6.634,0-4.78-.264-9.024-3.515-4.165-5.044-6.625,1.327-10.615-9.015-11.678-14.323.536-18.576,2.636a12.056,12.056,0,0,0-4.85,4.815c-.975.923-1.757,2.083-1.292,3.2,1.01,2.425,2.021,4.042.606,6.669s-.606,5.044.606,6.054,1.213,3.638-.808,5.659-1.415,3.629.4,4.64,3.84,3.638,2.021,6.063-1.213,5.852,2.425,6.661a19.333,19.333,0,0,1,3.409.879l.879,3.875c-.255,1.678-.571,3.207.773,3.515a2.715,2.715,0,0,0,1.652-.308,12.852,12.852,0,0,0,1.889-.536c1.327-.536,1.854,2.636,3.181,5.272s5.272,1.327,7.434-.536a1.951,1.951,0,0,1,1.626-.5,5.035,5.035,0,0,0,2.715,1.037,7.416,7.416,0,0,0,4.147.791c3.981-.527,3.445-2.118,3.981-4.508s2.636-2.39,5.835-5.044S467.748,222.544,465.894,222.016Z" transform="translate(-320.501 -180.037)" fill="none" stroke="#263238" stroke-linecap="round" stroke-linejoin="round" stroke-width="1"/>
    </g>
    <g id="freepik--character-1--inject-2" transform="translate(30.27 168.28)">
      <path id="Path_5274" data-name="Path 5274" d="M53.506,367.81,48.55,428.221h1.731l8.91-59.91Z" transform="translate(-32.52 -201.654)" fill="#fff" stroke="#263238" stroke-linecap="round" stroke-linejoin="round" stroke-width="1"/>
      <path id="Path_5275" data-name="Path 5275" d="M95.756,367.81,90.8,428.221h1.731l8.91-59.91Z" transform="translate(-37.645 -201.654)" fill="#fff" stroke="#263238" stroke-linecap="round" stroke-linejoin="round" stroke-width="1"/>
      <path id="Path_5276" data-name="Path 5276" d="M100.715,367.81l4.956,60.411H103.94l-8.91-59.91Z" transform="translate(-38.158 -201.654)" fill="#fff" stroke="#263238" stroke-linecap="round" stroke-linejoin="round" stroke-width="1"/>
      <path id="Path_5277" data-name="Path 5277" d="M148.6,367.81l4.947,60.411H151.82l-8.91-59.91Z" transform="translate(-43.966 -201.654)" fill="#fff" stroke="#263238" stroke-linecap="round" stroke-linejoin="round" stroke-width="1"/>
      <path id="Path_5278" data-name="Path 5278" d="M89.666,258.046H34.721s-6.59,1.828-3.664,9.525,19.419,89.012,19.419,89.012h87.176l5.5-50.552s1.1-7.328-4.033-8.427-26.01-.369-30.034-2.566S95.94,260.972,95.94,260.972,95.167,257.3,89.666,258.046Z" transform="translate(-30.308 -188.328)" fill="#e0e0e0" stroke="#263238" stroke-linecap="round" stroke-linejoin="round" stroke-width="1"/>
      <line id="Line_14" data-name="Line 14" x2="43.83" transform="translate(63.55 156.745)" fill="none" stroke="#263238" stroke-linecap="round" stroke-linejoin="round" stroke-width="1"/>
      <path id="Path_5279" data-name="Path 5279" d="M66.922,206.59s.8,31.185,1.151,33.988a16.3,16.3,0,0,1-4.455,12.706c-4.288,4.622-21.616,1.151-22.767-3.137s.984-11.423.984-11.423-6.625-1.441-4.78-7.188,11.88-16,16.5-19.463S63.451,205.764,66.922,206.59Z" transform="translate(-31.087 -182.081)" fill="#515b60" stroke="#263238" stroke-linecap="round" stroke-linejoin="round" stroke-width="1"/>
      <path id="Path_5280" data-name="Path 5280" d="M55.692,214.07s-10.3,17.908-11.862,22.609" transform="translate(-31.948 -183.006)" fill="none" stroke="#263238" stroke-linecap="round" stroke-linejoin="round" stroke-width="1"/>
      <path id="Path_5281" data-name="Path 5281" d="M61.335,213.05S49.912,236.555,47.9,246.186" transform="translate(-32.441 -182.882)" fill="none" stroke="#263238" stroke-linecap="round" stroke-linejoin="round" stroke-width="1"/>
      <path id="Path_5282" data-name="Path 5282" d="M62.927,223.24s-4.569,12.97-5.6,17.917" transform="translate(-33.585 -184.118)" fill="none" stroke="#263238" stroke-linecap="round" stroke-linejoin="round" stroke-width="1"/>
      <path id="Path_5283" data-name="Path 5283" d="M88.12,250.712s8.295-.211,11.915-2.126,11.063-.431,13.611,7.232,7.451,21.7,9.367,27.451a39.716,39.716,0,0,0,6.379,11.063l-17.662,6.8L101.52,305.6s-8.084-32.336-10.852-40.64S87.083,251.775,88.12,250.712Z" transform="translate(-37.268 -187.101)" fill="#0b469f" stroke="#263238" stroke-linecap="round" stroke-linejoin="round" stroke-width="1"/>
      <path id="Path_5284" data-name="Path 5284" d="M170.59,375.57l6.81,14.191,1.731-.826-4.56-12.442Z" transform="translate(-47.324 -202.595)" fill="#263238" stroke="#263238" stroke-linecap="round" stroke-linejoin="round" stroke-width="1"/>
      <path id="Path_5285" data-name="Path 5285" d="M171.69,342.9s8.7,20.605,10.544,22.539,11.977,6.766,13.5,6.977,5.035.176,4.736,1.028-15.465,9.077-18.119,7.987-3.409-3.462-6.239-4.938-6.748-3.462-8.5-7.109,1.16-6.924,1.16-6.924l-7.952-14.121Z" transform="translate(-46.139 -198.633)" fill="#ffc3bd" stroke="#263238" stroke-linecap="round" stroke-linejoin="round" stroke-width="1"/>
      <path id="Path_5286" data-name="Path 5286" d="M196.626,375.218a8.7,8.7,0,0,1-1.529-.51c-2.785,2.636-8.638,5.219-15.94.352A42.338,42.338,0,0,1,169.132,366a6.318,6.318,0,0,0-.624,6.151c1.757,3.647,5.668,5.632,8.5,7.109s3.594,3.849,6.239,4.938,17.82-7.135,18.119-7.987S198.137,375.437,196.626,375.218Z" transform="translate(-47.008 -201.435)" fill="#263238" stroke="#263238" stroke-linecap="round" stroke-linejoin="round" stroke-width="1"/>
      <path id="Path_5287" data-name="Path 5287" d="M157.241,298.754s12.732,29.129,15.676,35.069l4.253,8.506L161,350.421S143.34,316.8,143.34,311.908s3.3-9.982,5.422-12.53S157.241,298.754,157.241,298.754Z" transform="translate(-44.018 -193.193)" fill="#263238" stroke="#263238" stroke-linecap="round" stroke-linejoin="round" stroke-width="1"/>
      <path id="Path_5288" data-name="Path 5288" d="M151.915,389.12s-1.063,22.337-.22,24.894,7.908,11.274,9.156,12.126,4.464,2.337,3.822,2.979-17.864,1.494-19.78-.641-1.063-8.084-2.979-10.632-5.105-2.557-5.105-6.6,4.042-5.747,4.042-5.747l-1.063-16.168Z" transform="translate(-43.226 -204.239)" fill="#ffc3bd" stroke="#263238" stroke-linecap="round" stroke-linejoin="round" stroke-width="1"/>
      <path id="Path_5289" data-name="Path 5289" d="M160.891,428.745a11.425,11.425,0,0,1-1.485-1.476c-2.355.879-4.9,1.45-6.819.835-4.675-1.485-8.295-4.464-9.358-10.421a10.563,10.563,0,0,0-5.351-7.082,5.571,5.571,0,0,0-1.028,3.251c0,4.042,3.19,4.042,5.105,6.6s1.063,8.506,2.979,10.632,19.147,1.283,19.78.641S162.165,429.6,160.891,428.745Z" transform="translate(-43.231 -206.845)" fill="#263238" stroke="#263238" stroke-linecap="round" stroke-linejoin="round" stroke-width="1"/>
      <path id="Path_5290" data-name="Path 5290" d="M137.57,417.45V433.2h1.916l1.274-13.189Z" transform="translate(-43.318 -207.675)" fill="#263238" stroke="#263238" stroke-linecap="round" stroke-linejoin="round" stroke-width="1"/>
      <path id="Path_5291" data-name="Path 5291" d="M139.794,313.58s14.463,1.485,14.253,11.274-.879,56.377-.879,56.377l-19.542,2.135s-4.262-24.041-3.2-33.83,2.768-11.7,2.768-11.7H101.5s3.19-7.232,13.4-14.894S139.794,313.58,139.794,313.58Z" transform="translate(-38.943 -195.076)" fill="#263238" stroke="#263238" stroke-linecap="round" stroke-linejoin="round" stroke-width="1"/>
      <path id="Path_5292" data-name="Path 5292" d="M102.4,255.068a59.673,59.673,0,0,0,.879,7.24c.633,3.19,4.042,4.675,5.105,9.358s-.641,6.81-.431,11.7,3.2,11.485,3.62,13.831-2.126,4.253-5.747,6.59-35.1,14.059-39.357,9.358-.641-11.274-1.485-16.59-5.114-26.809-7.03-35.148-2.935-12.416,1.6-14.244c3.19-1.274,14.516,3.225,14.516,3.225s4.051.422,12.768.422" transform="translate(-33.464 -186.993)" fill="#0b469f" stroke="#263238" stroke-linecap="round" stroke-linejoin="round" stroke-width="1"/>
      <path id="Path_5293" data-name="Path 5293" d="M71.26,220.921v23.593s4.455,3.8,10.07,8.251,9.736,5.272,10.544,1.151-2.812-9.077-3.963-10.228-.993-10.887-.993-10.887S74.889,220.1,72.78,218.768,71.26,220.921,71.26,220.921Z" transform="translate(-35.266 -183.539)" fill="#ffc3bd" stroke="#263238" stroke-linecap="round" stroke-linejoin="round" stroke-width="1"/>
      <path id="Path_5294" data-name="Path 5294" d="M99.149,190.2s8.576,2.311,8.787,8.418-9.121,8.418-10.105,6.283-2.311-13.04-2.153-14.525S99.149,190.2,99.149,190.2Z" transform="translate(-38.235 -180.045)" fill="#1e64cc" stroke="#263238" stroke-linecap="round" stroke-linejoin="round" stroke-width="1"/>
      <path id="Path_5295" data-name="Path 5295" d="M97.327,194.82s3.963,9.4,2.232,17.319-5.2,16.827-7.908,19.331-5.94,3.137-11.634-1.485c-4.112-3.339-9.156-9.9-10.4-13.365s-.246-10.4,4.209-17.073S94.612,189.864,97.327,194.82Z" transform="translate(-35.017 -180.372)" fill="#ffc3bd" stroke="#263238" stroke-linecap="round" stroke-linejoin="round" stroke-width="1"/>
      <ellipse id="Ellipse_436" data-name="Ellipse 436" cx="1.019" cy="1.731" rx="1.019" ry="1.731" transform="translate(52.54 28.182)" fill="#263238"/>
      <path id="Path_5296" data-name="Path 5296" d="M101.277,212.7c0,.958-.457,1.757-1.019,1.757s-1.028-.773-1.028-1.757.457-1.757,1.028-1.757S101.277,211.74,101.277,212.7Z" transform="translate(-38.668 -182.626)" fill="#263238"/>
      <path id="Path_5297" data-name="Path 5297" d="M99.337,208.46a5.49,5.49,0,0,0-1.757,4.886c.606,2.838,1.757,4.719,1.257,5.668s-2.636.94-2.636.94" transform="translate(-38.3 -182.325)" fill="none" stroke="#263238" stroke-linecap="round" stroke-linejoin="round" stroke-width="1"/>
      <path id="Path_5298" data-name="Path 5298" d="M86.69,207.2s3.778-2.047,6.3-1.107" transform="translate(-37.147 -182.008)" fill="none" stroke="#263238" stroke-linecap="round" stroke-linejoin="round" stroke-width="1"/>
      <path id="Path_5299" data-name="Path 5299" d="M100.31,206.424s1.573-1.415,3.146.633" transform="translate(-38.799 -182.02)" fill="none" stroke="#263238" stroke-linecap="round" stroke-linejoin="round" stroke-width="1"/>
      <path id="Path_5300" data-name="Path 5300" d="M91.893,225.133A4.271,4.271,0,0,1,88,222.619" transform="translate(-37.306 -184.043)" fill="none" stroke="#263238" stroke-linecap="round" stroke-linejoin="round" stroke-width="1"/>
      <path id="Path_5301" data-name="Path 5301" d="M53.2,209.9s20.149-2.636,29.876-7.715,13.383-8.664,12.592-12.75S85.121,178.57,74.26,178.72A23.365,23.365,0,0,0,53,193.658C50.517,200.766,53.2,209.9,53.2,209.9Z" transform="translate(-32.932 -178.717)" fill="#515b60" stroke="#263238" stroke-linecap="round" stroke-linejoin="round" stroke-width="1"/>
      <path id="Path_5302" data-name="Path 5302" d="M88.3,189.6a57.994,57.994,0,0,1-15.456,11.871,57.748,57.748,0,0,1-18.585,5.6" transform="translate(-33.213 -180.037)" fill="none" stroke="#263238" stroke-linecap="round" stroke-linejoin="round" stroke-width="1"/>
      <path id="Path_5303" data-name="Path 5303" d="M53.51,206.034a84.056,84.056,0,0,0,15.448-6.494" transform="translate(-33.122 -181.243)" fill="none" stroke="#263238" stroke-linecap="round" stroke-linejoin="round" stroke-width="1"/>
      <path id="Path_5304" data-name="Path 5304" d="M74.91,195.764S83.873,189.49,88.345,185" transform="translate(-35.718 -179.479)" fill="none" stroke="#263238" stroke-linecap="round" stroke-linejoin="round" stroke-width="1"/>
      <path id="Path_5305" data-name="Path 5305" d="M74.09,213.89s-3.216-7.179-6.933-4.455-1.23,10.641.993,12.126,5.448-.738,5.448-.738" transform="translate(-34.546 -182.368)" fill="#ffc3bd" stroke="#263238" stroke-linecap="round" stroke-linejoin="round" stroke-width="1"/>
      <path id="Path_5306" data-name="Path 5306" d="M108,290.55s8.726-1.494,11.915-1.916,11.493,2.557,11.063,4.042-9.358,2.557-12.3,3.62-9.578-.431-9.578-.431Z" transform="translate(-39.732 -192.045)" fill="#ffc3bd" stroke="#263238" stroke-linecap="round" stroke-linejoin="round" stroke-width="1"/>
      <path id="Path_5307" data-name="Path 5307" d="M69.384,249.88s-2.979-4.675-10-3.4-9.156,8.506-8.936,15.746,7.908,38.935,10.632,40.851,41.457-9.6,41.457-9.6l-1.494-8.084L72.108,287.12l-3.19-26.15" transform="translate(-32.749 -186.91)" fill="#0b469f" stroke="#263238" stroke-linecap="round" stroke-linejoin="round" stroke-width="1"/>
      <path id="Path_5308" data-name="Path 5308" d="M130.056,290.65,99.17,305.272l8.242,3.5,39.524-13.8Z" transform="translate(-38.661 -192.295)" fill="#fff" stroke="#263238" stroke-linecap="round" stroke-linejoin="round" stroke-width="1"/>
      <path id="Path_5309" data-name="Path 5309" d="M150.617,302.976s-2.056-7.416-7.205-7.416S105.328,306.271,94,310.8,73,318,70.734,321.508s1.854,16.88,9.059,18.936,19.973-.615,25.324-3.515,42-28.821,42-28.821" transform="translate(-35.136 -192.89)" fill="#263238" stroke="#263238" stroke-linecap="round" stroke-linejoin="round" stroke-width="1"/>
      <path id="Path_5310" data-name="Path 5310" d="M39.32,303.14S52.5,313.474,68.651,314.563s23.242,4.1,24.27,13.031,2.249,34.164,2.249,34.164l-43.6.272-8.585-42.5Z" transform="translate(-31.401 -193.81)" fill="#e0e0e0" stroke="#263238" stroke-linecap="round" stroke-linejoin="round" stroke-width="1"/>
      <path id="Path_5311" data-name="Path 5311" d="M50.7,316.69s4.042,5.4,14.165,6.292,17.75,2.249,20.21,5.624" transform="translate(-32.781 -195.453)" fill="none" stroke="#263238" stroke-linecap="round" stroke-linejoin="round" stroke-width="1"/>
    </g>
  </g>
</svg>
