<svg id="google" xmlns="http://www.w3.org/2000/svg" width="17.265" height="17.265" viewBox="0 0 17.265 17.265">
  <path id="Path_773" data-name="Path 773" d="M49.359,300.54a8.536,8.536,0,0,1-12.959-2.2l.56-2.584,2.484-.461a4.584,4.584,0,0,0,4.36,3.227,4.487,4.487,0,0,0,2.671-.87l2.387.364Z" transform="translate(-35.173 -285.342)" fill="#59c36a"/>
  <path id="Path_774" data-name="Path 774" d="M261.554,368.083l-.5-2.519-2.387-.364a4.487,4.487,0,0,1-2.671.87v4.08A8.619,8.619,0,0,0,261.554,368.083Z" transform="translate(-247.368 -352.885)" fill="#00a66c"/>
  <g id="Connected_Home_1_" transform="translate(0 4.262)">
    <g id="Group_515" data-name="Group 515">
      <g id="Group_514" data-name="Group 514">
        <g id="Group_513" data-name="Group 513">
          <path id="Path_775" data-name="Path 775" d="M4.08,130.77a4.714,4.714,0,0,0,.192,1.325L1.227,135.14a8.394,8.394,0,0,1,0-8.74l2.444.421.6,2.624A4.714,4.714,0,0,0,4.08,130.77Z" transform="translate(0 -126.4)" fill="#ffda2d"/>
        </g>
      </g>
    </g>
  </g>
  <path id="Path_776" data-name="Path 776" d="M250.138,198.023a8.619,8.619,0,0,1-3.079,6.565l-2.883-2.883a4.477,4.477,0,0,0,1.406-1.659h-4.077a.5.5,0,0,1-.506-.506v-3.035a.5.5,0,0,1,.506-.506h7.985a.5.5,0,0,1,.5.415A8.58,8.58,0,0,1,250.138,198.023Z" transform="translate(-232.873 -189.391)" fill="#4086f4"/>
  <path id="Path_777" data-name="Path 777" d="M260.077,200.046a4.477,4.477,0,0,1-1.406,1.659l2.883,2.883a8.55,8.55,0,0,0,2.927-8.174.5.5,0,0,0-.5-.415H256v4.046Z" transform="translate(-247.368 -189.391)" fill="#4175df"/>
  <path id="Path_778" data-name="Path 778" d="M49.5,2.411a.51.51,0,0,1-.142.374L47.194,4.94a.5.5,0,0,1-.658.051A4.525,4.525,0,0,0,43.8,4.08a4.584,4.584,0,0,0-4.36,3.227L36.4,4.262A8.531,8.531,0,0,1,49.318,2.037a.532.532,0,0,1,.182.374Z" transform="translate(-35.173 0)" fill="#ff641a"/>
  <path id="Path_779" data-name="Path 779" d="M258.731,4.991a.5.5,0,0,0,.657-.051l2.165-2.155a.51.51,0,0,0,.142-.374.532.532,0,0,0-.182-.374A8.607,8.607,0,0,0,256,0V4.08A4.525,4.525,0,0,1,258.731,4.991Z" transform="translate(-247.368 0)" fill="#f03800"/>
</svg>
