<svg xmlns="http://www.w3.org/2000/svg" width="31" height="31" viewBox="0 0 31 31">
  <g id="Group_1888" data-name="Group 1888" transform="translate(-795 -464)">
    <circle id="Ellipse_330" data-name="Ellipse 330" cx="15.5" cy="15.5" r="15.5" transform="translate(795 464)" fill="#1e64cc"/>
    <g id="video" transform="translate(804.258 475.321)">
      <path id="Path_2163" data-name="Path 2163" d="M26.605,15.191a.729.729,0,0,1-.308-.1l-3.592-2.566a.513.513,0,0,1,0-.821L26.3,9.136a.607.607,0,0,1,.513-.051.493.493,0,0,1,.308.462v5.131a.539.539,0,0,1-.257.462A.463.463,0,0,1,26.605,15.191Zm-2.72-3.079L26.092,13.7V10.522Z" transform="translate(-14.803 -8.008)" fill="#fff"/>
      <path id="Path_2164" data-name="Path 2164" d="M7.184,14.21H1.539A1.512,1.512,0,0,1,0,12.671V7.539A1.512,1.512,0,0,1,1.539,6H7.184A1.512,1.512,0,0,1,8.723,7.539v5.131A1.512,1.512,0,0,1,7.184,14.21ZM1.539,7.026a.485.485,0,0,0-.513.513v5.131a.485.485,0,0,0,.513.513H7.184a.485.485,0,0,0,.513-.513V7.539a.485.485,0,0,0-.513-.513Z" transform="translate(0 -6)" fill="#fff"/>
    </g>
  </g>
</svg>
