<svg xmlns="http://www.w3.org/2000/svg" width="19" height="16.778" viewBox="0 0 19 16.778"><path d="M10.369,19.778a.754.754,0,0,1-.581-.249L2.478,12.22a5.414,5.414,0,0,1,0-7.641A5.284,5.284,0,0,1,6.216,3a5.478,5.478,0,0,1,3.821,1.578l.332.332.332-.332h0A5.332,5.332,0,0,1,14.522,3h0a5.478,5.478,0,0,1,3.821,1.578h0a5.465,5.465,0,0,1,0,7.641l-7.309,7.309A1.1,1.1,0,0,1,10.369,19.778ZM6.216,4.661a3.454,3.454,0,0,0-2.575,1.08,3.711,3.711,0,0,0,0,5.316l6.728,6.728L17.1,11.057A3.636,3.636,0,0,0,18.176,8.4,4,4,0,0,0,17.1,5.741h0a3.644,3.644,0,0,0-2.575-1.08h0a4,4,0,0,0-2.658,1.08h0l-.831.914a.8.8,0,0,1-1.163,0l-.914-.914A3.824,3.824,0,0,0,6.216,4.661Z" transform="translate(-0.9 -3)" fill="#fff"/></svg>