<svg xmlns="http://www.w3.org/2000/svg" width="22.107" height="22.107" viewBox="0 0 22.107 22.107"><path d="M12.554,23.607A11.054,11.054,0,1,1,23.607,12.554,11.022,11.022,0,0,1,12.554,23.607Zm0-20.1A9.044,9.044,0,1,0,21.6,12.554,9.006,9.006,0,0,0,12.554,3.51Z" transform="translate(-1.5 -1.5)" fill="#fff"/><path d="M15.956,17.058a.965.965,0,0,1-.9-.7,1.045,1.045,0,0,1,.6-1.306c.6-.2,2.311-1,2.311-2.11a1.965,1.965,0,0,0-1.306-1.909,2.091,2.091,0,0,0-2.613,1.206,1.045,1.045,0,0,1-1.306.6c-.5,0-.7-.6-.6-1.105A3.911,3.911,0,0,1,17.263,9.32a4.115,4.115,0,0,1,2.713,3.819c0,2.613-3.316,3.819-3.718,3.919Zm.1,4.02a1,1,0,0,1,0-2.01h0a1,1,0,0,1,0,2.01Z" transform="translate(-5.003 -3.995)" fill="#fff"/></svg>