<svg xmlns="http://www.w3.org/2000/svg" width="13.826" height="15.226" viewBox="0 0 13.826 15.226"><path d="M14.752,16.689H5.074A2.037,2.037,0,0,1,3,14.615V7.01a.629.629,0,0,1,.277-.553L9.5,1.618a.629.629,0,0,1,.83,0L16.55,6.457a.629.629,0,0,1,.277.553v7.6A2.037,2.037,0,0,1,14.752,16.689ZM4.383,7.356v7.259a.653.653,0,0,0,.691.691h9.679a.653.653,0,0,0,.691-.691V7.356L9.913,3.07Z" transform="translate(-3 -1.463)" fill="#fff"/><path d="M16.839,24.8a.653.653,0,0,1-.691-.691V17.883H13.383V24.1A.691.691,0,0,1,12,24.1V17.191a.653.653,0,0,1,.691-.691h4.148a.653.653,0,0,1,.691.691V24.1A.653.653,0,0,1,16.839,24.8Z" transform="translate(-7.852 -9.569)" fill="#fff"/></svg>