<svg xmlns="http://www.w3.org/2000/svg" width="457.041" height="299.806" viewBox="0 0 457.041 299.806"><g transform="translate(-266 0)" opacity="0.2"><rect width="129.146" height="244.353" transform="translate(593.895 30.865)" fill="#ebebeb"/><rect width="107.029" height="155.142" transform="translate(604.953 43.022)" fill="#fff"/><path d="M338.372,380.318H329.84V355.73h15.183Z" transform="translate(273.414 -80.512)" fill="#ebebeb"/><path d="M345.023,355.73l-2.453,9.059H329.83V355.73Z" transform="translate(273.415 -80.512)" fill="#c7c7c7"/><path d="M441.3,380.318h8.532V355.73H434.65Z" transform="translate(263.839 -80.512)" fill="#ebebeb"/><path d="M434.65,355.73l2.453,9.059h12.739V355.73Z" transform="translate(263.839 -80.512)" fill="#c7c7c7"/><path d="M444.627,283.075c-8.023.164-16.038.254-24.052.318s-16.038.073-24.052.118l.436-.436v24.188c-.091,8.069-.173,16.129-.373,24.2-.209-8.069-.291-16.128-.382-24.2l-.045-12.094V282.63h.436c8.014.045,16.029,0,24.052.118S436.6,282.9,444.627,283.075Z" transform="translate(267.355 -73.834)" fill="#c7c7c7"/><path d="M396.56,339.228c8.014-.173,16.029-.264,24.052-.327s16.029-.073,24.052-.118l-.454.445V327.361l.055-11.867c.082-7.914.164-15.82.373-23.734.2,7.914.282,15.82.363,23.734l.055,11.867c0,3.953.045,7.905,0,11.867v.436h-.436c-8.023-.045-16.038,0-24.052-.109S404.574,339.364,396.56,339.228Z" transform="translate(267.319 -74.668)" fill="#c7c7c7"/><rect width="3.644" height="13.957" transform="translate(672.902 243.015) rotate(180)" fill="#c7c7c7"/><path d="M331.71,283.075c8.014-.173,16.029-.263,24.052-.327s16.029-.073,24.052-.118h.427v12.539l-.055,12.094c-.082,8.069-.164,16.129-.373,24.2-.209-8.069-.291-16.128-.382-24.2l-.045-12.094V283.075l.436.436c-8.023-.045-16.038,0-24.052-.118S339.724,283.239,331.71,283.075Z" transform="translate(273.243 -73.834)" fill="#c7c7c7"/><path d="M379.77,339.228c-8.023.164-16.038.254-24.052.327s-16.038.064-24.052.109h-.436v-12.3l.055-11.867c.082-7.914.164-15.82.373-23.734.2,7.914.282,15.82.363,23.734l.054,11.867c0,3.953.045,7.905,0,11.867l-.436-.445c8.014,0,16.028,0,24.052.118S371.747,339.028,379.77,339.228Z" transform="translate(273.287 -74.668)" fill="#c7c7c7"/><rect width="3.644" height="13.957" transform="translate(644.025 229.049)" fill="#c7c7c7"/><rect width="107.029" height="1.663" transform="translate(604.953 92.571)" fill="#c7c7c7"/><rect width="107.029" height="1.663" transform="translate(604.953 126.245)" fill="#c7c7c7"/><rect width="107.029" height="1.663" transform="translate(604.953 159.92)" fill="#c7c7c7"/><rect width="2.462" height="155.142" transform="translate(657.237 43.022)" fill="#ebebeb"/><g transform="translate(266)"><circle cx="29.804" cy="29.804" r="29.804" transform="translate(9.057 9.757)" fill="#ebebeb"/><circle cx="28.441" cy="28.441" r="28.441" transform="translate(0 40.221) rotate(-45)" fill="#dbdbdb"/><circle cx="26.642" cy="26.642" r="26.642" transform="translate(5.52 25.552) rotate(-22.08)" fill="#fff"/><rect width="0.681" height="4.034" transform="translate(39.888 15.518)" fill="#ebebeb"/><rect width="0.681" height="4.034" transform="matrix(0.866, -0.5, 0.5, 0.866, 27.569, 19.003)" fill="#ebebeb"/><rect width="0.681" height="4.034" transform="matrix(0.5, -0.866, 0.866, 0.5, 18.647, 28.157)" fill="#ebebeb"/><rect width="4.034" height="0.681" transform="translate(15.518 39.887)" fill="#ebebeb"/><rect width="4.048" height="0.684" transform="translate(18.961 52.687) rotate(-29.887)" fill="#ebebeb"/><rect width="4.034" height="0.681" transform="translate(27.576 61.458) rotate(-60.03)" fill="#ebebeb"/><rect width="0.681" height="4.034" transform="translate(39.888 60.896)" fill="#ebebeb"/><rect width="0.681" height="4.034" transform="translate(50.266 58.319) rotate(-30)" fill="#ebebeb"/><rect width="0.681" height="4.034" transform="translate(57.96 50.858) rotate(-60)" fill="#ebebeb"/><rect width="4.043" height="0.681" transform="translate(60.896 39.887)" fill="#ebebeb"/><rect width="4.048" height="0.684" transform="translate(58.425 29.904) rotate(-29.887)" fill="#ebebeb"/><rect width="4.034" height="0.681" transform="translate(50.271 22.162) rotate(-60.03)" fill="#ebebeb"/><rect width="25.778" height="0.681" transform="translate(32.489 54.658) rotate(-63.04)" fill="#ebebeb"/><rect width="0.909" height="25.388" transform="translate(37.973 31.245) rotate(-11.32)" fill="#dbdbdb"/><path d="M174.93,280.1l2.172,13.039,14.729,79.543H194.2l-10.7-79.543-1.59-13.039Z" transform="translate(-75.436 -73.603)" fill="#ebebeb"/><path d="M181.908,280.1H174.93l2.172,13.039h6.4Z" transform="translate(-75.436 -73.603)" fill="#c7c7c7"/><path d="M124.03,372.682H126.4l14.729-79.543L143.3,280.1h-6.978l-1.59,13.039Z" transform="translate(-70.785 -73.603)" fill="#ebebeb"/><path d="M137.4,280.1l-1.59,13.039h6.4l2.172-13.039Z" transform="translate(-71.861 -73.603)" fill="#c7c7c7"/><path d="M75.41,372.682h2.372l14.729-79.543L94.682,280.1H87.7l-1.59,13.039Z" transform="translate(-66.344 -73.603)" fill="#ebebeb"/><path d="M87.19,293.139h6.4L95.759,280.1H88.78Z" transform="translate(-67.42 -73.603)" fill="#c7c7c7"/><path d="M79.55,277.832H187.479v-8.759l-40.407-2.617L133.5,188.14H83.666Z" transform="translate(-66.722 -65.202)" fill="#ebebeb"/><path d="M79.55,277.832h5.888l3.834-89.692H83.666Z" transform="translate(-66.722 -65.202)" fill="#c7c7c7"/></g></g></svg>