<svg xmlns="http://www.w3.org/2000/svg" width="29.958" height="24.341" viewBox="0 0 29.958 24.341">
  <path id="Icon_awesome-list" data-name="Icon awesome-list" d="M4.681,22.1H.936A.936.936,0,0,0,0,23.035V26.78a.936.936,0,0,0,.936.936H4.681a.936.936,0,0,0,.936-.936V23.035A.936.936,0,0,0,4.681,22.1Zm0-18.724H.936A.936.936,0,0,0,0,4.311V8.056a.936.936,0,0,0,.936.936H4.681a.936.936,0,0,0,.936-.936V4.311A.936.936,0,0,0,4.681,3.375Zm0,9.362H.936A.936.936,0,0,0,0,13.673v3.745a.936.936,0,0,0,.936.936H4.681a.936.936,0,0,0,.936-.936V13.673A.936.936,0,0,0,4.681,12.737Zm24.341,10.3H10.3a.936.936,0,0,0-.936.936v1.872a.936.936,0,0,0,.936.936H29.022a.936.936,0,0,0,.936-.936V23.971A.936.936,0,0,0,29.022,23.035Zm0-18.724H10.3a.936.936,0,0,0-.936.936V7.12a.936.936,0,0,0,.936.936H29.022a.936.936,0,0,0,.936-.936V5.247A.936.936,0,0,0,29.022,4.311Zm0,9.362H10.3a.936.936,0,0,0-.936.936v1.872a.936.936,0,0,0,.936.936H29.022a.936.936,0,0,0,.936-.936V14.609A.936.936,0,0,0,29.022,13.673Z" transform="translate(0 -3.375)" fill="#808495"/>
</svg>
