<svg xmlns="http://www.w3.org/2000/svg" width="15.022" height="15.022" viewBox="0 0 15.022 15.022">
  <path id="Icon_awesome-linkedin" data-name="Icon awesome-linkedin" d="M13.949,2.25H1.07A1.078,1.078,0,0,0,0,3.333V16.189a1.078,1.078,0,0,0,1.07,1.083h12.88a1.081,1.081,0,0,0,1.073-1.083V3.333A1.081,1.081,0,0,0,13.949,2.25ZM4.54,15.126H2.314V7.957h2.23v7.169ZM3.427,6.978A1.291,1.291,0,1,1,4.718,5.687,1.292,1.292,0,0,1,3.427,6.978Zm9.459,8.148H10.66V11.639c0-.832-.017-1.9-1.157-1.9-1.16,0-1.338.905-1.338,1.841v3.548H5.939V7.957H8.075v.979H8.1a2.345,2.345,0,0,1,2.109-1.157c2.253,0,2.673,1.485,2.673,3.417Z" transform="translate(0 -2.25)" fill="#1e64cc"/>
</svg>
