<svg xmlns="http://www.w3.org/2000/svg" width="15.161" height="12.404" viewBox="0 0 15.161 12.404">
  <g id="mail" transform="translate(-1.5 -4.5)">
    <path id="Path_1029" data-name="Path 1029" d="M14.593,16.9H3.567A2.03,2.03,0,0,1,1.5,14.837V6.567A2.03,2.03,0,0,1,3.567,4.5H14.593a2.03,2.03,0,0,1,2.067,2.067v8.269A2.03,2.03,0,0,1,14.593,16.9ZM3.567,5.878a.651.651,0,0,0-.689.689v8.269a.651.651,0,0,0,.689.689H14.593a.651.651,0,0,0,.689-.689V6.567a.651.651,0,0,0-.689-.689Z" fill="#ff9241"/>
    <path id="Path_1030" data-name="Path 1030" d="M9.1,13.723a.979.979,0,0,1-.413-.138L1.8,8.761A.729.729,0,0,1,1.659,7.8a.729.729,0,0,1,.965-.138L9.1,12.207l6.478-4.548a.689.689,0,0,1,.827,1.1L9.515,13.585A.979.979,0,0,1,9.1,13.723Z" transform="translate(-0.021 -1.642)" fill="#ff9241"/>
  </g>
</svg>
