<svg xmlns="http://www.w3.org/2000/svg" width="19.512" height="19.512" viewBox="0 0 19.512 19.512"><g transform="translate(0.1 0.25)"><g transform="translate(0.15)"><path d="M18.911,2.7a4.061,4.061,0,0,0-7.66.013H3.545A3.4,3.4,0,0,0,.15,6.111v9.506a3.4,3.4,0,0,0,3.395,3.395h9.506a3.4,3.4,0,0,0,3.395-3.395V7.91A4.074,4.074,0,0,0,18.911,2.7ZM15.088,15.617a2.037,2.037,0,0,1-2.037,2.037H3.545a2.037,2.037,0,0,1-2.037-2.037V6.111A2.037,2.037,0,0,1,3.545,4.074h7.469a4.078,4.078,0,0,0,4.074,4.074v7.469Zm0-8.827A2.716,2.716,0,1,1,17.8,4.074,2.716,2.716,0,0,1,15.088,6.79Z" transform="translate(-0.15)" fill="#fff" stroke="#fff" stroke-width="0.5"/></g></g></svg>