<svg xmlns="http://www.w3.org/2000/svg" width="71" height="71" viewBox="0 0 71 71"><g transform="translate(-953 -212)"><rect width="71" height="71" rx="5" transform="translate(953 212)" fill="#fd8919" opacity="0.1"/><path d="M20.222,38.415a3.566,3.566,0,0,0,3.555-3.555H16.666A3.566,3.566,0,0,0,20.222,38.415ZM30.888,27.749V18.861c0-5.458-2.9-10.026-8-11.235V6.417a2.667,2.667,0,0,0-5.333,0V7.625c-5.084,1.209-8,5.76-8,11.235v8.889L6,31.3v1.778H34.443V31.3Zm-3.555,1.778H13.111V18.861c0-4.409,2.684-8,7.111-8s7.111,3.591,7.111,8Z" transform="translate(967.978 226.917)" fill="#fd8919"/></g></svg>