<svg xmlns="http://www.w3.org/2000/svg" width="18.661" height="15.487" viewBox="0 0 18.661 15.487"><path d="M13.164,18.487a.732.732,0,0,1-.774-.774V16.164a2.282,2.282,0,0,0-2.323-2.323H3.872a2.282,2.282,0,0,0-2.323,2.323v1.549a.732.732,0,0,1-.774.774A.732.732,0,0,1,0,17.712V16.164a3.834,3.834,0,0,1,3.872-3.872h6.195a3.834,3.834,0,0,1,3.872,3.872v1.549A.732.732,0,0,1,13.164,18.487ZM6.969,10.743A3.834,3.834,0,0,1,3.1,6.872,3.834,3.834,0,0,1,6.969,3a3.834,3.834,0,0,1,3.872,3.872A3.834,3.834,0,0,1,6.969,10.743Zm0-6.195A2.282,2.282,0,0,0,4.646,6.872,2.282,2.282,0,0,0,6.969,9.195,2.282,2.282,0,0,0,9.292,6.872,2.282,2.282,0,0,0,6.969,4.549ZM17.81,18.487a.732.732,0,0,1-.774-.774V16.164a2.257,2.257,0,0,0-1.7-2.246.761.761,0,0,1,.387-1.471,4.048,4.048,0,0,1,2.942,3.717v1.549A.844.844,0,0,1,17.81,18.487Zm-5.42-7.821a.815.815,0,0,1-.774-.619.8.8,0,0,1,.542-.929,2.373,2.373,0,0,0,1.7-1.7,2.427,2.427,0,0,0-1.7-2.865c-.387,0-.619-.465-.542-.852a.735.735,0,0,1,.929-.542,3.856,3.856,0,0,1,2.788,4.723,3.781,3.781,0,0,1-2.788,2.788Z" transform="translate(0 -3)" fill="#fff"/></svg>