<svg xmlns="http://www.w3.org/2000/svg" width="14.384" height="14.5" viewBox="0 0 14.384 14.5">
  <path id="phone-call" d="M13.565,14.35h-.189a14.209,14.209,0,0,1-5.737-2.017A13.257,13.257,0,0,1,3.667,8.361,12.556,12.556,0,0,1,1.65,2.624a2.149,2.149,0,0,1,.441-1.387A1.948,1.948,0,0,1,3.352.543h2.08A1.9,1.9,0,0,1,7.324,2.183,6.908,6.908,0,0,0,7.7,3.822a2,2,0,0,1-.441,2.017L6.82,6.28a9.783,9.783,0,0,0,2.9,2.9l.441-.441A1.97,1.97,0,0,1,12.178,8.3a6.908,6.908,0,0,0,1.639.378,1.9,1.9,0,0,1,1.639,1.891v1.891a1.717,1.717,0,0,1-.567,1.324,2.1,2.1,0,0,1-1.324.567ZM5.433,1.8H3.541a.778.778,0,0,0-.5.252.911.911,0,0,0-.126.441,11.858,11.858,0,0,0,1.828,5.17,11.5,11.5,0,0,0,3.593,3.593,11.858,11.858,0,0,0,5.17,1.828.621.621,0,0,0,.5-.189.572.572,0,0,0,.189-.441V10.567h0a.67.67,0,0,0-.567-.63,7.021,7.021,0,0,1-1.891-.5.687.687,0,0,0-.693.126l-.82.82a.67.67,0,0,1-.757.126A10.345,10.345,0,0,1,5.433,6.47a.829.829,0,0,1,.189-.757l.82-.82a.733.733,0,0,0,.126-.63,10.5,10.5,0,0,1-.5-1.891A.622.622,0,0,0,5.433,1.8Zm7.5,4.413a.614.614,0,0,1-.63-.5A2.643,2.643,0,0,0,10.287,3.7a.643.643,0,0,1,.252-1.261A3.692,3.692,0,0,1,13.5,5.4a.638.638,0,0,1-.5.757A.062.062,0,0,1,12.935,6.217Zm2.522-.063a.67.67,0,0,1-.63-.567A5.091,5.091,0,0,0,10.35,1.111.739.739,0,0,1,9.783.417a.739.739,0,0,1,.693-.567A6.182,6.182,0,0,1,16.024,5.4a.626.626,0,0,1-.567.693C15.52,6.154,15.457,6.154,15.457,6.154Z" transform="translate(-1.65 0.15)" fill="#ff9241"/>
</svg>
