<svg xmlns="http://www.w3.org/2000/svg" width="14.814" height="16.635" viewBox="0 0 14.814 16.635">
  <g id="delete" transform="translate(-22.743 0.25)">
    <g id="Group_1164" data-name="Group 1164" transform="translate(22.993 0)">
      <g id="Group_1163" data-name="Group 1163">
        <path id="Path_1998" data-name="Path 1998" d="M71.9,114.908H61.434a.414.414,0,0,0-.31.1.352.352,0,0,0-.1.31l1.076,9.37a2.048,2.048,0,0,0,2.048,1.8h5.212a2.048,2.048,0,0,0,2.068-1.862l.889-9.349a.352.352,0,0,0-.1-.269A.414.414,0,0,0,71.9,114.908Zm-1.3,9.68a1.2,1.2,0,0,1-1.241,1.076H64.144a1.179,1.179,0,0,1-1.22-1.055l-1.034-8.874h9.556Z" transform="translate(-59.51 -110.357)" fill="#1e64cc" stroke="#1e64cc" stroke-width="0.5"/>
        <path id="Path_1999" data-name="Path 1999" d="M36.893,1.862H32.632V1.2A1.158,1.158,0,0,0,31.516,0H28.847a1.158,1.158,0,0,0-1.18,1.137q0,.031,0,.063v.662H23.407a.414.414,0,1,0,0,.827H36.893a.414.414,0,1,0,0-.827ZM31.8,1.2v.662H28.5V1.2a.331.331,0,0,1,.352-.372h2.606a.331.331,0,0,1,.354.307A.327.327,0,0,1,31.8,1.2Z" transform="translate(-22.993 0)" fill="#1e64cc" stroke="#1e64cc" stroke-width="0.5"/>
      </g>
    </g>
  </g>
</svg>
