<svg xmlns="http://www.w3.org/2000/svg" width="12.47" height="12.493" viewBox="0 0 12.47 12.493">
  <path id="Icon_feather-phone" data-name="Icon feather-phone" d="M14.637,11.6v1.73a1.153,1.153,0,0,1-1.257,1.153A11.412,11.412,0,0,1,8.4,12.717a11.245,11.245,0,0,1-3.46-3.46,11.412,11.412,0,0,1-1.77-5A1.153,1.153,0,0,1,4.32,3H6.05A1.153,1.153,0,0,1,7.2,3.992a7.4,7.4,0,0,0,.4,1.62,1.153,1.153,0,0,1-.26,1.217l-.732.732a9.227,9.227,0,0,0,3.46,3.46l.732-.732a1.153,1.153,0,0,1,1.217-.259,7.4,7.4,0,0,0,1.62.4A1.153,1.153,0,0,1,14.637,11.6Z" transform="translate(-2.667 -2.5)" fill="none" stroke="#254069" stroke-linecap="round" stroke-linejoin="round" stroke-width="1"/>
</svg>
