<svg id="Group_1897" data-name="Group 1897" xmlns="http://www.w3.org/2000/svg" width="13.231" height="8.821" viewBox="0 0 13.231 8.821">
  <g id="Group_1891" data-name="Group 1891">
    <g id="video">
      <path id="Path_2163" data-name="Path 2163" d="M26.911,15.648a.784.784,0,0,1-.331-.11l-3.859-2.757a.681.681,0,0,1-.221-.441.681.681,0,0,1,.221-.441L26.58,9.143a.652.652,0,0,1,.551-.055.53.53,0,0,1,.331.5V15.1a.579.579,0,0,1-.276.5A.5.5,0,0,1,26.911,15.648ZM23.989,12.34l2.371,1.709V10.631Z" transform="translate(-14.23 -7.93)" fill="#257d79"/>
      <path id="Path_2164" data-name="Path 2164" d="M7.718,14.821H1.654A1.624,1.624,0,0,1,0,13.167V7.654A1.624,1.624,0,0,1,1.654,6H7.718A1.624,1.624,0,0,1,9.372,7.654v5.513A1.624,1.624,0,0,1,7.718,14.821ZM1.654,7.1a.521.521,0,0,0-.551.551v5.513a.521.521,0,0,0,.551.551H7.718a.521.521,0,0,0,.551-.551V7.654A.521.521,0,0,0,7.718,7.1Z" transform="translate(0 -6)" fill="#257d79"/>
    </g>
  </g>
</svg>
