<svg xmlns="http://www.w3.org/2000/svg" width="247.483" height="184.405" viewBox="0 0 247.483 184.405"><g transform="translate(0 -55)"><g transform="translate(0 55)"><rect width="247.483" height="0.124" transform="translate(0 162.052)" fill="#ebebeb"/><rect width="16.393" height="0.124" transform="translate(206.292 170.016)" fill="#ebebeb"/><rect width="35.049" height="0.124" transform="translate(165.012 170.016)" fill="#ebebeb"/><rect width="9.498" height="0.124" transform="translate(136.185 165.423)" fill="#ebebeb"/><rect width="16.972" height="0.124" transform="translate(25.966 166.254)" fill="#ebebeb"/><rect width="30.861" height="0.124" transform="translate(47.344 166.254)" fill="#ebebeb"/><rect width="18.22" height="0.124" transform="translate(93.217 168.343)" fill="#ebebeb"/><path d="M136.6,194.977H41.031a2.826,2.826,0,0,1-2.821-2.826V57.8A2.826,2.826,0,0,1,41.031,55H136.6a2.826,2.826,0,0,1,2.826,2.826V192.15A2.826,2.826,0,0,1,136.6,194.977ZM41.031,55.1a2.7,2.7,0,0,0-2.7,2.7V192.15a2.7,2.7,0,0,0,2.7,2.7H136.6a2.708,2.708,0,0,0,2.7-2.7V57.8a2.707,2.707,0,0,0-2.7-2.7Z" transform="translate(-19.297 -55)" fill="#ebebeb"/><path d="M352.9,194.977H257.326a2.831,2.831,0,0,1-2.826-2.826V57.8a2.831,2.831,0,0,1,2.826-2.8H352.9a2.826,2.826,0,0,1,2.816,2.8V192.15A2.826,2.826,0,0,1,352.9,194.977ZM257.326,55.1a2.707,2.707,0,0,0-2.7,2.7V192.15a2.707,2.707,0,0,0,2.7,2.7H352.9a2.707,2.707,0,0,0,2.7-2.7V57.8a2.707,2.707,0,0,0-2.7-2.7Z" transform="translate(-128.531 -55)" fill="#ebebeb"/><rect width="67.167" height="58.193" transform="translate(104.705 68.414) rotate(180)" fill="#e6e6e6"/><rect width="67.167" height="58.193" transform="translate(103.205 68.414) rotate(180)" fill="#f5f5f5"/><rect width="54.035" height="61.806" transform="translate(100.528 12.3) rotate(90)" fill="#fafafa"/><path d="M129.117,133.885l11.2-54.035H116.886l-11.2,54.035Z" transform="translate(-53.377 -67.55)" fill="#fff"/><rect width="54.035" height="1.129" transform="translate(39.85 12.305) rotate(90)" fill="#e6e6e6"/><rect width="64.95" height="2.792" transform="translate(102.097 56.649) rotate(180)" fill="#f5f5f5"/><rect width="10.726" height="46.512" transform="translate(112.313 159.107) rotate(180)" fill="#f0f0f0"/><rect width="78.715" height="2.945" transform="translate(110.259 162.052) rotate(180)" fill="#f0f0f0"/><rect width="72.107" height="46.512" transform="translate(29.48 112.59)" fill="#f5f5f5"/><rect width="63.677" height="15.255" transform="translate(33.697 118.317)" fill="#f0f0f0"/><rect width="63.677" height="15.255" transform="translate(33.697 138.125)" fill="#f0f0f0"/><path d="M96.664,309.424H130.99a1.049,1.049,0,0,0,1.044-1.044h0a1.054,1.054,0,0,0-1.044-1.049H96.664a1.054,1.054,0,0,0-1.044,1.049h0A1.049,1.049,0,0,0,96.664,309.424Z" transform="translate(-48.291 -182.435)" fill="#f5f5f5"/><path d="M96.664,349.444H130.99a1.049,1.049,0,0,0,1.044-1.044h0a1.049,1.049,0,0,0-1.044-1.049H96.664A1.049,1.049,0,0,0,95.62,348.4h0a1.049,1.049,0,0,0,1.044,1.044Z" transform="translate(-48.291 -202.647)" fill="#f5f5f5"/><path d="M424.236,119.459c6.108-1.683,8.2-12.765-7.236-17.289C420.405,113.317,413.59,122.379,424.236,119.459Z" transform="translate(-210.599 -78.822)" fill="#ebebeb"/><path d="M416.921,133.257c4.816-5.2.262-16.972-17.081-12.161C409.65,129.678,408.532,142.33,416.921,133.257Z" transform="translate(-201.933 -87.809)" fill="#e0e0e0"/><path d="M423.462,136.138c-4.029-3.989,1.742-17.873,15.047-11.439C430.97,131.921,430.515,143.092,423.462,136.138Z" transform="translate(-213.225 -89.354)" fill="#fafafa"/><path d="M415.731,157.124h11.726l.886-7.934H414.85Z" transform="translate(-209.513 -102.569)" fill="#e6e6e6"/><path d="M413.686,150.272h13.76a.876.876,0,0,0,.876-.876h0a.876.876,0,0,0-.876-.876h-13.76a.876.876,0,0,0-.876.876h0A.876.876,0,0,0,413.686,150.272Z" transform="translate(-208.483 -102.231)" fill="#e6e6e6"/><path d="M205.886,259.279h0V245.84h11.191V232.407h11.2V218.968h11.191V205.53h11.2V192.1h11.191V178.658h11.2V165.22h72.76v107.5H194.69V259.279Z" transform="translate(-98.325 -110.665)" fill="#fafafa"/><path d="M330.271,259.279h0V245.84h11.2V232.407h11.191V218.968h11.2V205.53h11.191V192.1h11.2V178.658h11.191V165.22h11.2v107.5H319.08V259.279Z" transform="translate(-161.146 -110.665)" fill="#e0e0e0"/><rect width="62.227" height="4.029" transform="translate(95.707 148.614)" fill="#ebebeb"/><rect width="62.227" height="4.029" transform="translate(106.903 135.175)" fill="#ebebeb"/><rect width="62.227" height="4.029" transform="translate(118.094 121.742)" fill="#ebebeb"/><rect width="62.227" height="4.029" transform="translate(129.29 108.304)" fill="#ebebeb"/><rect width="62.227" height="4.029" transform="translate(140.481 94.865)" fill="#ebebeb"/><rect width="62.227" height="4.029" transform="translate(151.678 81.432)" fill="#ebebeb"/><rect width="62.227" height="4.029" transform="translate(162.869 67.994)" fill="#ebebeb"/><rect width="62.227" height="4.029" transform="translate(174.065 54.555)" fill="#ebebeb"/></g><g transform="translate(27.773 228.199)"><ellipse cx="95.969" cy="5.603" rx="95.969" ry="5.603" fill="#f5f5f5"/></g><g transform="translate(89.973 57.709)"><path d="M315.847,158.337c-.089,1.485-.262,2.846-.455,4.257s-.455,2.792-.752,4.178a46.524,46.524,0,0,1-2.5,8.2l-.45.99-.109.247-.04.129-.079.158a3.96,3.96,0,0,1-.569.861,3.42,3.42,0,0,1-.95.747,3.356,3.356,0,0,1-1.129.356,4.316,4.316,0,0,1-1.8-.188,8.746,8.746,0,0,1-2.3-1.188,18.1,18.1,0,0,1-1.757-1.411,40.59,40.59,0,0,1-5.593-6.4l1.638-1.391c.99.916,1.98,1.841,2.97,2.717a39.417,39.417,0,0,0,3.079,2.475,16.344,16.344,0,0,0,1.564.99,5.446,5.446,0,0,0,1.4.6c.168.035.287,0,.233,0a.544.544,0,0,0-.312.144h0l.158-.411.346-.9a52.138,52.138,0,0,0,2-7.6c.262-1.3.445-2.618.643-3.93s.337-2.663.45-3.915Z" transform="translate(-240.154 -109.752)" fill="#ffc3bd"/><path d="M325.438,147.309c-1.846.47-3.138,8.063-3.138,8.063l5.083,3.465s4.875-7.657,3.465-9.687C329.363,147.026,328.131,146.626,325.438,147.309Z" transform="translate(-252.745 -104.173)" fill="#407bff"/><path d="M325.438,147.309c-1.846.47-3.138,8.063-3.138,8.063l5.083,3.465s4.875-7.657,3.465-9.687C329.363,147.026,328.131,146.626,325.438,147.309Z" transform="translate(-252.745 -104.173)" fill="#407bff"/><path d="M325.438,147.309c-1.846.47-3.138,8.063-3.138,8.063l5.083,3.465s4.875-7.657,3.465-9.687C329.363,147.026,328.131,146.626,325.438,147.309Z" transform="translate(-252.745 -104.173)" opacity="0.4"/><path d="M327.526,151.05,326.11,158.7l2.856,1.94Z" transform="translate(-254.669 -106.217)" opacity="0.3"/><path d="M297,173.391l-2.4-3.821-1.371,4.341s1.98,2.079,3.777,1.584Z" transform="translate(-238.064 -115.57)" fill="#ffc3bd"/><path d="M287.83,167.02l-.95,3.692L290,172.623l1.371-4.341Z" transform="translate(-234.857 -114.282)" fill="#ffc3bd"/><path d="M343.926,395.175h-4.475l-.3-10.365h4.479Z" transform="translate(-261.255 -224.274)" fill="#ffc3bd"/><path d="M417.146,356.644l-3.41,2.9-7.806-6.969,3.41-2.9Z" transform="translate(-294.981 -206.532)" fill="#ffc3bd"/><path d="M418.078,364.916l3.311-3.791a.356.356,0,0,1,.465-.064l3.371,2.183a.718.718,0,0,1,.129,1.064c-1.178,1.3-1.812,1.871-3.267,3.534-.891,1.025-2.094,2.618-3.331,4.029s-2.7.272-2.312-.431a8.769,8.769,0,0,0,1.351-5.781A1.168,1.168,0,0,1,418.078,364.916Z" transform="translate(-300.258 -212.25)" fill="#263238"/><path d="M332,404.71h5.029a.356.356,0,0,1,.356.307l.574,3.96a.718.718,0,0,1-.738.827c-1.752-.03-2.6-.134-4.811-.134-1.361,0-4.173.143-6.053.143s-1.98-1.861-1.193-2.024A12.147,12.147,0,0,0,331.235,405,1.168,1.168,0,0,1,332,404.71Z" transform="translate(-253.958 -234.324)" fill="#263238"/><path d="M339.16,384.82l.153,5.341h4.475l-.153-5.341Z" transform="translate(-261.26 -224.279)" opacity="0.2"/><path d="M409.345,349.68l-3.415,2.9,4.029,3.593,3.41-2.9Z" transform="translate(-294.981 -206.532)" opacity="0.2"/><path d="M328.1,146.3s-2.133.752,2.138,27.015H348.41c-.3-7.4-.312-11.963,3.222-27.144a54.127,54.127,0,0,0-7.717-1.02,58.084,58.084,0,0,0-8.256,0C332.116,145.5,328.1,146.3,328.1,146.3Z" transform="translate(-255.403 -103.163)" fill="#407bff"/><path d="M328.1,146.3s-2.133.752,2.138,27.015H348.41c-.3-7.4-.312-11.963,3.222-27.144a54.127,54.127,0,0,0-7.717-1.02,58.084,58.084,0,0,0-8.256,0C332.116,145.5,328.1,146.3,328.1,146.3Z" transform="translate(-255.403 -103.163)" opacity="0.4"/><path d="M350.423,145.15a58.084,58.084,0,0,0-8.256,0c-.445.04-.9.089-1.351.144a2.2,2.2,0,0,0-.247,1.93c.579,1.44,2.668,1.609,4.192,1.609,5.628,0,6.578-3.287,6.618-3.425l.054-.2C351.116,145.19,350.76,145.165,350.423,145.15Z" transform="translate(-261.911 -103.163)" fill="#fff"/><path d="M350.648,126.53c-.525,2.653-1.039,7.519.817,9.291,0,0-.728,2.7-5.662,2.7-5.445,0-2.594-2.693-2.594-2.693,2.97-.708,2.886-2.905,2.371-4.95Z" transform="translate(-262.928 -93.834)" fill="#ffc3bd"/><path d="M351.709,130.09l-3,2.559a8.581,8.581,0,0,1,.257,1.485,3.664,3.664,0,0,0,2.806-2.589A3.93,3.93,0,0,0,351.709,130.09Z" transform="translate(-266.083 -95.632)" opacity="0.2"/><path d="M352.379,82.65c-.46-1.559-.846-4.014,1.925-5.123a4.309,4.309,0,0,1,0-5.3,3.57,3.57,0,0,1,3.366-.935s.594-3.618,4.994-2.97,2.44,3.544,2.44,3.544,6-1.188,6.4,4.455-3.044,4.95-3.044,4.95,2.678,2.247,1.193,4.717-4.915,1.619-4.915,1.619-1.614,4.366-5.415,1.881A31.473,31.473,0,0,1,352.379,82.65Z" transform="translate(-267.772 -64.397)" fill="#263238"/><path d="M333.833,101.043a3.359,3.359,0,0,0,.495,4.95c3.193,2.039,7.811-6.514,6.608-7.538S335.318,99.117,333.833,101.043Z" transform="translate(-258.141 -79.498)" fill="#263238"/><path d="M356.565,94.42a3.941,3.941,0,0,0-4.89,1.317c-1.619,3.113,5.732,8.721,7.86,4.831C360.8,98.256,358.728,95.291,356.565,94.42Z" transform="translate(-267.464 -77.449)" fill="#407bff"/><path d="M347.263,107.96c.153,4.455.312,6.316-1.7,8.8-3.024,3.727-8.513,2.945-9.988-1.361-1.327-3.876-1.351-10.483,2.8-12.651a6.058,6.058,0,0,1,8.89,5.217Z" transform="translate(-259.047 -81.465)" fill="#ffc3bd"/><path d="M347.127,106.989a3.56,3.56,0,0,1-2.158-3.96c-.99-.04-3.153-.4-3.96-1.623-1.544.99-4.806,1.98-5.158.332s4.569-5.885,8.291-6.212c4.425-.386,8.791,3.96,7.667,8.122S347.127,106.989,347.127,106.989Z" transform="translate(-259.58 -78.163)" fill="#263238"/><path d="M329.68,202.2s-3.529,34.474-3.237,48.126c.307,14.2,5.509,46.571,5.509,46.571H338s-.955-31.549-.421-45.487c.584-15.2,5.41-49.21,5.41-49.21Z" transform="translate(-254.828 -132.049)" fill="#263238"/><path d="M343.052,391.369h-7.1l-.525-2.262,7.954-.277Z" transform="translate(-259.376 -226.304)" fill="#407bff"/><path d="M346.594,217.354c-4.455,8.979-.9,25.362.683,31.46.807-9.157,2.173-20.348,3.237-28.565C349.841,215.607,348.673,213.211,346.594,217.354Z" transform="translate(-263.923 -138.626)" opacity="0.2"/><path d="M342.66,202.19s4.118,35.841,7.227,47.348c3.692,13.661,26.624,32.049,26.624,32.049l4.653-3.96s-16.621-19.977-19.447-27.174c-6.024-15.344-.866-38.251-5.682-48.274Z" transform="translate(-263.027 -132.039)" fill="#263238"/><path d="M413.859,351.685l-5.771,4.9-2.158-1.292,6.529-6.073Z" transform="translate(-294.981 -206.299)" fill="#407bff"/><path d="M345.81,117.138c.035.361-.129.668-.361.693s-.455-.252-.495-.609.129-.673.366-.693S345.776,116.762,345.81,117.138Z" transform="translate(-264.183 -88.782)" fill="#263238"/><path d="M337.6,117.928c.035.356-.129.668-.366.693s-.45-.252-.495-.614.129-.668.361-.688S337.569,117.566,337.6,117.928Z" transform="translate(-260.036 -89.181)" fill="#263238"/><path d="M336.806,117.168,335.92,117S336.455,117.634,336.806,117.168Z" transform="translate(-259.623 -89.021)" fill="#263238"/><path d="M339.689,119.59a9.656,9.656,0,0,1-1.059,2.415,1.569,1.569,0,0,0,1.307.119Z" transform="translate(-260.992 -90.329)" fill="#ed847e"/><path d="M344.572,125.574a3.487,3.487,0,0,1-.6.109.1.1,0,0,1-.114-.094.109.109,0,0,1,.094-.119,2.871,2.871,0,0,0,2.217-1.331.1.1,0,0,1,.144-.045.109.109,0,0,1,.045.144A2.97,2.97,0,0,1,344.572,125.574Z" transform="translate(-263.633 -92.596)" fill="#263238"/><path d="M358.915,118.452a3.247,3.247,0,0,1-1.228,2.153c-.906.693-1.777,0-1.881-1.084-.089-.99.267-2.475,1.346-2.762a1.485,1.485,0,0,1,1.762,1.693Z" transform="translate(-269.66 -88.884)" fill="#ffc3bd"/><path d="M345.534,111.892a.213.213,0,0,1-.163-.025,1.688,1.688,0,0,0-1.525-.148.223.223,0,0,1-.287-.1.213.213,0,0,1,.1-.282,2.1,2.1,0,0,1,1.93.168.208.208,0,0,1,.069.287A.218.218,0,0,1,345.534,111.892Z" transform="translate(-263.471 -86.08)" fill="#263238"/><path d="M334.2,113.66a.223.223,0,0,1-.158,0,.218.218,0,0,1-.084-.287,2.094,2.094,0,0,1,1.569-1.133.208.208,0,0,1,.228.193.213.213,0,0,1-.193.228,1.693,1.693,0,0,0-1.232.911A.193.193,0,0,1,334.2,113.66Z" transform="translate(-258.619 -86.616)" fill="#263238"/><path d="M373.622,157.11a71.773,71.773,0,0,1,2.608,7.558,47.461,47.461,0,0,1,1.643,7.919c.084.683.109,1.4.139,2.109v.4a2.806,2.806,0,0,1-.045.421,6.192,6.192,0,0,1-.168.733,7.211,7.211,0,0,1-.495,1.193,17.416,17.416,0,0,1-2.5,3.509,43,43,0,0,1-5.94,5.41l-1.43-1.589a74.769,74.769,0,0,0,4.722-5.94,16.138,16.138,0,0,0,1.732-2.97,4.623,4.623,0,0,0,.2-.624,1.518,1.518,0,0,0,.025-.218.267.267,0,0,0,0-.064h0v-.069c-.064-.584-.109-1.168-.218-1.767a54.071,54.071,0,0,0-1.777-7.222c-.757-2.4-1.6-4.826-2.475-7.142Z" transform="translate(-275.537 -109.278)" fill="#ffc3bd"/><path d="M371.07,147.257c1.821.554,4.009,6.826,4.009,6.826l-7.073,5.049s-2.579-5.232-1.812-7.588C367.016,149.094,369,146.624,371.07,147.257Z" transform="translate(-274.841 -104.251)" fill="#407bff"/><path d="M371.07,147.257c1.821.554,4.009,6.826,4.009,6.826l-7.073,5.049s-2.579-5.232-1.812-7.588C367.016,149.094,369,146.624,371.07,147.257Z" transform="translate(-274.841 -104.251)" opacity="0.4"/><path d="M416.755,371.593a.609.609,0,0,1-.47-.242.366.366,0,0,1-.089-.356c.168-.544,1.722-.99,1.9-1.039a.094.094,0,0,1,.109.035.1.1,0,0,1,0,.114c-.277.53-.827,1.421-1.391,1.485Zm1.148-1.361c-.614.2-1.416.539-1.485.827a.153.153,0,0,0,.044.153.4.4,0,0,0,.356.168C417.106,371.345,417.507,370.92,417.9,370.232Z" transform="translate(-300.158 -216.768)" fill="#407bff"/><path d="M417.265,369.459a1.832,1.832,0,0,1-1.3-.366.371.371,0,0,1,0-.46.545.545,0,0,1,.4-.247c.643-.079,1.618.762,1.658.8a.109.109,0,0,1-.035.183A2.474,2.474,0,0,1,417.265,369.459Zm-.787-.866h-.069a.351.351,0,0,0-.252.153c-.074.114-.05.173,0,.213a2.251,2.251,0,0,0,1.609.247A2.688,2.688,0,0,0,416.478,368.593Z" transform="translate(-300.01 -215.976)" fill="#407bff"/><path d="M334.745,405.152a1.673,1.673,0,0,1-1.084-.277.6.6,0,0,1-.193-.495.347.347,0,0,1,.183-.282c.549-.3,2.331.609,2.534.718a.109.109,0,0,1,.054.109.1.1,0,0,1-.084.089A7.756,7.756,0,0,1,334.745,405.152Zm-.8-.926a.391.391,0,0,0-.2.04.124.124,0,0,0-.069.114.386.386,0,0,0,.124.337,2.785,2.785,0,0,0,1.98.124A5.7,5.7,0,0,0,333.948,404.226Z" transform="translate(-258.384 -233.984)" fill="#407bff"/><path d="M337.292,403.94h-.045c-.535-.243-1.589-1.208-1.485-1.713,0-.119.1-.272.4-.3a.782.782,0,0,1,.589.183,3.016,3.016,0,0,1,.668,1.727.1.1,0,0,1-.044.094A.094.094,0,0,1,337.292,403.94Zm-1.069-1.817h-.059c-.2,0-.208.1-.213.124-.049.3.668,1.064,1.213,1.391a2.475,2.475,0,0,0-.574-1.381.565.565,0,0,0-.366-.149Z" transform="translate(-259.54 -232.916)" fill="#407bff"/><path d="M350.832,199.862l.465,1.628c.064.124-.084.252-.3.252H332.3c-.163,0-.3-.079-.312-.183l-.163-1.623c0-.114.129-.208.312-.208H350.54A.327.327,0,0,1,350.832,199.862Z" transform="translate(-257.553 -130.801)" fill="#407bff"/><path d="M350.832,199.862l.465,1.628c.064.124-.084.252-.3.252H332.3c-.163,0-.3-.079-.312-.183l-.163-1.623c0-.114.129-.208.312-.208H350.54A.327.327,0,0,1,350.832,199.862Z" transform="translate(-257.553 -130.801)" fill="#fff" opacity="0.3"/><path d="M364.81,201.811h.495c.094,0,.168-.049.163-.114l-.233-2.114c0-.059-.089-.114-.188-.114h-.495c-.1,0-.173.054-.163.114l.228,2.114C364.627,201.762,364.691,201.811,364.81,201.811Z" transform="translate(-274.001 -130.671)" fill="#263238"/><path d="M335.15,201.811h.495c.1,0,.173-.049.168-.114l-.233-2.114c0-.059-.094-.114-.188-.114H334.9c-.1,0-.173.054-.168.114l.233,2.114C334.967,201.762,335.051,201.811,335.15,201.811Z" transform="translate(-259.022 -130.671)" fill="#263238"/><path d="M349.985,201.811h.495c.1,0,.173-.049.168-.114l-.233-2.114c0-.059-.089-.114-.188-.114h-.495c-.1,0-.173.054-.163.114l.213,2.128C349.782,201.762,349.886,201.811,349.985,201.811Z" transform="translate(-266.516 -130.671)" fill="#263238"/><path d="M345.016,116.378l-.886-.168S344.635,116.844,345.016,116.378Z" transform="translate(-263.77 -88.622)" fill="#263238"/><path d="M249.588,154.2a45.487,45.487,0,1,1,25.926-58.876A45.487,45.487,0,0,1,249.588,154.2Z" transform="translate(-184.725 -63.417)" fill="#407bff" opacity="0.2"/><path d="M249.035,67.074,213.358,148.1c-.549-.416-1.094-.846-1.628-1.282a44.948,44.948,0,0,1-8.909-9.944h0l30.817-69.988A45.012,45.012,0,0,1,249.035,67.074Z" transform="translate(-192.404 -63.422)" fill="#fff" opacity="0.1"/><path d="M292.7,84.341l-33.544,76.18a45.428,45.428,0,0,1-20.1-4.663L275.688,72.67A45.538,45.538,0,0,1,292.7,84.341Z" transform="translate(-210.706 -66.632)" fill="#fff" opacity="0.1"/><path d="M192.716,78.216a48.388,48.388,0,1,1,6.8,68.093,48.388,48.388,0,0,1-6.8-68.093ZM264.546,137a44.428,44.428,0,1,0-62.524,6.251A44.428,44.428,0,0,0,264.546,137Z" transform="translate(-181.775 -60.472)" fill="#407bff"/><path d="M353.184,214.319c4.767,2.846,9.3,5.974,13.755,9.2s8.8,6.588,13.067,10.038,8.464,7,12.508,10.726q3.039,2.792,5.94,5.732c1.94,1.98,3.846,3.96,5.643,6.108a2.787,2.787,0,0,1-3.465,4.237c-2.475-1.336-4.791-2.811-7.1-4.321s-4.569-3.084-6.8-4.7c-4.455-3.227-8.766-6.628-12.988-10.137s-8.38-7.1-12.424-10.83-8.009-7.553-11.741-11.661a2.866,2.866,0,0,1,3.593-4.39Z" transform="translate(-266.142 -137.961)" fill="#407bff"/><path d="M363.511,212l-4.781.728,3.42,3s2.7-.99,2.97-2.821Z" transform="translate(-271.143 -136.999)" fill="#ffc3bd"/><path d="M353.51,216.227l3,2.356,3.668-2.4-4.088-2.7Z" transform="translate(-268.507 -137.751)" fill="#ffc3bd"/></g><g transform="translate(40.445 136.175)"><path d="M209.222,225.34h0a6.286,6.286,0,0,1,5.8-4.123H254.64a4.682,4.682,0,0,1,4.811,5.336l-10.236,85.882a6.227,6.227,0,0,1-6.073,5.311H117.421a4.672,4.672,0,0,1-4.806-5.311l8.583-72.156a6.227,6.227,0,0,1,6.073-5.311h68.414A14.686,14.686,0,0,0,209.222,225.34Z" transform="translate(-97.297 -220.118)" fill="#407bff"/><path d="M117.23,318.061H248.6l7.484-88.391H124.719Z" transform="translate(-99.65 -224.389)" fill="#f0f0f0"/><path d="M117.23,318.061H248.6l5.415-88.391h-129.3Z" transform="translate(-99.65 -224.389)" fill="#e0e0e0"/><path d="M117.23,315.2H248.6l4.514-91.2H121.749Z" transform="translate(-99.65 -221.525)" fill="#f0f0f0"/><path d="M117.23,315.2H248.6l1.787-91.2H121.749Z" transform="translate(-99.65 -221.525)" fill="#e0e0e0"/><path d="M117.23,312.672H248.6L249.381,219H118.017Z" transform="translate(-99.65 -219)" fill="#f0f0f0"/><path d="M115.346,314.48H246.715l-2.7-91.9H113.5Z" transform="translate(-97.766 -220.808)" fill="#e0e0e0"/><path d="M113.255,315.2H244.624l-3.9-91.2H109.36Z" transform="translate(-95.675 -221.525)" fill="#f0f0f0"/><path d="M110.9,316.6H242.266l-6.212-89.822H104.69Z" transform="translate(-93.317 -222.929)" fill="#e0e0e0"/><path d="M109.887,317.384H241.256l-7.2-89.054H102.69Z" transform="translate(-92.307 -223.712)" fill="#f0f0f0"/><path d="M165.078,236.507h0a4.281,4.281,0,0,1,4.479-4.222H209.18a6.929,6.929,0,0,1,6.5,5.445l15.656,80.185a4.356,4.356,0,0,1-4.38,5.445H101.237a6.928,6.928,0,0,1-6.509-5.445l-12.914-66.1a4.356,4.356,0,0,1,4.38-5.445h68.419C160.554,246.367,164.875,242.279,165.078,236.507Z" transform="translate(-81.712 -225.707)" fill="#407bff"/><path d="M165.078,236.507h0a4.281,4.281,0,0,1,4.479-4.222H209.18a6.929,6.929,0,0,1,6.5,5.445l15.656,80.185a4.356,4.356,0,0,1-4.38,5.445H101.237a6.928,6.928,0,0,1-6.509-5.445l-12.914-66.1a4.356,4.356,0,0,1,4.38-5.445h68.419C160.554,246.367,164.875,242.279,165.078,236.507Z" transform="translate(-81.712 -225.707)" opacity="0.2"/></g></g></svg>