<svg xmlns="http://www.w3.org/2000/svg" width="156.306" height="153.221" viewBox="0 0 156.306 153.221">
  <g id="Insurance-pana" transform="translate(-22.958 -28.38)">
    <g id="freepik--background-complete--inject-4" transform="translate(22.958 28.38)">
      <rect id="Rectangle_1197" data-name="Rectangle 1197" width="31.056" height="59.258" rx="5.21" transform="translate(0 74.794) rotate(-26.88)" fill="#ebebeb"/>
      <circle id="Ellipse_354" data-name="Ellipse 354" cx="2.268" cy="2.268" r="2.268" transform="matrix(0.83, -0.558, 0.558, 0.83, 9.211, 79.787)" fill="#fafafa"/>
      <circle id="Ellipse_355" data-name="Ellipse 355" cx="2.275" cy="2.275" r="2.275" transform="matrix(0.937, -0.349, 0.349, 0.937, 21.428, 73.276)" fill="#fafafa"/>
      <path id="Path_2458" data-name="Path 2458" d="M72.428,286.874a2.268,2.268,0,1,1-3.051-1,2.268,2.268,0,0,1,3.051,1Z" transform="translate(-52.491 -196.547)" fill="#fafafa"/>
      <circle id="Ellipse_356" data-name="Ellipse 356" cx="2.268" cy="2.268" r="2.268" transform="translate(27.346 87.572) rotate(-88.06)" fill="#fafafa"/>
      <path id="Path_2459" data-name="Path 2459" d="M88.458,318.513a2.268,2.268,0,1,1-3.051-.983A2.268,2.268,0,0,1,88.458,318.513Z" transform="translate(-62.974 -217.236)" fill="#fafafa"/>
      <path id="Path_2460" data-name="Path 2460" d="M122.459,301.255a2.268,2.268,0,1,1-3.047-1,2.268,2.268,0,0,1,3.047,1Z" transform="translate(-85.197 -205.948)" fill="#fafafa"/>
      <path id="Path_2461" data-name="Path 2461" d="M104.475,350.108a2.268,2.268,0,1,1-1.318-1.133A2.268,2.268,0,0,1,104.475,350.108Z" transform="translate(-73.439 -237.881)" fill="#fafafa"/>
      <path id="Path_2462" data-name="Path 2462" d="M138.488,332.874a2.268,2.268,0,1,1-3.051-1A2.268,2.268,0,0,1,138.488,332.874Z" transform="translate(-95.675 -226.618)" fill="#fafafa"/>
      <path id="Path_2463" data-name="Path 2463" d="M57.928,254.61a25.892,25.892,0,0,1-1.378,4.041,24.969,24.969,0,0,1,1.378-4.041Z" transform="translate(-44.917 -176.268)" fill="#e0e0e0"/>
      <path id="Path_2464" data-name="Path 2464" d="M91.188,237.44a12.363,12.363,0,0,1-.6,2.05,12.625,12.625,0,0,1-.776,1.995,12.6,12.6,0,0,1,.606-2.05A13.259,13.259,0,0,1,91.188,237.44Z" transform="translate(-66.66 -165.044)" fill="#e0e0e0"/>
      <path id="Path_2465" data-name="Path 2465" d="M74.7,286.18a25.812,25.812,0,0,1-1.153,4.211,13.091,13.091,0,0,1,.5-2.126A13.441,13.441,0,0,1,74.7,286.18Z" transform="translate(-56.03 -196.906)" fill="#e0e0e0"/>
      <path id="Path_2466" data-name="Path 2466" d="M108.646,268.93a24.5,24.5,0,0,1-.956,4.1,12.254,12.254,0,0,1,.388-2.078A12.593,12.593,0,0,1,108.646,268.93Z" transform="translate(-78.348 -185.629)" fill="#e0e0e0"/>
      <path id="Path_2467" data-name="Path 2467" d="M89.8,317.81a11.112,11.112,0,0,1-.447,1.953,11.342,11.342,0,0,1-.623,1.908,10.954,10.954,0,0,1,.45-1.953A11.163,11.163,0,0,1,89.8,317.81Z" transform="translate(-65.954 -217.583)" fill="#e0e0e0"/>
      <path id="Path_2468" data-name="Path 2468" d="M124.185,301a11.2,11.2,0,0,1-.6,1.943,11.918,11.918,0,0,1-.772,1.884,11.2,11.2,0,0,1,.6-1.943A12.1,12.1,0,0,1,124.185,301Z" transform="translate(-88.232 -206.594)" fill="#e0e0e0"/>
      <path id="Path_2469" data-name="Path 2469" d="M106.086,349.76a12.981,12.981,0,0,1-.654,2.022,12.763,12.763,0,0,1-.831,1.957,12.343,12.343,0,0,1,.661-2.019A12.137,12.137,0,0,1,106.086,349.76Z" transform="translate(-76.328 -238.468)" fill="#e0e0e0"/>
      <path id="Path_2470" data-name="Path 2470" d="M140.529,331.47a14.547,14.547,0,0,1-.478,2.265,14.767,14.767,0,0,1-.651,2.22,15.037,15.037,0,0,1,.478-2.265A14.767,14.767,0,0,1,140.529,331.47Z" transform="translate(-99.077 -226.512)" fill="#e0e0e0"/>
      <path id="Path_2471" data-name="Path 2471" d="M128.292,351.638c.021.045-3.581,1.915-8.044,4.176s-8.1,4.062-8.127,4.02,3.581-1.915,8.044-4.18S128.267,351.593,128.292,351.638Z" transform="translate(-81.244 -239.696)" fill="#e0e0e0"/>
      <path id="Path_2472" data-name="Path 2472" d="M60.8,225c.021.045-3.581,1.915-8.044,4.18s-8.1,4.062-8.127,4.017,3.591-1.932,8.044-4.2S60.777,224.935,60.8,225Z" transform="translate(-37.125 -156.909)" fill="#e0e0e0"/>
      <path id="Path_2473" data-name="Path 2473" d="M69.45,243.193a.145.145,0,0,1-.062,0H69.36l.159-.083h0a.087.087,0,0,1-.055.094c-.055.024-.09.017-.1,0h0l.159-.083h0a.086.086,0,0,1,0,.024A.135.135,0,0,1,69.45,243.193Z" transform="translate(-53.291 -168.751)" fill="#e0e0e0"/>
      <path id="Path_2474" data-name="Path 2474" d="M91.512,280.482c-.045.024-5.1-9.866-11.293-22.08s-11.175-22.142-11.13-22.163,5.1,9.855,11.293,22.08S91.567,280.458,91.512,280.482Z" transform="translate(-53.114 -164.26)" fill="#e0e0e0"/>
      <path id="Path_2475" data-name="Path 2475" d="M36.753,364.866c-.042,7.757-.069,20.282-.083,26.038a3.075,3.075,0,0,0,3.065,3.082l21.19.1a3.082,3.082,0,0,0,3.092-3.065l.118-25.809a6.839,6.839,0,0,0-6.8-6.867h0v-3.809l-13.876-.062v3.588H43.4a6.832,6.832,0,0,0-6.649,6.808Z" transform="translate(-31.922 -241.547)" fill="#f5f5f5"/>
      <path id="Path_2476" data-name="Path 2476" d="M56.29,355.9l-.01,1.728,13.872.554.014-2.22Z" transform="translate(-44.741 -242.482)" fill="#e0e0e0"/>
      <path id="Path_2477" data-name="Path 2477" d="M1.035,0H16.082a1.039,1.039,0,0,1,1.039,1.039V6.233a.668.668,0,0,1-.668.668H.668A.668.668,0,0,1,0,6.233V1.039A1.039,1.039,0,0,1,1.039,0Z" transform="translate(9.984 107.632) rotate(0.26)" fill="#f5f5f5"/>
      <path id="Path_2478" data-name="Path 2478" d="M57.684,346.247a16.181,16.181,0,0,1-.166-3.428,16.5,16.5,0,0,1,.2-3.428,16.156,16.156,0,0,1,.166,3.428A15.925,15.925,0,0,1,57.684,346.247Z" transform="translate(-45.55 -231.69)" fill="#e0e0e0"/>
      <path id="Path_2479" data-name="Path 2479" d="M62.984,346.267a16.157,16.157,0,0,1-.166-3.428,16.472,16.472,0,0,1,.2-3.428,16.2,16.2,0,0,1,.166,3.432A16.425,16.425,0,0,1,62.984,346.267Z" transform="translate(-49.014 -231.703)" fill="#e0e0e0"/>
      <path id="Path_2480" data-name="Path 2480" d="M68.264,346.3a16.183,16.183,0,0,1-.166-3.428,16.5,16.5,0,0,1,.2-3.428,16.157,16.157,0,0,1,.166,3.428A16.473,16.473,0,0,1,68.264,346.3Z" transform="translate(-52.466 -231.722)" fill="#e0e0e0"/>
      <path id="Path_2481" data-name="Path 2481" d="M73.544,346.317a16.157,16.157,0,0,1-.166-3.428,16.471,16.471,0,0,1,.2-3.428,16.182,16.182,0,0,1,.166,3.428A16.5,16.5,0,0,1,73.544,346.317Z" transform="translate(-55.917 -231.735)" fill="#e0e0e0"/>
      <path id="Path_2482" data-name="Path 2482" d="M78.824,346.347a16.2,16.2,0,0,1-.166-3.432,16.4,16.4,0,0,1,.2-3.425,16.182,16.182,0,0,1,.166,3.428A16.471,16.471,0,0,1,78.824,346.347Z" transform="translate(-59.369 -231.755)" fill="#e0e0e0"/>
      <path id="Path_2483" data-name="Path 2483" d="M84.1,346.367a16.182,16.182,0,0,1-.166-3.428,16.5,16.5,0,0,1,.2-3.428,16.157,16.157,0,0,1,.166,3.428A16.471,16.471,0,0,1,84.1,346.367Z" transform="translate(-62.821 -231.768)" fill="#e0e0e0"/>
      <path id="Path_2484" data-name="Path 2484" d="M89.384,346.387a16.158,16.158,0,0,1-.166-3.428,16.473,16.473,0,0,1,.2-3.428,32.414,32.414,0,0,1-.031,6.857Z" transform="translate(-66.272 -231.781)" fill="#e0e0e0"/>
      <path id="Path_2485" data-name="Path 2485" d="M94.684,346.417a16.183,16.183,0,0,1-.166-3.428,16.5,16.5,0,0,1,.2-3.428,16.157,16.157,0,0,1,.166,3.428A17.06,17.06,0,0,1,94.684,346.417Z" transform="translate(-69.737 -231.801)" fill="#e0e0e0"/>
      <rect id="Rectangle_1198" data-name="Rectangle 1198" width="19.881" height="13.149" rx="1.48" transform="translate(8.694 127.07) rotate(0.26)" fill="#ebebeb"/>
      <path id="Path_2486" data-name="Path 2486" d="M68.247,408.871a1.181,1.181,0,0,1,0-.218v-.613c0-.564,0-1.337-.024-2.306,0-2.008-.024-4.848-.038-8.276l.142.145-17.422-.042.18-.18h0v3c0,.987,0,1.96-.017,2.916,0,1.908-.024,3.747-.035,5.5l-.166-.17,12.5.139,3.6.062.97.024.346.021a1.681,1.681,0,0,1-.312.021h-.935l-3.567.031-12.615.024h-.166v-11.58h0c-.163.163.222-.222.184-.18L68.3,397.3h.132v.166c-.045,3.463-.087,6.337-.114,8.366,0,.956-.035,1.731-.045,2.275a4.829,4.829,0,0,1-.021.585A.838.838,0,0,1,68.247,408.871Z" transform="translate(-41.063 -269.468)" fill="#e0e0e0"/>
      <path id="Path_2487" data-name="Path 2487" d="M71.413,408.214a46.875,46.875,0,0,1-5.922.156,49.157,49.157,0,0,1-5.922-.208,48.514,48.514,0,0,1,5.925-.156A48.154,48.154,0,0,1,71.413,408.214Z" transform="translate(-46.892 -276.544)" fill="#e0e0e0"/>
      <path id="Path_2488" data-name="Path 2488" d="M71.39,414.028a48.448,48.448,0,0,1-5.922.156,47.718,47.718,0,0,1-5.918-.211,48.456,48.456,0,0,1,5.922-.156A47.668,47.668,0,0,1,71.39,414.028Z" transform="translate(-46.878 -280.342)" fill="#e0e0e0"/>
      <path id="Path_2489" data-name="Path 2489" d="M71.363,419.6a48.492,48.492,0,0,1-5.922.156,48.31,48.31,0,0,1-5.922-.208,48.492,48.492,0,0,1,5.922-.156A49.127,49.127,0,0,1,71.363,419.6Z" transform="translate(-46.859 -283.989)" fill="#e0e0e0"/>
      <path id="Path_2490" data-name="Path 2490" d="M69.6,364.9a58.216,58.216,0,0,1-6.462.152,56.9,56.9,0,0,1-6.462-.211,57.316,57.316,0,0,1,6.465-.152A56.793,56.793,0,0,1,69.6,364.9Z" transform="translate(-45.002 -248.223)" fill="#e0e0e0"/>
      <path id="Path_2491" data-name="Path 2491" d="M39.817,399.926a7.19,7.19,0,0,1-.062-1.222c0-.848-.021-1.97-.035-3.331,0-2.812,0-6.7.031-10.988.021-2.144.042-4.183.059-6.05a12.025,12.025,0,0,1,.824-4.893,5.371,5.371,0,0,1,2.209-2.5,3.863,3.863,0,0,1,.852-.346,1.156,1.156,0,0,1,.319-.045,7.906,7.906,0,0,0-1.08.5,5.426,5.426,0,0,0-2.078,2.493,12.457,12.457,0,0,0-.693,4.779c0,1.835-.021,3.906-.031,6.05-.031,4.291-.083,8.176-.135,10.984-.035,1.361-.062,2.486-.083,3.331A8.089,8.089,0,0,1,39.817,399.926Z" transform="translate(-33.915 -252.059)" fill="#fff"/>
      <path id="Path_2492" data-name="Path 2492" d="M66.276,460.94a5.609,5.609,0,0,1-.952-.3c-.3-.111-.665-.242-1.1-.371s-.921-.3-1.475-.44a33.935,33.935,0,0,0-3.91-.838,36.964,36.964,0,0,0-4.879-.381,36.15,36.15,0,0,0-4.883.346,34.154,34.154,0,0,0-3.92.8c-.554.132-1.039.3-1.479.426s-.8.253-1.1.364a5.323,5.323,0,0,1-.952.291,5.136,5.136,0,0,1,.9-.426c.294-.128.658-.277,1.091-.419s.918-.346,1.475-.485a30.12,30.12,0,0,1,3.937-.876,31.266,31.266,0,0,1,9.862.042,30.751,30.751,0,0,1,3.93.921c.554.152,1.039.346,1.468.5s.8.3,1.087.433A5.086,5.086,0,0,1,66.276,460.94Z" transform="translate(-35.157 -309.396)" fill="#fff"/>
      <path id="Path_2493" data-name="Path 2493" d="M438.893,137.485c-.391-2.289-2.441-4.346-4.758-4.242a5.111,5.111,0,0,0-3.532,1.884,9.29,9.29,0,0,0-.862,1.129,9.41,9.41,0,0,0-.745-1.212,5.066,5.066,0,0,0-3.311-2.244c-2.3-.346-4.547,1.479-5.194,3.712a8.118,8.118,0,0,0,1.385,6.6,13.086,13.086,0,0,0,7.379,5.541c2.621-.461,6.046-2.964,7.539-4.741A8.2,8.2,0,0,0,438.893,137.485Z" transform="translate(-282.673 -96.612)" fill="#ebebeb"/>
      <path id="Path_2494" data-name="Path 2494" d="M439.11,150.661h-.3l-.862-.031-3.169-.142.055-.038c-.346,1.008-.727,2.192-1.157,3.487l-.069.211-.062-.215c-.478-1.645-1.011-3.487-1.576-5.426-.173-.6-.346-1.195-.513-1.77l.135.017-2.254,3.425-.021.031h-.038l-5.572-.322-1.579-.1-.416-.031a1.168,1.168,0,0,1-.142-.017h.561l1.579.062,5.575.267-.062.031,2.244-3.428.09-.139.045.156c.166.578.346,1.17.512,1.773.558,1.943,1.091,3.785,1.562,5.43h-.132l1.184-3.463v-.042h.042l3.165.19.859.062h.225A.3.3,0,0,1,439.11,150.661Z" transform="translate(-283.534 -105.616)" fill="#fafafa"/>
      <path id="Path_2495" data-name="Path 2495" d="M362.29,101.863a.951.951,0,0,1,.135-.1l.405-.267a6.3,6.3,0,0,0,.644-.45,10.194,10.194,0,0,0,.838-.668l.478-.422c.159-.156.326-.326.5-.5a7.5,7.5,0,0,0,.519-.564c.17-.2.364-.405.526-.641a14.892,14.892,0,0,0,1.974-3.335,14.724,14.724,0,0,0,1.157-4.543,14.344,14.344,0,0,0,0-2.615,26.173,26.173,0,0,0-.474-2.743,20.738,20.738,0,0,1-.758-5.953A14.428,14.428,0,0,1,370.341,73a18.232,18.232,0,0,1,4.055-5.007,10.022,10.022,0,0,1,2.639-1.586,11.56,11.56,0,0,1,2.864-.693,34.733,34.733,0,0,1,5.437-.087,24.79,24.79,0,0,0,4.692-.2,9.433,9.433,0,0,0,3.622-1.3,7.12,7.12,0,0,0,2.13-2,5.246,5.246,0,0,0,.783-1.669c.107-.409.128-.634.142-.63a3.649,3.649,0,0,1-.1.641,5.1,5.1,0,0,1-.758,1.7,7.109,7.109,0,0,1-2.119,2.043,9.485,9.485,0,0,1-3.66,1.344,24.419,24.419,0,0,1-4.73.218,35.72,35.72,0,0,0-5.409.1,11.6,11.6,0,0,0-2.819.693,9.859,9.859,0,0,0-2.587,1.562,18.543,18.543,0,0,0-4.01,4.955,13.88,13.88,0,0,0-2.078,5.987,21.027,21.027,0,0,0,.745,5.9,25.978,25.978,0,0,1,.467,2.77,14.1,14.1,0,0,1,0,2.649,14.849,14.849,0,0,1-1.219,4.585,15.116,15.116,0,0,1-2.015,3.349,6.443,6.443,0,0,1-.537.637c-.19.2-.346.395-.526.564l-.506.5-.488.419a9.9,9.9,0,0,1-.852.658,5.915,5.915,0,0,1-.658.436l-.416.249a.84.84,0,0,1-.135.08Z" transform="translate(-244.782 -48.932)" fill="#e0e0e0"/>
      <path id="Path_2496" data-name="Path 2496" d="M335.11,71.944s.021-.055.069-.156.128-.26.222-.45.246-.426.409-.693a8.454,8.454,0,0,1,.637-.911,12.722,12.722,0,0,1,2.126-2.178,12.868,12.868,0,0,1,3.484-2.019,13.371,13.371,0,0,1,2.265-.634,17.026,17.026,0,0,1,2.538-.232c1.756-.052,3.633.094,5.593-.024a13.613,13.613,0,0,0,2.961-.5,12.913,12.913,0,0,0,2.871-1.243,14.544,14.544,0,0,0,4.741-4.5,16.488,16.488,0,0,0,2.424-6.1,19.932,19.932,0,0,0,.166-6.133c-.246-1.95-.72-3.768-.994-5.506a13.98,13.98,0,0,1-.069-4.879,10.431,10.431,0,0,1,1.517-3.726,10.664,10.664,0,0,1,2.008-2.286,11.118,11.118,0,0,1,1.579-1.1l.447-.225.156-.069-.145.087-.436.242a11.581,11.581,0,0,0-1.551,1.122,10.761,10.761,0,0,0-1.967,2.286,10.475,10.475,0,0,0-1.479,3.691,13.976,13.976,0,0,0,.094,4.827c.277,1.731.758,3.543,1.015,5.51a20.086,20.086,0,0,1-.159,6.192,16.581,16.581,0,0,1-2.441,6.171,14.683,14.683,0,0,1-4.807,4.564,13.132,13.132,0,0,1-2.916,1.257,13.609,13.609,0,0,1-3,.5c-1.981.114-3.854-.038-5.6,0a17.1,17.1,0,0,0-2.514.222,12.75,12.75,0,0,0-7.844,4.73c-.263.319-.461.634-.648.893a6.811,6.811,0,0,0-.422.693c-.107.19-.18.346-.239.436S335.11,71.944,335.11,71.944Z" transform="translate(-227.014 -28.38)" fill="#e0e0e0"/>
      <path id="Path_2497" data-name="Path 2497" d="M424.18,38.66a3.567,3.567,0,0,1,.533.308c.346.208.81.523,1.385.925a53.569,53.569,0,0,1,8.37,7.2c.481.516.866.938,1.122,1.24a3.635,3.635,0,0,1,.384.492,4.012,4.012,0,0,1-.429-.436c-.3-.3-.693-.693-1.167-1.2-.99-1-2.393-2.358-4.024-3.761s-3.176-2.59-4.318-3.418l-1.357-.977A3.838,3.838,0,0,1,424.18,38.66Z" transform="translate(-285.24 -35.1)" fill="#e0e0e0"/>
      <path id="Path_2498" data-name="Path 2498" d="M420.23,49.34a3.377,3.377,0,0,1,.395.346l1.039,1c.876.841,2.1,1.984,3.5,3.2s2.712,2.254,3.674,3l1.136.88a2.889,2.889,0,0,1,.409.346,2.734,2.734,0,0,1-.45-.277c-.284-.19-.693-.474-1.177-.831-.983-.717-2.313-1.731-3.719-2.961s-2.621-2.379-3.463-3.245c-.426-.436-.765-.793-.994-1.039A2.423,2.423,0,0,1,420.23,49.34Z" transform="translate(-282.658 -42.082)" fill="#e0e0e0"/>
      <path id="Path_2499" data-name="Path 2499" d="M421.55,62.45a6.139,6.139,0,0,1,.89.654c.533.422,1.257,1.039,2.04,1.731s1.472,1.333,1.96,1.808a5.646,5.646,0,0,1,.762.8,6.9,6.9,0,0,1-.855-.693L424.352,65l-2-1.759a6.235,6.235,0,0,1-.8-.786Z" transform="translate(-283.52 -50.652)" fill="#e0e0e0"/>
      <path id="Path_2500" data-name="Path 2500" d="M411.62,78.19a3.918,3.918,0,0,1,.675.5l1.576,1.257,1.593,1.24a3.639,3.639,0,0,1,.641.544,3.509,3.509,0,0,1-.72-.433c-.429-.287-1.011-.693-1.631-1.195s-1.167-.956-1.548-1.306A3.307,3.307,0,0,1,411.62,78.19Z" transform="translate(-277.029 -60.941)" fill="#e0e0e0"/>
      <path id="Path_2501" data-name="Path 2501" d="M399.83,83c.021-.021.429.377,1.108.994s1.635,1.43,2.76,2.279,2.171,1.551,2.947,2.043a14.713,14.713,0,0,1,1.25.8,1.827,1.827,0,0,1-.367-.163c-.229-.114-.558-.294-.956-.523a30.386,30.386,0,0,1-2.992-2.005,29.277,29.277,0,0,1-2.725-2.351c-.329-.322-.589-.592-.758-.783A1.435,1.435,0,0,1,399.83,83Z" transform="translate(-269.322 -64.084)" fill="#e0e0e0"/>
      <path id="Path_2502" data-name="Path 2502" d="M392.349,91.908c.031-.045,2.05,1.447,4.5,3.331s4.419,3.442,4.384,3.484-2.047-1.448-4.5-3.331S392.318,91.939,392.349,91.908Z" transform="translate(-264.432 -69.908)" fill="#e0e0e0"/>
      <path id="Path_2503" data-name="Path 2503" d="M383.3,100a2.221,2.221,0,0,1,.391.284l1.039.821c.873.693,2.078,1.648,3.442,2.67s2.611,1.915,3.522,2.556l1.08.765a2.289,2.289,0,0,1,.381.3,2.425,2.425,0,0,1-.422-.235c-.27-.163-.651-.405-1.115-.713-.932-.613-2.2-1.493-3.563-2.514s-2.563-1.995-3.411-2.718c-.426-.346-.765-.658-1-.869A2.243,2.243,0,0,1,383.3,100Z" transform="translate(-258.516 -75.199)" fill="#e0e0e0"/>
      <path id="Path_2504" data-name="Path 2504" d="M380.559,111.718c.031-.045,1.731,1.222,3.827,2.826s3.74,2.94,3.705,2.982-1.731-1.222-3.827-2.826S380.524,111.759,380.559,111.718Z" transform="translate(-256.724 -82.858)" fill="#e0e0e0"/>
      <path id="Path_2505" data-name="Path 2505" d="M378,123.91a37.84,37.84,0,0,1,4.349,2.919,17.306,17.306,0,0,1-2.23-1.385A17.016,17.016,0,0,1,378,123.91Z" transform="translate(-255.052 -90.829)" fill="#e0e0e0"/>
      <path id="Path_2506" data-name="Path 2506" d="M365.33,135.57a6.6,6.6,0,0,1,1,.568c.6.377,1.423.918,2.3,1.548s1.659,1.236,2.206,1.683a5.939,5.939,0,0,1,.859.769,7.524,7.524,0,0,1-.942-.658c-.571-.422-1.357-1-2.237-1.635s-1.68-1.188-2.261-1.593A6.9,6.9,0,0,1,365.33,135.57Z" transform="translate(-246.769 -98.451)" fill="#e0e0e0"/>
      <path id="Path_2507" data-name="Path 2507" d="M354.31,135.78a2.134,2.134,0,0,1,.4.274c.253.187.609.467,1.039.817.873.693,2.057,1.7,3.321,2.847s2.365,2.237,3.144,3.04c.391.4.693.734.911.966a2.384,2.384,0,0,1,.308.374,2.278,2.278,0,0,1-.364-.322l-.952-.918c-.8-.779-1.918-1.846-3.179-3s-2.424-2.161-3.276-2.888l-1-.862A2.37,2.37,0,0,1,354.31,135.78Z" transform="translate(-239.565 -98.588)" fill="#e0e0e0"/>
      <path id="Path_2508" data-name="Path 2508" d="M345.06,144a2.885,2.885,0,0,1,.436.3c.27.208.658.509,1.132.89.952.762,2.251,1.832,3.66,3.044s2.666,2.331,3.563,3.155c.45.412.807.751,1.039.987a2.635,2.635,0,0,1,.367.384,3.094,3.094,0,0,1-.419-.329l-1.091-.938c-.949-.821-2.209-1.908-3.6-3.117l-3.622-3.082-1.08-.952A2.825,2.825,0,0,1,345.06,144Z" transform="translate(-233.518 -103.962)" fill="#e0e0e0"/>
      <path id="Path_2509" data-name="Path 2509" d="M317.357,41.734a5.243,5.243,0,0,1,1.891,3.64A9.243,9.243,0,0,1,318.6,49.5a16.42,16.42,0,0,1-5.229,6.524c-1.731-2.476-1.385-5.97-1.122-7.729.44-2.77,2.926-7.546,5.118-6.58" transform="translate(-211.927 -37.018)" fill="#f5f5f5"/>
      <path id="Path_2510" data-name="Path 2510" d="M320.17,89.384a4.471,4.471,0,0,1,2.424-3.775,5.932,5.932,0,0,1,4.585-.256,2.533,2.533,0,0,1,1.659,1.3,1.919,1.919,0,0,1-.44,1.887,3.9,3.9,0,0,1-1.731,1.039c-2.213.724-4.5,1.018-6.493-.17" transform="translate(-217.248 -65.4)" fill="#f5f5f5"/>
      <path id="Path_2511" data-name="Path 2511" d="M308.25,99.6a8.809,8.809,0,0,1,.727-1.648,8.391,8.391,0,0,1,1.112-1.621,18.407,18.407,0,0,1,1.645-1.731,8.955,8.955,0,0,1,3.809-2.078,6.656,6.656,0,0,1,1.316-.17,1.4,1.4,0,0,1,.485.042c0,.055-.693.038-1.731.346a9.627,9.627,0,0,0-3.664,2.112,21.234,21.234,0,0,0-1.638,1.7,9.376,9.376,0,0,0-1.136,1.544A13.332,13.332,0,0,1,308.25,99.6Z" transform="translate(-209.455 -70.194)" fill="#e0e0e0"/>
      <path id="Path_2512" data-name="Path 2512" d="M312.456,53a5.222,5.222,0,0,1-.132.9c-.1.578-.267,1.409-.474,2.424-.419,2.05-1.039,4.876-1.773,7.965s-1.51,5.887-2.1,7.906c-.294,1-.544,1.815-.727,2.369a4.879,4.879,0,0,1-.312.855,5.168,5.168,0,0,1,.2-.886c.163-.62.377-1.427.634-2.4.537-2.022,1.26-4.817,2.008-7.92l1.86-7.965c.232-.977.422-1.787.568-2.424A5.361,5.361,0,0,1,312.456,53Z" transform="translate(-208.599 -44.474)" fill="#e0e0e0"/>
      <path id="Path_2513" data-name="Path 2513" d="M295.089,81.617a10.462,10.462,0,0,0-4.865-8.224,2.2,2.2,0,0,0-2.362-.287,2.164,2.164,0,0,0-.429,2.337,8.924,8.924,0,0,0,7.58,6.389" transform="translate(-195.755 -57.456)" fill="#f5f5f5"/>
      <path id="Path_2514" data-name="Path 2514" d="M296.57,81.49a3.021,3.021,0,0,1,.4.263c.242.184.589.471,1,.835a11.871,11.871,0,0,1,2.663,3.38,7.4,7.4,0,0,1,.693,2.286,7.183,7.183,0,0,1-.035,1.95,7.029,7.029,0,0,1-.319,1.271,1.591,1.591,0,0,1-.187.44c-.059,0,.166-.661.291-1.731a7.724,7.724,0,0,0-.031-1.884,7.521,7.521,0,0,0-.693-2.189,13.357,13.357,0,0,0-2.538-3.359A14.913,14.913,0,0,1,296.57,81.49Z" transform="translate(-201.82 -63.098)" fill="#e0e0e0"/>
    </g>
    <g id="freepik--Character--inject-4" transform="translate(90.756 67.82)">
      <path id="Path_2557" data-name="Path 2557" d="M412.35,444.142,412,449.918s5.752,2.3,5.79,3.376L406.56,453l.187-9Z" transform="translate(-388.52 -339.514)" fill="#257d79"/>
      <g id="Group_1947" data-name="Group 1947" transform="translate(19.683 109.829)" opacity="0.6">
        <path id="Path_2558" data-name="Path 2558" d="M411.638,459.43a.461.461,0,0,0-.329.516.44.44,0,0,0,.506.346.481.481,0,0,0,.346-.547.457.457,0,0,0-.564-.287" transform="translate(-411.303 -459.43)" fill="#fff"/>
      </g>
      <g id="Group_1948" data-name="Group 1948" transform="translate(18.04 112.582)" opacity="0.6">
        <path id="Path_2559" data-name="Path 2559" d="M406.56,468.287l.055-.907,10.735.613s.5.232.429.582Z" transform="translate(-406.56 -467.38)" fill="#fff"/>
      </g>
      <path id="Path_2560" data-name="Path 2560" d="M420.831,460.846c0,.055-.277.073-.554.242s-.422.395-.471.374.038-.346.374-.537S420.845,460.8,420.831,460.846Z" transform="translate(-397.171 -350.494)" fill="#263238"/>
      <path id="Path_2561" data-name="Path 2561" d="M424.708,462.385c0,.055-.229.142-.419.37s-.253.471-.308.468-.08-.315.163-.6S424.708,462.333,424.708,462.385Z" transform="translate(-399.884 -351.517)" fill="#263238"/>
      <path id="Path_2562" data-name="Path 2562" d="M427.882,464.786c-.052,0-.121-.263.028-.561s.409-.409.429-.364-.139.2-.256.447S427.931,464.783,427.882,464.786Z" transform="translate(-402.418 -352.492)" fill="#263238"/>
      <path id="Path_2563" data-name="Path 2563" d="M420.393,456.717c-.024.052-.274-.031-.585-.017s-.554.1-.582.055.211-.235.578-.246S420.421,456.679,420.393,456.717Z" transform="translate(-396.798 -347.691)" fill="#263238"/>
      <g id="Group_1949" data-name="Group 1949" transform="translate(18.182 105.421)" opacity="0.3">
        <path id="Path_2564" data-name="Path 2564" d="M412.549,447.05l-.062,1.032-5.516-.19.021-1.191Z" transform="translate(-406.97 -446.7)"/>
      </g>
      <path id="Path_2565" data-name="Path 2565" d="M419.552,451.968a1.018,1.018,0,0,1-.561-.017,2.335,2.335,0,0,1-.582-.194,2.261,2.261,0,0,1-.319-.18.633.633,0,0,1-.166-.135.242.242,0,0,1-.021-.294.312.312,0,0,1,.246-.118.7.7,0,0,1,.208.035,1.94,1.94,0,0,1,.346.128,2.04,2.04,0,0,1,.513.346c.253.249.346.454.319.464s-.149-.156-.409-.346a2.124,2.124,0,0,0-.5-.3,2.024,2.024,0,0,0-.319-.107c-.118-.035-.218-.038-.253,0s0,.028,0,.066a.69.69,0,0,0,.125.1,2.657,2.657,0,0,0,.291.18,3.249,3.249,0,0,0,.54.222A4.153,4.153,0,0,1,419.552,451.968Z" transform="translate(-395.909 -344.11)" fill="#263238"/>
      <path id="Path_2566" data-name="Path 2566" d="M422.272,450.64a.952.952,0,0,1-.135-.547,1.874,1.874,0,0,1,.093-.613,1.733,1.733,0,0,1,.152-.346.457.457,0,0,1,.367-.274.253.253,0,0,1,.229.163.73.73,0,0,1,.052.208,1.245,1.245,0,0,1,0,.377,1.3,1.3,0,0,1-.256.575c-.225.284-.457.346-.461.326a2.218,2.218,0,0,0,.346-.405,1.3,1.3,0,0,0,.194-.523,1.145,1.145,0,0,0,0-.326c0-.118-.055-.215-.1-.2a.4.4,0,0,0-.2.18,1.97,1.97,0,0,0-.145.3,2.078,2.078,0,0,0-.125.561C422.251,450.415,422.3,450.619,422.272,450.64Z" transform="translate(-398.702 -342.691)" fill="#263238"/>
      <path id="Path_2567" data-name="Path 2567" d="M413.154,342.8l-8.924,2.867c.107.08,1.655,10.108,1.655,10.108L404.6,382.4l7.082.087,3.169-27.925Z" transform="translate(-386.997 -273.359)" fill="#263238"/>
      <path id="Path_2568" data-name="Path 2568" d="M383.4,444.35l-.18,5.783s5.818,2.126,5.887,3.2l-11.23.052-.09-9.024Z" transform="translate(-369.713 -339.743)" fill="#257d79"/>
      <g id="Group_1950" data-name="Group 1950" transform="translate(9.725 109.912)" opacity="0.6">
        <path id="Path_2569" data-name="Path 2569" d="M382.871,459.68a.461.461,0,0,0-.315.523.443.443,0,0,0,.519.319.485.485,0,0,0,.329-.558.457.457,0,0,0-.575-.27" transform="translate(-382.548 -459.669)" fill="#fff"/>
      </g>
      <g id="Group_1951" data-name="Group 1951" transform="translate(8.185 112.735)" opacity="0.6">
        <path id="Path_2570" data-name="Path 2570" d="M378.1,468.727l.028-.907,10.756.287s.5.215.447.568Z" transform="translate(-378.1 -467.82)" fill="#fff"/>
      </g>
      <path id="Path_2571" data-name="Path 2571" d="M392.071,460.8c0,.052-.277.08-.544.256s-.412.409-.464.388.031-.346.346-.547S392.095,460.749,392.071,460.8Z" transform="translate(-378.38 -350.466)" fill="#263238"/>
      <path id="Path_2572" data-name="Path 2572" d="M396.046,462.24c0,.052-.225.145-.409.377s-.239.481-.294.478-.09-.312.145-.6S396.043,462.188,396.046,462.24Z" transform="translate(-381.161 -351.424)" fill="#263238"/>
      <path id="Path_2573" data-name="Path 2573" d="M399.269,464.551c-.048,0-.128-.263,0-.565s.4-.419.419-.374-.132.2-.242.454S399.325,464.544,399.269,464.551Z" transform="translate(-383.708 -352.329)" fill="#263238"/>
      <path id="Path_2574" data-name="Path 2574" d="M391.532,456.707c-.024.049-.277-.024-.585,0s-.551.121-.582.076.2-.246.568-.267S391.556,456.662,391.532,456.707Z" transform="translate(-377.931 -347.695)" fill="#263238"/>
      <g id="Group_1952" data-name="Group 1952" transform="translate(8.101 105.57)" opacity="0.3">
        <path id="Path_2575" data-name="Path 2575" d="M383.425,447.314l-.031,1.029-5.52-.021-.014-1.191Z" transform="translate(-377.86 -447.13)"/>
      </g>
      <path id="Path_2576" data-name="Path 2576" d="M390.551,452a1.015,1.015,0,0,1-.561,0,2.483,2.483,0,0,1-.592-.177,3.232,3.232,0,0,1-.322-.17.694.694,0,0,1-.17-.132.235.235,0,0,1-.028-.291.308.308,0,0,1,.239-.128.763.763,0,0,1,.211.028,2.087,2.087,0,0,1,.346.121,1.974,1.974,0,0,1,.523.346,1.3,1.3,0,0,1,.346.454c0,.01-.152-.152-.419-.346a2.329,2.329,0,0,0-.5-.281,2.239,2.239,0,0,0-.326-.1c-.118-.031-.218-.031-.249.021s0,.031,0,.066a.487.487,0,0,0,.125.094,2.351,2.351,0,0,0,.3.17,2.83,2.83,0,0,0,.544.2A4.855,4.855,0,0,1,390.551,452Z" transform="translate(-376.937 -344.155)" fill="#263238"/>
      <path id="Path_2577" data-name="Path 2577" d="M393.284,450.54a.9.9,0,0,1-.149-.54,1.838,1.838,0,0,1,.073-.616,1.8,1.8,0,0,1,.142-.346.474.474,0,0,1,.346-.287.266.266,0,0,1,.235.156.757.757,0,0,1,.059.208,1.259,1.259,0,0,1,0,.378,1.278,1.278,0,0,1-.239.582.856.856,0,0,1-.45.346,3.615,3.615,0,0,0,.346-.412,1.243,1.243,0,0,0,.173-.53,1.038,1.038,0,0,0,0-.326c-.017-.118-.062-.215-.107-.2a.394.394,0,0,0-.2.187,1.956,1.956,0,0,0-.135.3,1.916,1.916,0,0,0-.107.561C393.256,450.329,393.315,450.533,393.284,450.54Z" transform="translate(-379.742 -342.619)" fill="#263238"/>
      <path id="Path_2578" data-name="Path 2578" d="M373.29,346.9c0,2.015.8,39.387.8,39.387l6.722-.6,1.385-22.966.724-2,.841-12.373Z" transform="translate(-366.771 -276.039)" fill="#263238"/>
      <path id="Path_2579" data-name="Path 2579" d="M412.446,207c.09.121,5.34,8.453,5.34,8.453l5.9-6.178,3.02,4.36s-6.313,8.91-7.241,9.232-3.913-.184-3.913-.184l-4.156-5.5Z" transform="translate(-391.684 -184.585)" fill="#ebebeb"/>
      <path id="Path_2580" data-name="Path 2580" d="M429.763,233.282a2.386,2.386,0,0,1-.111-.959,2.854,2.854,0,0,1,.066-.963,2.424,2.424,0,0,1,.114.959A2.923,2.923,0,0,1,429.763,233.282Z" transform="translate(-403.606 -200.51)" fill="#263238"/>
      <path id="Path_2581" data-name="Path 2581" d="M364.5,189l-.907,2.241s-4.658,3.93-5.08,4.536,3.324,20.2,3.324,20.2-.242,28.787,0,28.787a31.631,31.631,0,0,0,10.042.544c6.58-.5,7.8-1.15,7.8-1.15L377.633,218.7l-3.148-17.117-5.4-6.954Z" transform="translate(-357.092 -172.819)" fill="#ebebeb"/>
      <path id="Path_2582" data-name="Path 2582" d="M386.86,197.282s-.693-3.321-.634-3.425-1.551-4.027-1.551-4.027-.54-1.8-.54-1.79-7.338-1.24-7.338-1.24l-.346,1.108,9.786,12.366,1,5.309,1.039-1.448Z" transform="translate(-368.837 -171.381)" fill="#257d79"/>
      <path id="Path_2583" data-name="Path 2583" d="M408.482,226.416l-1.593-19.153-1.305-7.476a8.125,8.125,0,0,0-1.174-2.992l-3.809-2.206a16.765,16.765,0,0,1-1.091-1.458l1.8,4.609.634,3.681.391,8.446h0l2.078,11.338,2.036,24.933,4.426-.866Z" transform="translate(-383.911 -175.518)" fill="#ebebeb"/>
      <path id="Path_2584" data-name="Path 2584" d="M402.458,204.1l.855-6.285-2.753-3.227-1.091-1.458L401.163,198Z" transform="translate(-383.885 -175.519)" fill="#ebebeb"/>
      <path id="Path_2585" data-name="Path 2585" d="M392.892,240.821l6.652-9.461,11.577,3.5-8.758,11.331-10.874-3.536Z" transform="translate(-378.669 -200.51)" fill="#257d79"/>
      <path id="Path_2586" data-name="Path 2586" d="M437.335,239.667a.287.287,0,1,1-.287-.287A.287.287,0,0,1,437.335,239.667Z" transform="translate(-408.262 -205.753)" fill="#263238"/>
      <path id="Path_2587" data-name="Path 2587" d="M423.965,235.937a.287.287,0,1,1-.284-.287A.287.287,0,0,1,423.965,235.937Z" transform="translate(-399.522 -203.314)" fill="#263238"/>
      <path id="Path_2588" data-name="Path 2588" d="M409.377,213.79c-.017,0,.125.616.322,1.385a13.021,13.021,0,0,0,.388,1.351c.017,0-.128-.616-.322-1.368S409.395,213.786,409.377,213.79Z" transform="translate(-390.361 -189.024)" fill="#263238"/>
      <path id="Path_2589" data-name="Path 2589" d="M411.178,222.365a1.465,1.465,0,0,1-.1.8.984.984,0,0,1-.6.547,1.091,1.091,0,0,1-1.056-.225,2.77,2.77,0,0,1-.661-2,1.219,1.219,0,0,1,.758-1.039,1.1,1.1,0,0,1,1.25.54" transform="translate(-389.952 -193.353)" fill="#e0e0e0"/>
      <path id="Path_2590" data-name="Path 2590" d="M410.684,220.955a.96.96,0,0,0-.177-.253,1.265,1.265,0,0,0-.284-.222,1.039,1.039,0,0,0-.461-.132,1.119,1.119,0,0,0-.281.028.925.925,0,0,0-.287.114,1.233,1.233,0,0,0-.426.516,1.576,1.576,0,0,0-.142.724,2.913,2.913,0,0,0,.142.776,2.189,2.189,0,0,0,.616,1.039,1.039,1.039,0,0,0,.512.211,1.226,1.226,0,0,0,.506-.045h0a.731.731,0,0,0,.322-.177,1.19,1.19,0,0,0,.215-.249,1.385,1.385,0,0,0,.173-.5,1.242,1.242,0,0,0,0-.346.377.377,0,0,0,0-.087.231.231,0,0,0,0-.031,1.915,1.915,0,0,1-.017.447,1.346,1.346,0,0,1-.18.478,1.112,1.112,0,0,1-.211.235.693.693,0,0,1-.3.159h0a1.067,1.067,0,0,1-.956-.166,2.154,2.154,0,0,1-.592-.994,2.022,2.022,0,0,1,0-1.454,1.177,1.177,0,0,1,.4-.492.842.842,0,0,1,.267-.111.984.984,0,0,1,.713.087,1.135,1.135,0,0,1,.284.208,1.958,1.958,0,0,1,.166.232Z" transform="translate(-389.87 -193.312)" fill="#263238"/>
      <path id="Path_2591" data-name="Path 2591" d="M412.068,222.213a1.451,1.451,0,0,1-.1.8.987.987,0,0,1-.6.551,1.091,1.091,0,0,1-1.056-.225,2.77,2.77,0,0,1-.661-2,1.212,1.212,0,0,1,.755-1.039,1.1,1.1,0,0,1,1.254.537" transform="translate(-390.534 -193.254)" fill="#e0e0e0"/>
      <path id="Path_2592" data-name="Path 2592" d="M411.574,220.8a.921.921,0,0,0-.177-.249,1.174,1.174,0,0,0-.284-.222,1.039,1.039,0,0,0-.464-.132.99.99,0,0,0-.28.028.858.858,0,0,0-.284.114,1.191,1.191,0,0,0-.426.516,1.551,1.551,0,0,0-.142.72,2.936,2.936,0,0,0,.142.779,2.206,2.206,0,0,0,.616,1.039,1.039,1.039,0,0,0,.513.211,1.229,1.229,0,0,0,.506-.045h0a.724.724,0,0,0,.326-.177,1.191,1.191,0,0,0,.215-.249,1.384,1.384,0,0,0,.173-.5,1.238,1.238,0,0,0,0-.346.745.745,0,0,0,0-.087.221.221,0,0,0,0-.031,1.827,1.827,0,0,1-.021.447,1.348,1.348,0,0,1-.18.478,1,1,0,0,1-.208.235.693.693,0,0,1-.3.159h0a1.067,1.067,0,0,1-.956-.163,2.154,2.154,0,0,1-.592-.994,2.022,2.022,0,0,1,0-1.454,1.156,1.156,0,0,1,.4-.492.81.81,0,0,1,.267-.111,1.018,1.018,0,0,1,.267-.031.952.952,0,0,1,.443.118,1.077,1.077,0,0,1,.284.208A2.472,2.472,0,0,1,411.574,220.8Z" transform="translate(-390.452 -193.213)" fill="#263238"/>
      <path id="Path_2593" data-name="Path 2593" d="M412.968,221.813a.693.693,0,0,1,.793.218,1.174,1.174,0,0,1,.218.838,1.039,1.039,0,0,1-.114.436.579.579,0,0,1-.346.284.693.693,0,0,1-.613-.173,1.243,1.243,0,0,1-.44-.938.575.575,0,0,1,.346-.578" transform="translate(-392.379 -194.238)" fill="#e0e0e0"/>
      <path id="Path_2594" data-name="Path 2594" d="M412.793,221.852a.142.142,0,0,0-.052,0,.315.315,0,0,0-.128.083.693.693,0,0,0-.177.519,1.223,1.223,0,0,0,.284.765,1.039,1.039,0,0,0,.384.3.585.585,0,0,0,.53,0,.73.73,0,0,0,.312-.429,1.472,1.472,0,0,0,.049-.485,1.039,1.039,0,0,0-.329-.745.734.734,0,0,0-.526-.17.607.607,0,0,0-.145.038c-.031.017-.045.024-.045.028a.971.971,0,0,1,.194-.038.693.693,0,0,1,.488.18.99.99,0,0,1,.3.71,1.542,1.542,0,0,1-.052.464.692.692,0,0,1-.28.388.53.53,0,0,1-.467,0,1.014,1.014,0,0,1-.364-.284,1.2,1.2,0,0,1-.284-.727.693.693,0,0,1,.149-.5A.561.561,0,0,1,412.793,221.852Z" transform="translate(-392.36 -194.191)" fill="#263238"/>
      <path id="Path_2595" data-name="Path 2595" d="M413.613,227.588a.2.2,0,0,1,.045-.107.481.481,0,0,1,.18-.2,1.388,1.388,0,0,1,.26-.111c.069-.024.114-.042.114-.052a.281.281,0,0,0-.125,0,.828.828,0,0,0-.284.1.447.447,0,0,0-.194.242C413.589,227.539,413.6,227.591,413.613,227.588Z" transform="translate(-393.121 -197.731)" fill="#263238"/>
      <path id="Path_2596" data-name="Path 2596" d="M411.62,221.882a.267.267,0,0,0,.1.073.665.665,0,0,0,.6-.045c.066-.045.1-.083.09-.09a1.555,1.555,0,0,1-.388.114A1.922,1.922,0,0,1,411.62,221.882Z" transform="translate(-391.828 -194.273)" fill="#263238"/>
      <path id="Path_2597" data-name="Path 2597" d="M393.543,235.322c-.346.1-.741-.156-1.08-.024a.507.507,0,0,0,.391.935c.346-.159.426-.658.758-.855" transform="translate(-379.101 -203.058)" fill="#263238"/>
      <path id="Path_2598" data-name="Path 2598" d="M379.72,220.05a2.181,2.181,0,0,0,.315-.132l-.055-.114a1.43,1.43,0,0,1-1.139.139,2.106,2.106,0,0,1-1.129-1.164v-.024c-.125-.249-1.839-5.354-2.154-6.327a1.731,1.731,0,0,1,.831-2.185c.048-.028,1.195-.623,2.376.828,1.236,1.52,3.4,4.5,3.6,4.89l.094.166c.274.464.845,1.434.346,2.265a1.461,1.461,0,0,1-1.285.859v.125a1.575,1.575,0,0,0,1.406-.921,2.357,2.357,0,0,0-.346-2.393l-.09-.159c-.2-.374-2.372-3.387-3.608-4.91a2.069,2.069,0,0,0-2.535-.859,1.891,1.891,0,0,0-.89,2.334c.26.8,2.026,6.081,2.157,6.344v.024a2.209,2.209,0,0,0,1.2,1.229,1.448,1.448,0,0,0,.911-.014Z" transform="translate(-368.107 -186.537)" fill="#263238"/>
      <path id="Path_2599" data-name="Path 2599" d="M376.583,215.511a2.3,2.3,0,0,1,.055-.675,2.078,2.078,0,0,1,.308-.668,2.178,2.178,0,0,1,.651-.613,2.379,2.379,0,0,1,1.579-.291,2.681,2.681,0,0,1,.651.208l-.042-.031a1.337,1.337,0,0,0-.118-.066,2.077,2.077,0,0,0-.481-.156,2.24,2.24,0,0,0-.755-.021,2.31,2.31,0,0,0-.869.3,2.151,2.151,0,0,0-.668.637,2.078,2.078,0,0,0-.3.693,1.641,1.641,0,0,0-.042.506.3.3,0,0,0,.017.135C376.586,215.5,376.579,215.514,376.583,215.511Z" transform="translate(-368.9 -188.622)" fill="#263238"/>
      <path id="Path_2600" data-name="Path 2600" d="M373.25,191.251l5.742,7.113,5.142,3.227-9.977-12.581Z" transform="translate(-366.745 -172.825)" fill="#ebebeb"/>
      <path id="Path_2601" data-name="Path 2601" d="M355.961,208.236a10.094,10.094,0,0,0-1.385,3.837c-.076.758,1.815,15,2.026,15.642s2.725,2.241,3.463,2.563,9.876,3.362,13.613,3.311l.8-7.047-9.61-1.6a8.123,8.123,0,0,0-1.707-1.281l-.8-7.847-1.174-6.3S357.838,207.439,355.961,208.236Z" transform="translate(-354.536 -185.274)" fill="#ebebeb"/>
      <path id="Path_2602" data-name="Path 2602" d="M416.9,215.566c-.049,0-.564-2.078-1.153-4.654s-1.039-4.682-.98-4.692.564,2.078,1.157,4.651S416.952,215.553,416.9,215.566Z" transform="translate(-393.884 -184.075)" fill="#263238"/>
      <path id="Path_2603" data-name="Path 2603" d="M361.815,215.451a.6.6,0,0,0,.028.145c.028.1.045.249.076.436.062.391.152.956.267,1.686.225,1.475.554,3.608.963,6.264l-.038-.045a3.847,3.847,0,0,1,.893.564c.284.225.561.467.838.724l-.035-.017,9.613,1.586h.076v.076c-.249,2.2-.516,4.578-.8,7.047V234h-.08a24.985,24.985,0,0,1-5.288-.824c-2.216-.53-4.349-1.164-6.4-1.818-.509-.166-1.015-.346-1.513-.509a6.41,6.41,0,0,1-1.416-.693c-.44-.27-.869-.554-1.278-.852a6.15,6.15,0,0,1-1.136-1,.692.692,0,0,1-.163-.346c-.031-.128-.052-.246-.069-.367-.042-.242-.08-.481-.118-.717-.069-.478-.138-.945-.208-1.409l-.374-2.691c-.235-1.731-.447-3.359-.63-4.848s-.346-2.819-.461-4c-.028-.294-.062-.578-.08-.855a3.1,3.1,0,0,1,0-.8,9.495,9.495,0,0,1,.326-1.354,10.338,10.338,0,0,1,.745-1.773,4.6,4.6,0,0,1,.249-.433.965.965,0,0,1,.1-.139l-.083.149c-.052.1-.135.242-.232.44a11.326,11.326,0,0,0-.71,1.776,9.594,9.594,0,0,0-.308,1.347,3.281,3.281,0,0,0,0,.779c.021.274.055.558.087.852.128,1.177.3,2.514.488,3.993s.416,3.117.651,4.848q.184,1.3.381,2.691c.069.461.142.928.215,1.4l.114.717c.021.118.042.239.069.346a.571.571,0,0,0,.135.3,5.974,5.974,0,0,0,1.1.966c.405.3.831.578,1.267.845a6.347,6.347,0,0,0,1.385.693c.5.173,1,.346,1.51.506,2.043.651,4.156,1.281,6.382,1.811a25.107,25.107,0,0,0,5.243.821l-.087.08c.284-2.469.554-4.848.807-7.047l.069.09-9.61-1.634h-.021c-.274-.256-.547-.5-.828-.72a3.732,3.732,0,0,0-.855-.551l-.035-.017v-.031c-.384-2.663-.693-4.8-.907-6.278-.1-.727-.18-1.3-.235-1.686-.024-.187-.042-.346-.055-.44A1.169,1.169,0,0,1,361.815,215.451Z" transform="translate(-354.465 -185.612)" fill="#263238"/>
      <path id="Path_2604" data-name="Path 2604" d="M365.735,214.107a5.95,5.95,0,0,1-.443-.855,9.722,9.722,0,0,0-1.2-1.96,4.3,4.3,0,0,0-1.835-1.309,6.811,6.811,0,0,0-.928-.2.641.641,0,0,1,.26-.028,2.529,2.529,0,0,1,.71.107,4.048,4.048,0,0,1,1.929,1.316,7.989,7.989,0,0,1,1.181,2.019A4.655,4.655,0,0,1,365.735,214.107Z" transform="translate(-358.953 -186.384)" fill="#263238"/>
      <path id="Path_2605" data-name="Path 2605" d="M369.61,254.416a3.685,3.685,0,0,1,3.331-1.274,8.393,8.393,0,0,0-1.766.374A8.77,8.77,0,0,0,369.61,254.416Z" transform="translate(-364.365 -214.725)" fill="#263238"/>
      <path id="Path_2606" data-name="Path 2606" d="M372.76,255.534a3.57,3.57,0,0,1,2.386-2.424,8.916,8.916,0,0,0-1.385,1.039A9.348,9.348,0,0,0,372.76,255.534Z" transform="translate(-366.425 -214.728)" fill="#263238"/>
      <path id="Path_2607" data-name="Path 2607" d="M384.029,201.63a2.378,2.378,0,0,1-.4-.215l-1.08-.648-3.709-2.292h0l-1.731-2.13c-1.586-1.967-3.009-3.747-4-5l-.024-.031v-.031l.693-1.631.194-.436a.538.538,0,0,1,.08-.149.671.671,0,0,1-.049.163c-.042.121-.1.267-.163.447-.159.416-.374.97-.641,1.652v-.062c1.011,1.229,2.452,3,4.041,4.966l1.731,2.133-.021-.017,3.678,2.344,1.039.693A2.786,2.786,0,0,1,384.029,201.63Z" transform="translate(-366.64 -172.865)" fill="#263238"/>
      <path id="Path_2608" data-name="Path 2608" d="M402.079,205.621a2.7,2.7,0,0,1,.038-.464c.042-.326.094-.748.159-1.26.142-1.067.346-2.552.6-4.225v.055c-.107-.2-.225-.416-.346-.634-.88-1.634-1.669-3.117-2.23-4.2l-.655-1.281a3.287,3.287,0,0,1-.222-.481,2.822,2.822,0,0,1,.281.447l.71,1.257c.589,1.063,1.385,2.538,2.272,4.156.118.218.232.433.346.634v.059c-.253,1.669-.485,3.151-.658,4.214-.087.509-.159.928-.215,1.254A2.108,2.108,0,0,1,402.079,205.621Z" transform="translate(-383.852 -175.519)" fill="#263238"/>
      <path id="Path_2609" data-name="Path 2609" d="M372.96,199.211l.294-.18-.3.18a17.994,17.994,0,0,1-1.292-2.424l-.062-.149a5.1,5.1,0,0,1-.578-2.739v-.017a1.822,1.822,0,0,1,.634-1.039l.094-.083h.277v.537l.062.073-.062.059v.024h0a1.087,1.087,0,0,0-.308.568v.017a4.652,4.652,0,0,0,.54,2.337l.062.149a16.92,16.92,0,0,0,1.247,2.313Z" transform="translate(-365.264 -175.277)" fill="#263238"/>
      <path id="Path_2610" data-name="Path 2610" d="M413.26,272.34a1.2,1.2,0,0,1,.048.26c.024.187.059.436.1.748.087.651.2,1.593.346,2.77.267,2.331.6,5.541.9,9.121s.516,6.8.648,9.142c.062,1.17.111,2.119.135,2.77,0,.315.017.564.024.755a1.384,1.384,0,0,1,0,.263,1.309,1.309,0,0,1-.031-.26c0-.19-.035-.44-.059-.755-.048-.672-.114-1.614-.194-2.77-.163-2.337-.4-5.568-.693-9.135s-.62-6.794-.869-9.132q-.171-1.73-.274-2.77c-.028-.312-.049-.561-.066-.751A2.127,2.127,0,0,1,413.26,272.34Z" transform="translate(-392.9 -227.299)" fill="#263238"/>
      <path id="Path_2611" data-name="Path 2611" d="M386.787,295.8a2.325,2.325,0,0,1-.232.225c-.156.135-.391.329-.693.558a20.625,20.625,0,0,1-2.4,1.652,12.658,12.658,0,0,1-1.448.713,9.137,9.137,0,0,1-1.25.4,5.674,5.674,0,0,1-.876.149.986.986,0,0,1-.326,0c0-.031.457-.083,1.167-.284a9.819,9.819,0,0,0,1.222-.433,14.714,14.714,0,0,0,1.42-.713c.977-.564,1.811-1.167,2.424-1.6A8.717,8.717,0,0,1,386.787,295.8Z" transform="translate(-370.87 -242.635)" fill="#263238"/>
      <path id="Path_2612" data-name="Path 2612" d="M388.207,299.7a1.157,1.157,0,0,1-.187.277,6.493,6.493,0,0,1-.6.693,9.79,9.79,0,0,1-5.267,2.8,6.548,6.548,0,0,1-.907.111,1.384,1.384,0,0,1-.346,0c0-.035.471-.069,1.219-.235a10.964,10.964,0,0,0,2.791-1.039,11.141,11.141,0,0,0,2.424-1.731A10.873,10.873,0,0,1,388.207,299.7Z" transform="translate(-371.746 -245.183)" fill="#263238"/>
      <path id="Path_2613" data-name="Path 2613" d="M380.149,307.655a2.636,2.636,0,0,1-.187-.949,2.535,2.535,0,0,1,0-.966,5.166,5.166,0,0,1,.194,1.915Z" transform="translate(-371.102 -249.133)" fill="#263238"/>
      <path id="Path_2614" data-name="Path 2614" d="M375.307,154.9a.672.672,0,0,1-.6-.405,2.332,2.332,0,0,1-.2-.776c-.163-1.177-.322-2.358-.485-3.539a17.963,17.963,0,0,1-.246-3.016,6.428,6.428,0,0,1,.89-2.77c.533-1.039,2.694-2.836,6.278-1.822" transform="translate(-367.091 -142.273)" fill="#263238"/>
      <path id="Path_2615" data-name="Path 2615" d="M374.215,166.355c-.048,0-1.915-.526-1.822,1.385a1.419,1.419,0,0,0,1.981,1.354C374.374,169.038,374.215,166.355,374.215,166.355Z" transform="translate(-366.183 -157.972)" fill="#ffbe9d"/>
      <path id="Path_2616" data-name="Path 2616" d="M374.615,169.552a.567.567,0,0,1-.087.052.346.346,0,0,1-.246.021.828.828,0,0,1-.416-.717,1.063,1.063,0,0,1,.069-.474.377.377,0,0,1,.235-.267.17.17,0,0,1,.2.08c.028.052.017.09.028.094s.038-.035,0-.111a.176.176,0,0,0-.08-.114.249.249,0,0,0-.184-.042.474.474,0,0,0-.346.312,1.163,1.163,0,0,0-.087.533.862.862,0,0,0,.523.8.371.371,0,0,0,.3-.066C374.615,169.6,374.622,169.556,374.615,169.552Z" transform="translate(-367.04 -159.137)" fill="#eb996e"/>
      <path id="Path_2617" data-name="Path 2617" d="M386.829,155.446c0-1.34-.249-4.1-.5-6.58a5.17,5.17,0,0,0-5.239-4.658h-.267c-2.885.222-4.3,2.791-4,5.669l.405,9.17,6.874,3.771-.024-4.11A3.338,3.338,0,0,0,386.829,155.446Z" transform="translate(-369.056 -143.537)" fill="#ffbe9d"/>
      <path id="Path_2618" data-name="Path 2618" d="M391,184.249a6.434,6.434,0,0,1-3.633-.959A3.382,3.382,0,0,0,391.006,185Z" transform="translate(-375.975 -169.086)" fill="#eb996e"/>
      <path id="Path_2619" data-name="Path 2619" d="M400.219,162.223a.4.4,0,0,1-.374.405.377.377,0,0,1-.416-.346.4.4,0,0,1,.374-.405.381.381,0,0,1,.416.346Z" transform="translate(-383.859 -155.087)" fill="#263238"/>
      <path id="Path_2620" data-name="Path 2620" d="M399.844,160.4c-.048.052-.346-.166-.779-.156s-.734.229-.783.177.028-.118.159-.218a1.1,1.1,0,0,1,.627-.2,1.039,1.039,0,0,1,.62.187C399.823,160.283,399.868,160.377,399.844,160.4Z" transform="translate(-383.099 -153.861)" fill="#263238"/>
      <path id="Path_2621" data-name="Path 2621" d="M388.256,162.472a.391.391,0,0,1-.374.405.374.374,0,0,1-.412-.346.391.391,0,0,1,.374-.405.374.374,0,0,1,.412.346Z" transform="translate(-376.04 -155.25)" fill="#263238"/>
      <path id="Path_2622" data-name="Path 2622" d="M387.579,160.387c-.042.055-.367-.125-.79-.069s-.693.3-.758.26,0-.118.135-.235a1.063,1.063,0,0,1,.6-.27,1.039,1.039,0,0,1,.637.118C387.545,160.287,387.6,160.387,387.579,160.387Z" transform="translate(-375.083 -153.902)" fill="#263238"/>
      <path id="Path_2623" data-name="Path 2623" d="M394.747,164.38a2.77,2.77,0,0,1,.693-.139c.111,0,.211-.035.229-.111a.554.554,0,0,0-.08-.322l-.346-.821a14.145,14.145,0,0,1-.762-2.157,15,15,0,0,1,.935,2.078c.111.291.218.564.322.828a.634.634,0,0,1,.066.429.267.267,0,0,1-.177.159.654.654,0,0,1-.183.031A2.771,2.771,0,0,1,394.747,164.38Z" transform="translate(-380.623 -154.404)" fill="#263238"/>
      <path id="Path_2624" data-name="Path 2624" d="M391.519,172c.069,0,.08.457.481.776s.893.263.9.329-.111.09-.319.1a1.146,1.146,0,0,1-.748-.246,1.011,1.011,0,0,1-.374-.655C391.44,172.111,391.488,172,391.519,172Z" transform="translate(-378.646 -161.706)" fill="#263238"/>
      <path id="Path_2625" data-name="Path 2625" d="M386.925,155.151c-.038.114-.468.069-.966.139s-.9.211-.97.111.038-.159.2-.277a1.62,1.62,0,0,1,.713-.263,1.641,1.641,0,0,1,.758.073C386.849,155.006,386.943,155.1,386.925,155.151Z" transform="translate(-374.405 -150.491)" fill="#263238"/>
      <path id="Path_2626" data-name="Path 2626" d="M399.41,157.182c-.073.1-.367,0-.72,0s-.651.076-.724-.021,0-.149.145-.242a.983.983,0,0,1,.582-.17,1,1,0,0,1,.578.184C399.4,157.044,399.441,157.144,399.41,157.182Z" transform="translate(-382.883 -151.736)" fill="#263238"/>
      <path id="Path_2627" data-name="Path 2627" d="M382.1,142.909a5.708,5.708,0,0,0-3.016-.031,4.772,4.772,0,0,0-2.22.883,4.28,4.28,0,0,0-1.635,3.328,12.29,12.29,0,0,0,.412,3.74l.1-.024a1.787,1.787,0,0,0-.017.963.623.623,0,0,0,.765.419c.346-.152.346-.634.346-1.015a27.467,27.467,0,0,1,0-3.851,3.5,3.5,0,0,1,1.347-2.583c1.361-.907,3.134-.166,3.733-.062.925-.79,1.787-.173,2.348.512A3.529,3.529,0,0,0,382.1,142.909Z" transform="translate(-368.03 -142.543)" fill="#263238"/>
      <path id="Path_2628" data-name="Path 2628" d="M392.859,144.489c.609,0,1.094-.409,1.77-.3.409.066.821.734,1.177,1.565a1.2,1.2,0,0,0-.346-2.2,1.111,1.111,0,0,0,.54.177.377.377,0,0,0,.381-.346.506.506,0,0,0-.225-.346,2.961,2.961,0,0,0-4.156.478" transform="translate(-379.002 -142.357)" fill="#263238"/>
      <path id="Path_2629" data-name="Path 2629" d="M397.578,144.2c0,.024-.2-.1-.526-.208a2.119,2.119,0,0,0-1.3,0,2.147,2.147,0,0,0-1.039.8c-.194.284-.253.5-.284.488a1.018,1.018,0,0,1,.177-.554,1.974,1.974,0,0,1,2.479-.862C397.436,144.015,397.592,144.188,397.578,144.2Z" transform="translate(-380.59 -143.216)" fill="#455a64"/>
      <path id="Path_2630" data-name="Path 2630" d="M397.466,147.553a2.361,2.361,0,0,0,0-.644,1.385,1.385,0,0,0-.3-.606,1.451,1.451,0,0,0-.693-.422,1.915,1.915,0,0,0-1.479.256c-.346.215-.513.409-.533.388s.121-.239.464-.492a2.078,2.078,0,0,1,.672-.326,1.8,1.8,0,0,1,.921,0,1.531,1.531,0,0,1,.786.488,1.386,1.386,0,0,1,.3.693A.828.828,0,0,1,397.466,147.553Z" transform="translate(-380.606 -144.479)" fill="#455a64"/>
      <path id="Path_2631" data-name="Path 2631" d="M374.4,154.126a1.114,1.114,0,0,1-.073-.253,3.606,3.606,0,0,1-.062-.713,4.758,4.758,0,0,1,.575-2.282,4.824,4.824,0,0,1,1.6-1.731,3.883,3.883,0,0,1,.63-.346.665.665,0,0,1,.253-.08c0,.028-.346.173-.814.523a5.066,5.066,0,0,0-2.116,3.913C374.366,153.755,374.436,154.122,374.4,154.126Z" transform="translate(-367.411 -146.487)" fill="#455a64"/>
      <path id="Path_2632" data-name="Path 2632" d="M375.761,158.09a4.277,4.277,0,0,1,1.278-3.84,6.356,6.356,0,0,0-1.278,3.84Z" transform="translate(-368.345 -150.102)" fill="#455a64"/>
      <path id="Path_2633" data-name="Path 2633" d="M453.924,202.5c-.08-.211-.481-.256-.481-.256l.08-.121a.578.578,0,0,0,.042-.578l-.045-.087a.973.973,0,0,0-.464-.346s.294-.4.222-.6a.945.945,0,0,0-.9-.53,14.077,14.077,0,0,0-1.887.561.419.419,0,0,1-.557-.308,5.97,5.97,0,0,0-.606-1.731c-.346-.582-.751-.6-1-.547a.194.194,0,0,0-.139.263,10.173,10.173,0,0,1,.44,1.219c.066.312-.159,2.566-.159,2.566l-1.146,1.541,2.6,3.75,1.143-1.7,2.448-1.077s.464-.585.416-.786a.613.613,0,0,0-.242-.322l.3-.426a1.3,1.3,0,0,0-.062-.488Z" transform="translate(-415.165 -178.664)" fill="#ffbe9d"/>
      <path id="Path_2634" data-name="Path 2634" d="M459.037,205.695l-.048.031-.152.087-.558.312-.831.45c-.159.083-.319.18-.5.256a.662.662,0,0,1-.6,0,.453.453,0,0,1-.187-.26.662.662,0,0,1,0-.308.845.845,0,0,1,.315-.467,3.249,3.249,0,0,1,.426-.284l.378-.225.551-.326.152-.083.052-.028-.049.038-.145.094-.54.346-.374.232a3.655,3.655,0,0,0-.416.281.834.834,0,0,0-.294.443.471.471,0,0,0,.166.506.5.5,0,0,0,.274.073.827.827,0,0,0,.277-.062,5.494,5.494,0,0,0,.5-.249l.838-.443.568-.291.156-.08Z" transform="translate(-420.929 -183.18)" fill="#eb996e"/>
      <path id="Path_2635" data-name="Path 2635" d="M460.546,210.533a.507.507,0,0,1-.118.069c-.076.042-.187.1-.329.166-.281.139-.672.315-1.115.492a2.5,2.5,0,0,1-.329.118.641.641,0,0,1-.346,0,.512.512,0,0,1-.367-.405.485.485,0,0,1,.087-.346.31.31,0,0,1,.066-.076l.031-.021a.641.641,0,0,0-.08.107.5.5,0,0,0-.066.346.481.481,0,0,0,.346.346.627.627,0,0,0,.308,0c.1-.028.211-.076.322-.118.44-.177.835-.346,1.119-.474l.346-.152A.589.589,0,0,1,460.546,210.533Z" transform="translate(-422.106 -186.893)" fill="#eb996e"/>
      <path id="Path_2636" data-name="Path 2636" d="M461.378,213.2a.383.383,0,0,1-.114.045l-.326.107-1.08.326c-.107.028-.208.062-.315.08a.547.547,0,0,1-.308-.021.346.346,0,0,1-.2-.2.4.4,0,0,1,0-.246.516.516,0,0,1,.225-.263.346.346,0,0,1,.114-.052q-.048.037-.1.069a.536.536,0,0,0-.2.26.346.346,0,0,0,0,.218.277.277,0,0,0,.177.163.506.506,0,0,0,.28,0,1.326,1.326,0,0,0,.3-.08c.422-.125.807-.235,1.084-.308l.346-.09Z" transform="translate(-422.809 -188.488)" fill="#eb996e"/>
      <path id="Path_2637" data-name="Path 2637" d="M462.079,215.583a2.8,2.8,0,0,1-.371.038l-.89.048h-.256a.948.948,0,0,1-.242,0,.346.346,0,0,1-.2-.107.218.218,0,0,1-.052-.194.322.322,0,0,1,.173-.215.163.163,0,0,1,.1-.024.7.7,0,0,0-.087.045.312.312,0,0,0-.145.2.194.194,0,0,0,.048.156.3.3,0,0,0,.173.087,1.038,1.038,0,0,0,.232,0h.253c.346,0,.665-.028.893-.031A2.252,2.252,0,0,1,462.079,215.583Z" transform="translate(-423.497 -189.899)" fill="#eb996e"/>
      <path id="Path_2638" data-name="Path 2638" d="M456.707,213.573a3.32,3.32,0,0,0-.623-.163,3.216,3.216,0,0,0-.644.028A1.416,1.416,0,0,1,456.707,213.573Z" transform="translate(-420.473 -188.735)" fill="#eb996e"/>
      <path id="Path_2639" data-name="Path 2639" d="M411.237,255.729l.54-.138s.187-.9.426-1.094,2.618-1.274,3.141-1.558,2.566-1.215,2.822-.724c.291.561-.544,1.039-.994,1.236s-1.731.713-1.479,1.022,3.141.17,3.141.17l.346-.485s.634.6.561,1.122a2.254,2.254,0,0,1-.284.855h-.215a.6.6,0,0,1,.024.62,5.732,5.732,0,0,1-.568.71,2.119,2.119,0,0,1-1.354.99c-.121.031-4.872.447-4.872.447l-1.593.159Z" transform="translate(-391.344 -214.05)" fill="#ffbe9d"/>
    </g>
    <g id="freepik--Device--inject-4" transform="translate(52.487 54.681)">
      <rect id="Rectangle_1199" data-name="Rectangle 1199" width="88.322" height="126.75" rx="11.55" transform="translate(0)" fill="#263238"/>
      <rect id="Rectangle_1200" data-name="Rectangle 1200" width="82.75" height="105.851" transform="translate(2.743 9.042)" fill="#fff"/>
      <path id="Path_2515" data-name="Path 2515" d="M232.74,445.6a3.387,3.387,0,1,1-.991-2.4A3.39,3.39,0,0,1,232.74,445.6Z" transform="translate(-185.191 -325.205)" fill="#455a64"/>
      <rect id="Rectangle_1201" data-name="Rectangle 1201" width="26.602" height="1.399" rx="0.7" transform="translate(30.862 3.65)" fill="#455a64"/>
      <rect id="Rectangle_1202" data-name="Rectangle 1202" width="65.924" height="11.13" transform="translate(12.013 17.311)" fill="#257d79"/>
      <path id="Path_2525" data-name="Path 2525" d="M210.351,222.737v-.751c0-.506,0-1.271-.017-2.317l.028.028c-8.2.038-35.353.062-67.527.062h0l.09-.09v3.068l-.09-.09,47.84.038,14.409.028h.031l-14.388.028-47.906.038h-.09V219.53h.094c32.181,0,59.337.028,67.527.066h0v3.141Z" transform="translate(-130.783 -179.637)" fill="#263238"/>
      <path id="Path_2526" data-name="Path 2526" d="M153.326,207.74c0,.052-2.968.09-6.628.09s-6.628-.038-6.628-.09,2.968-.09,6.628-.09S153.326,207.692,153.326,207.74Z" transform="translate(-129.044 -171.871)" fill="#263238"/>
      <path id="Path_2527" data-name="Path 2527" d="M207.467,358.17V355.1l.024.024c-8.2.038-35.35.066-67.527.066h0l.09-.09v3.068l-.09-.09,47.837.035,14.413.028h.031l-14.388.028-47.906.038h-.09V354.96h.094c32.181,0,59.334.028,67.527.066h.028v.024c0,1.039,0,1.818-.017,2.331v.558A1.138,1.138,0,0,1,207.467,358.17Z" transform="translate(-128.907 -268.169)" fill="#263238"/>
      <path id="Path_2528" data-name="Path 2528" d="M155.046,346.29c0,.052-2.968.09-6.628.09s-6.628-.038-6.628-.09,2.968-.09,6.628-.09S155.046,346.242,155.046,346.29Z" transform="translate(-130.168 -262.442)" fill="#263238"/>
      <path id="Path_2529" data-name="Path 2529" d="M207.467,256.587v-3.065l.024.024c-8.2.038-35.35.066-67.527.066h0l.09-.09v3.065l-.09-.09,47.837.038,14.413.028h.031l-14.388.028-47.906.035h-.09V253.38h.094c32.181,0,59.334.028,67.527.066h.028v.024c0,1.039,0,1.818-.017,2.327v.561A1.082,1.082,0,0,1,207.467,256.587Z" transform="translate(-128.907 -201.765)" fill="#263238"/>
      <path id="Path_2530" data-name="Path 2530" d="M153.326,244.71c0,.052-2.968.09-6.628.09s-6.628-.038-6.628-.09,2.968-.09,6.628-.09S153.326,244.662,153.326,244.71Z" transform="translate(-129.044 -196.039)" fill="#263238"/>
      <path id="Path_2531" data-name="Path 2531" d="M168.67,290.447v-.8c0-.523,0-1.285-.021-2.272l.038.038c-4.99.031-15.981.052-28.722.052h0c.042-.038-.09.09.09-.09h0v3.058l-.09-.09,20.383.038,6.1.028h.045l-6.081.028-20.431.038h-.09V287.33h0l.09-.09h0c12.74,0,23.731.021,28.722.052h.038v.038c0,1-.017,1.766-.024,2.292v.585A.64.64,0,0,1,168.67,290.447Z" transform="translate(-128.926 -223.9)" fill="#263238"/>
      <path id="Path_2532" data-name="Path 2532" d="M153.326,278.57c0,.048-2.968.09-6.628.09s-6.628-.042-6.628-.09,2.968-.09,6.628-.09S153.326,278.518,153.326,278.57Z" transform="translate(-129.044 -218.173)" fill="#263238"/>
      <path id="Path_2533" data-name="Path 2533" d="M144.718,322.735a1.6,1.6,0,0,1,0-.229c0-.166,0-.374-.017-.623,0-.558-.024-1.309-.038-2.213l.069.069-4.779.021c-.021,0,.17-.173.09-.09h0v3.061l-.083-.083c1.385,0,2.569.024,3.418.042l.994.024a3.344,3.344,0,0,1,.367.017,1.868,1.868,0,0,1-.346.021l-.977.021c-.841.017-2.047.035-3.463.042h-.083V319.67h0l.09-.09,4.779.017h.073v.073c0,.952-.024,1.731-.038,2.258,0,.242,0,.443-.017.606A.772.772,0,0,1,144.718,322.735Z" transform="translate(-128.913 -245.04)" fill="#263238"/>
      <path id="Path_2534" data-name="Path 2534" d="M162.908,322.732a1.6,1.6,0,0,1,0-.229q0-.249-.021-.623c0-.558-.021-1.309-.038-2.213l.073.069-4.779.021c-.021,0,.17-.173.09-.09h0v3.061l-.083-.083c1.385,0,2.569.024,3.414.042l.994.024a3.391,3.391,0,0,1,.371.017,1.911,1.911,0,0,1-.346.021l-.977.021c-.841.017-2.047.035-3.463.042h-.083v-3.144h0c-.083.08.107-.111.09-.09l4.779.017H163v.073c0,.952-.024,1.731-.038,2.258v.606A.772.772,0,0,1,162.908,322.732Z" transform="translate(-140.791 -245.037)" fill="#263238"/>
      <path id="Path_2535" data-name="Path 2535" d="M181.158,322.735a1.284,1.284,0,0,1-.017-.229c0-.166,0-.374-.017-.623,0-.558-.021-1.309-.038-2.213l.073.069-4.782.021.09-.09h0v3.061l-.083-.083c1.385,0,2.573.024,3.418.042l.994.024a3.462,3.462,0,0,1,.371.017,1.94,1.94,0,0,1-.346.021l-.973.021c-.842.017-2.05.035-3.463.042H176.3V319.67h0l.09-.09,4.782.017h.073v.073c0,.952-.024,1.731-.035,2.258a5.175,5.175,0,0,1-.021.606.962.962,0,0,1-.031.2Z" transform="translate(-152.728 -245.04)" fill="#263238"/>
      <path id="Path_2536" data-name="Path 2536" d="M199.431,322.735v-.852c0-.558-.024-1.309-.038-2.213l.069.069-4.779.021c-.021,0,.17-.173.09-.09h0v3.061l-.083-.083c1.385,0,2.569.024,3.418.042l.994.024a3.277,3.277,0,0,1,.367.017,1.865,1.865,0,0,1-.346.021l-.977.021c-.838.017-2.047.035-3.463.042H194.6V319.67h0l.09-.09,4.779.017h.073v.073c0,.952-.024,1.731-.038,2.258,0,.242,0,.443-.017.606A.772.772,0,0,1,199.431,322.735Z" transform="translate(-164.691 -245.04)" fill="#263238"/>
      <path id="Path_2537" data-name="Path 2537" d="M217.628,322.735a1.6,1.6,0,0,1,0-.229c0-.166,0-.374-.021-.623,0-.558-.021-1.309-.035-2.213l.069.069-4.779.021c-.021,0,.17-.173.09-.09h0v3.061l-.083-.083c1.385,0,2.569.024,3.414.042l.994.024a3.391,3.391,0,0,1,.371.017,1.911,1.911,0,0,1-.346.021l-.977.021c-.841.017-2.047.035-3.463.042h-.083V319.67h0l.09-.09,4.779.017h.055v.073c0,.952-.024,1.731-.038,2.258v.606A.772.772,0,0,1,217.628,322.735Z" transform="translate(-176.575 -245.04)" fill="#263238"/>
      <path id="Path_2538" data-name="Path 2538" d="M235.848,322.735a1.282,1.282,0,0,1,0-.229c0-.166,0-.374-.017-.623,0-.558-.021-1.309-.038-2.213l.073.069-4.782.021.09-.09h0v3.061l-.083-.083c1.385,0,2.573.024,3.418.042l.994.024a3.391,3.391,0,0,1,.371.017,1.936,1.936,0,0,1-.346.021l-.973.021c-.841.017-2.05.035-3.463.042H231V319.67h0l.09-.09,4.782.017h.073v.073c0,.952-.024,1.731-.035,2.258a5.178,5.178,0,0,1-.021.606A.961.961,0,0,1,235.848,322.735Z" transform="translate(-188.486 -245.04)" fill="#263238"/>
      <path id="Path_2539" data-name="Path 2539" d="M254.068,322.735a1.283,1.283,0,0,1-.017-.229c0-.166,0-.374-.017-.623,0-.558-.024-1.309-.038-2.213l.073.069-4.782.021c-.021,0,.17-.173.09-.09h0v3.061l-.083-.083c1.385,0,2.569.024,3.418.042l.994.024a3.462,3.462,0,0,1,.371.017,1.986,1.986,0,0,1-.346.021l-.973.021c-.841.017-2.05.035-3.463.042h-.083V319.67h0l.09-.09,4.782.017h.069v.073c0,.952-.024,1.731-.038,2.258,0,.242,0,.443-.017.606A.961.961,0,0,1,254.068,322.735Z" transform="translate(-200.39 -245.04)" fill="#263238"/>
      <path id="Path_2540" data-name="Path 2540" d="M272.268,322.732a1.6,1.6,0,0,1,0-.229c0-.166,0-.374-.017-.623,0-.558-.024-1.309-.038-2.213l.069.069-4.779.021c-.021,0,.17-.173.09-.09h0v3.061l-.083-.083c1.385,0,2.569.024,3.418.042l.994.024a3.351,3.351,0,0,1,.367.017,1.911,1.911,0,0,1-.346.021l-.977.021c-.841.017-2.047.035-3.463.042h-.083v-3.144h0c-.083.08.107-.111.09-.09l4.779.017h.073v.073c0,.952-.024,1.731-.038,2.258,0,.242,0,.443-.017.606A.773.773,0,0,1,272.268,322.732Z" transform="translate(-212.28 -245.037)" fill="#263238"/>
      <path id="Path_2541" data-name="Path 2541" d="M290.482,322.732a1.9,1.9,0,0,1-.017-.229c0-.166,0-.374-.017-.623,0-.558-.021-1.309-.038-2.213l.073.069-4.779.021c-.021,0,.17-.173.087-.09h0v3.061l-.083-.083c1.385,0,2.573.024,3.418.042l.994.024a3.392,3.392,0,0,1,.371.017,1.912,1.912,0,0,1-.346.021l-.977.021c-.841.017-2.05.035-3.463.042h-.08v-3.144h0c-.08.08.111-.111.093-.09l4.779.017h.073v.073c0,.952-.028,1.731-.038,2.258a5.178,5.178,0,0,1-.021.606A.961.961,0,0,1,290.482,322.732Z" transform="translate(-224.18 -245.037)" fill="#263238"/>
      <path id="Path_2542" data-name="Path 2542" d="M308.749,322.735a1.283,1.283,0,0,1-.017-.229c0-.166,0-.374-.017-.623,0-.558-.021-1.309-.038-2.213l.073.069-4.782.021c-.021,0,.17-.173.09-.09h0v3.061l-.083-.083c1.385,0,2.569.024,3.418.042l.994.024a3.46,3.46,0,0,1,.37.017,1.939,1.939,0,0,1-.346.021l-.973.021c-.841.017-2.05.035-3.463.042h-.083V319.67h0l.09-.09,4.782.017h.069v.073c0,.952-.024,1.731-.038,2.258,0,.242,0,.443-.017.606a.961.961,0,0,1-.028.2Z" transform="translate(-236.134 -245.04)" fill="#263238"/>
      <path id="Path_2543" data-name="Path 2543" d="M326.988,322.735a1.6,1.6,0,0,1,0-.229c0-.166,0-.374-.017-.623,0-.558-.024-1.309-.038-2.213l.069.069-4.779.021c-.021,0,.17-.173.09-.09h0v3.061l-.083-.083c1.385,0,2.569.024,3.418.042l.994.024a3.351,3.351,0,0,1,.367.017,1.865,1.865,0,0,1-.346.021l-.977.021c-.841.017-2.047.035-3.463.042h-.083V319.67h0l.09-.09,4.779.017h.073v.073c0,.952-.024,1.731-.038,2.258,0,.242,0,.443-.017.606A.773.773,0,0,1,326.988,322.735Z" transform="translate(-248.065 -245.04)" fill="#263238"/>
      <path id="Path_2544" data-name="Path 2544" d="M155.046,310.76c0,.052-2.968.09-6.628.09s-6.628-.038-6.628-.09,2.968-.09,6.628-.09S155.046,310.712,155.046,310.76Z" transform="translate(-130.168 -239.216)" fill="#263238"/>
      <path id="Path_2545" data-name="Path 2545" d="M279.4,290.447v-.8c0-.523,0-1.285-.021-2.272l.038.038c-4.99.031-15.978.052-28.718.052h0l.09-.09h0v3.058l-.09-.09,20.383.038,6.1.028h.045l-6.077.028-20.431.038h-.087V287.33h0l.094-.09h0c12.74,0,23.728.021,28.718.052h.038v.038c0,1-.017,1.766-.021,2.293v.585A.516.516,0,0,1,279.4,290.447Z" transform="translate(-201.318 -223.9)" fill="#263238"/>
      <path id="Path_2546" data-name="Path 2546" d="M265.756,278.57c0,.048-2.968.09-6.628.09s-6.628-.042-6.628-.09,2.968-.09,6.628-.09S265.756,278.518,265.756,278.57Z" transform="translate(-202.54 -218.173)" fill="#263238"/>
      <rect id="Rectangle_1203" data-name="Rectangle 1203" width="0.866" height="3.878" transform="translate(22.19 20.92)" fill="#fff"/>
      <rect id="Rectangle_1204" data-name="Rectangle 1204" width="0.866" height="3.878" transform="translate(20.684 23.292) rotate(-90)" fill="#fff"/>
      <path id="Path_2548" data-name="Path 2548" d="M170.569,164.149v-.319a1.07,1.07,0,0,0-.021-.135,2,2,0,0,0-.066-.346,3.245,3.245,0,0,0-2.528-2.365,3.293,3.293,0,0,0-2.1.326,3.138,3.138,0,0,0-.391.253,3.415,3.415,0,0,0-.346.308,4.04,4.04,0,0,0-.315.371,3.145,3.145,0,0,0-.457.883,3.21,3.21,0,0,0,0,2.019,3.054,3.054,0,0,0,.457.883,3.623,3.623,0,0,0,.315.371,3.056,3.056,0,0,0,.346.308,3.138,3.138,0,0,0,.391.253,2.8,2.8,0,0,0,.419.184,3.207,3.207,0,0,0,3.851-1.364,3.159,3.159,0,0,0,.346-.855,2.079,2.079,0,0,0,.066-.346,1.076,1.076,0,0,0,.021-.135v0a.41.41,0,0,1-.017.139,2.522,2.522,0,0,1-.062.346,3.116,3.116,0,0,1-.346.869,3.241,3.241,0,0,1-2.189,1.541,3.31,3.31,0,0,1-1.731-.135,4.188,4.188,0,0,1-.426-.187,4.129,4.129,0,0,1-.4-.256,4.566,4.566,0,0,1-.371-.315,3.673,3.673,0,0,1-.319-.377,3.05,3.05,0,0,1-.467-.9,3.224,3.224,0,0,1,0-2.078,3.05,3.05,0,0,1,.467-.9,3.742,3.742,0,0,1,.319-.377,3.5,3.5,0,0,1,.371-.315,3.058,3.058,0,0,1,.828-.443,3.249,3.249,0,0,1,3.906,1.406,3.117,3.117,0,0,1,.346.869,2.523,2.523,0,0,1,.062.346.345.345,0,0,0,.017.135v.27Z" transform="translate(-144.722 -141.28)" fill="#fff"/>
      <path id="Path_2654" data-name="Path 2654" d="M.3.44V-2.723H1.373A2.254,2.254,0,0,1,2.4-2.529a1.463,1.463,0,0,1,.6.57,1.586,1.586,0,0,1,.222.821,1.548,1.548,0,0,1-.122.608,1.535,1.535,0,0,1-.349.51,1.533,1.533,0,0,1-.537.342,1.6,1.6,0,0,1-.329.094A4.4,4.4,0,0,1,1.307.44Zm1.02-2.76H.758V.037h.581A2.321,2.321,0,0,0,1.867-.01a1.242,1.242,0,0,0,.314-.118A1.074,1.074,0,0,0,2.411-.3a1.173,1.173,0,0,0,.336-.859A1.087,1.087,0,0,0,2.4-1.995a1.1,1.1,0,0,0-.291-.2,1.218,1.218,0,0,0-.312-.1A3.171,3.171,0,0,0,1.325-2.319Zm3.4.673a1.088,1.088,0,0,1,.791.307,1.033,1.033,0,0,1,.315.772.982.982,0,0,1-.32.749,1.134,1.134,0,0,1-.805.3,1.088,1.088,0,0,1-.785-.3,1,1,0,0,1-.315-.756,1.013,1.013,0,0,1,.319-.763A1.11,1.11,0,0,1,4.724-1.646ZM4.7-1.274a.652.652,0,0,0-.488.2.681.681,0,0,0-.19.5.651.651,0,0,0,.2.489A.689.689,0,0,0,4.72.1a.678.678,0,0,0,.5-.192.661.661,0,0,0,.194-.491.655.655,0,0,0-.2-.492A.7.7,0,0,0,4.7-1.274ZM7.854-.043V.366a1.735,1.735,0,0,1-.608.116,1.058,1.058,0,0,1-.781-.29,1.049,1.049,0,0,1-.291-.778,1.112,1.112,0,0,1,.283-.794.976.976,0,0,1,.746-.3,1.248,1.248,0,0,1,.289.031,1.889,1.889,0,0,1,.316.115v.44a1.1,1.1,0,0,0-.581-.2.593.593,0,0,0-.458.2.713.713,0,0,0-.179.5.675.675,0,0,0,.194.508A.718.718,0,0,0,7.307.1,1.364,1.364,0,0,0,7.854-.043ZM8.03-1.31l.776-.762v.431h.66v.372h-.66V-.247q0,.358.3.358a.912.912,0,0,0,.469-.15V.347a1.042,1.042,0,0,1-.519.134A.688.688,0,0,1,8.581.316.472.472,0,0,1,8.484.2.6.6,0,0,1,8.419.04a1.833,1.833,0,0,1-.026-.384v-.925H8.03Zm2.837-.336a1.088,1.088,0,0,1,.791.307,1.033,1.033,0,0,1,.315.772.982.982,0,0,1-.32.749,1.134,1.134,0,0,1-.805.3,1.088,1.088,0,0,1-.785-.3,1,1,0,0,1-.315-.756,1.013,1.013,0,0,1,.319-.763A1.11,1.11,0,0,1,10.867-1.646Zm-.023.372a.652.652,0,0,0-.488.2.681.681,0,0,0-.19.5.651.651,0,0,0,.2.489.689.689,0,0,0,.5.189.678.678,0,0,0,.5-.192.661.661,0,0,0,.194-.491.655.655,0,0,0-.2-.492A.7.7,0,0,0,10.845-1.274Zm2.03-.367v.478L12.9-1.2q.3-.483.6-.483a.738.738,0,0,1,.488.236l-.218.363a.611.611,0,0,0-.4-.2.428.428,0,0,0-.346.19.719.719,0,0,0-.146.451V.445h-.415V-1.641Zm1.331.029V-1.7a.617.617,0,0,0,.143-.2.794.794,0,0,0,.048-.268.3.3,0,0,1-.24-.3.3.3,0,0,1,.083-.213.26.26,0,0,1,.2-.088.269.269,0,0,1,.227.122.521.521,0,0,1,.088.313.718.718,0,0,1-.145.446A.774.774,0,0,1,14.205-1.612ZM14.815.3V-.149a1.881,1.881,0,0,0,.357.2.833.833,0,0,0,.307.076A.384.384,0,0,0,15.7.062a.182.182,0,0,0,.093-.152.2.2,0,0,0-.06-.151,1.4,1.4,0,0,0-.26-.173,1.84,1.84,0,0,1-.523-.38.545.545,0,0,1-.124-.344.482.482,0,0,1,.187-.392.74.74,0,0,1,.482-.152,1.327,1.327,0,0,1,.628.172V-1.1a1.256,1.256,0,0,0-.6-.222.334.334,0,0,0-.194.051.157.157,0,0,0-.074.135A.194.194,0,0,0,15.324-1a1.149,1.149,0,0,0,.235.159l.147.084q.522.295.522.653a.52.52,0,0,1-.2.421.788.788,0,0,1-.516.164,1.258,1.258,0,0,1-.331-.04A2.229,2.229,0,0,1,14.815.3Zm3.592-1.937v.265a.83.83,0,0,1,.628-.306.692.692,0,0,1,.363.1.658.658,0,0,1,.255.277,1.323,1.323,0,0,1,.087.557V.445h-.413V-.743a.812.812,0,0,0-.1-.457.373.373,0,0,0-.327-.137.6.6,0,0,0-.5.293V.445h-.422V-1.641Zm2.907,0a1.088,1.088,0,0,1,.791.307,1.033,1.033,0,0,1,.315.772.982.982,0,0,1-.32.749,1.134,1.134,0,0,1-.805.3,1.088,1.088,0,0,1-.785-.3A1,1,0,0,1,20.2-.578a1.013,1.013,0,0,1,.319-.763A1.11,1.11,0,0,1,21.314-1.646Zm-.023.372a.652.652,0,0,0-.488.2.681.681,0,0,0-.19.5.651.651,0,0,0,.2.489.689.689,0,0,0,.5.189.678.678,0,0,0,.5-.192A.661.661,0,0,0,22-.587a.655.655,0,0,0-.2-.492A.7.7,0,0,0,21.291-1.274Zm1.295-.036.776-.762v.431h.66v.372h-.66V-.247q0,.358.3.358a.912.912,0,0,0,.469-.15V.347a1.042,1.042,0,0,1-.519.134.688.688,0,0,1-.472-.166A.471.471,0,0,1,23.04.2.6.6,0,0,1,22.975.04a1.833,1.833,0,0,1-.026-.384v-.925h-.363ZM26.2-.562H24.736a.681.681,0,0,0,.2.476.662.662,0,0,0,.477.177,1.242,1.242,0,0,0,.753-.254v.4a1.378,1.378,0,0,1-.378.181,1.579,1.579,0,0,1-.439.054.985.985,0,0,1-.558-.143,1.039,1.039,0,0,1-.341-.384,1.175,1.175,0,0,1-.128-.559,1.11,1.11,0,0,1,.27-.774.9.9,0,0,1,.7-.3.826.826,0,0,1,.662.29,1.16,1.16,0,0,1,.247.778ZM24.745-.809h1.05a.576.576,0,0,0-.147-.381.474.474,0,0,0-.354-.134.509.509,0,0,0-.364.134A.663.663,0,0,0,24.745-.809Z" transform="translate(32.054 24.339)" fill="#fff"/>
    </g>
    <g id="freepik--Floor--inject-4" transform="translate(24.943 181.119)">
      <path id="Path_2556" data-name="Path 2556" d="M179.888,469.54c0,.048-33.85.09-75.6.09s-75.6-.042-75.6-.09,33.843-.09,75.6-.09S179.888,469.488,179.888,469.54Z" transform="translate(-28.69 -469.45)" fill="#263238"/>
    </g>
    <g id="freepik--Shield--inject-4" transform="translate(23.101 31.173)">
      <path id="Path_2640" data-name="Path 2640" d="M83.81,49.927,71.2,45.28,58.711,49.865c-1.6.772-2.992,1.233-2.992,2.77v7.573a29.2,29.2,0,0,0,4.114,15.1A25.823,25.823,0,0,0,71.323,85.7c5.1-1.7,8.914-6.233,11.244-10.115a29.227,29.227,0,0,0,4.114-15.095V53.681A3.559,3.559,0,0,0,83.81,49.927Z" transform="translate(-44.517 -42.221)" fill="#257d79"/>
      <g id="Group_1953" data-name="Group 1953" transform="translate(11.202 3.059)" opacity="0.8">
        <path id="Path_2641" data-name="Path 2641" d="M83.81,49.927,71.2,45.28,58.711,49.865c-1.6.772-2.992,1.233-2.992,2.77v7.573a29.2,29.2,0,0,0,4.114,15.1A25.823,25.823,0,0,0,71.323,85.7c5.1-1.7,8.914-6.233,11.244-10.115a29.227,29.227,0,0,0,4.114-15.095V53.681A3.559,3.559,0,0,0,83.81,49.927Z" transform="translate(-55.719 -45.28)" fill="#fff"/>
      </g>
      <path id="Path_2642" data-name="Path 2642" d="M87.09,60.556,76.971,56.83,66.953,60.5c-1.281.62-2.4.99-2.4,2.213V68.8a23.43,23.43,0,0,0,3.3,12.12,20.7,20.7,0,0,0,9.218,8.353c4.093-1.364,7.151-5,9.021-8.114a23.461,23.461,0,0,0,3.3-12.12V63.569A2.856,2.856,0,0,0,87.09,60.556Z" transform="translate(-50.289 -49.771)" fill="#1e64cc"/>
      <path id="Path_2643" data-name="Path 2643" d="M93.62,86.553H87.671V80.6H84.253v5.953H78.3v3.418h5.953V95.92h3.418V89.971H93.62Z" transform="translate(-59.278 -65.31)" fill="#fff"/>
      <path id="Path_2644" data-name="Path 2644" d="M81.459,81.654s.055-.083.173-.239l.1-.128c.035-.052.062-.111.1-.173a2.673,2.673,0,0,0,.225-.447c.035-.09.076-.18.111-.28s.059-.211.09-.322a2.369,2.369,0,0,0,.073-.346,3.462,3.462,0,0,0,.055-.4,7.49,7.49,0,0,0-.087-1.908,17.19,17.19,0,0,0-1.759-4.955A38.559,38.559,0,0,0,76.774,66.6a59.965,59.965,0,0,0-5.617-6.309A69.006,69.006,0,0,0,63.784,54c-1.385-1.015-2.829-1.995-4.36-2.919a41.9,41.9,0,0,0-4.848-2.538,22.509,22.509,0,0,0-5.388-1.69,9.516,9.516,0,0,0-2.874-.069,5.274,5.274,0,0,0-1.385.4,3.463,3.463,0,0,0-1.88,2.105,5.378,5.378,0,0,0-.242,1.423,9.53,9.53,0,0,0,.4,2.85,22.54,22.54,0,0,0,2.289,5.163,42.647,42.647,0,0,0,3.075,4.523c1.094,1.416,2.234,2.746,3.4,4a69.055,69.055,0,0,0,7.106,6.6A59.942,59.942,0,0,0,66,78.7a38.439,38.439,0,0,0,6.233,3.075,17.169,17.169,0,0,0,5.108,1.181,7.414,7.414,0,0,0,1.908-.132,3.174,3.174,0,0,0,.388-.1,2.079,2.079,0,0,0,.346-.118l.312-.125c.094-.045.18-.1.263-.142a2.376,2.376,0,0,0,.419-.274c.059-.042.114-.08.159-.118l.118-.114c.142-.135.218-.2.218-.2l-.208.208-.118.118c-.045.038-.1.076-.159.121a2.58,2.58,0,0,1-.443.312l-.263.145-.312.128a2.181,2.181,0,0,1-.346.118,4.022,4.022,0,0,1-.391.1,7.594,7.594,0,0,1-1.915.142,17.19,17.19,0,0,1-5.129-1.167A38.463,38.463,0,0,1,65.917,78.8a60.308,60.308,0,0,1-6.926-4.848,68.805,68.805,0,0,1-7.113-6.614c-1.164-1.257-2.306-2.587-3.4-4.007A42.165,42.165,0,0,1,45.389,58.8a22.738,22.738,0,0,1-2.3-5.194,9.589,9.589,0,0,1-.4-2.881,5.52,5.52,0,0,1,.246-1.458,4.045,4.045,0,0,1,.741-1.292,4,4,0,0,1,1.2-.9,5.541,5.541,0,0,1,1.416-.412,9.624,9.624,0,0,1,2.909.073,22.783,22.783,0,0,1,5.416,1.7,42.354,42.354,0,0,1,4.848,2.549c1.534.928,2.989,1.912,4.367,2.926a69.2,69.2,0,0,1,7.4,6.327,60.319,60.319,0,0,1,5.613,6.33A38.161,38.161,0,0,1,80.6,72.453a17.11,17.11,0,0,1,1.731,4.962,7.542,7.542,0,0,1,.08,1.918,2.748,2.748,0,0,1-.059.4,2.808,2.808,0,0,1-.076.364c-.035.111-.066.222-.094.322a2.625,2.625,0,0,1-.114.28,2.85,2.85,0,0,1-.232.45c-.038.062-.069.121-.1.17l-.1.128Z" transform="translate(-35.998 -43.075)" fill="#1e64cc"/>
      <path id="Path_2645" data-name="Path 2645" d="M79.293,81.753a2.336,2.336,0,0,0-.028-.294V81.3a1.153,1.153,0,0,0-.042-.194,2.7,2.7,0,0,0-.132-.485c-.031-.087-.062-.184-.1-.284l-.145-.3a2.179,2.179,0,0,0-.187-.319,3.079,3.079,0,0,0-.222-.346A7.345,7.345,0,0,0,77.1,77.985a17.117,17.117,0,0,0-4.6-2.518A38.629,38.629,0,0,0,65.788,73.6a60.331,60.331,0,0,0-8.4-.938,68.747,68.747,0,0,0-9.7.211c-1.7.163-3.439.4-5.194.727a42.275,42.275,0,0,0-5.305,1.326,22.679,22.679,0,0,0-5.142,2.327,9.468,9.468,0,0,0-2.2,1.86,5.364,5.364,0,0,0-.769,1.226,3.463,3.463,0,0,0,0,2.822,5.364,5.364,0,0,0,.769,1.226,9.568,9.568,0,0,0,2.192,1.863,22.633,22.633,0,0,0,5.146,2.341,42.753,42.753,0,0,0,5.305,1.33c1.759.346,3.494.561,5.194.724a68.8,68.8,0,0,0,9.7.211,59.757,59.757,0,0,0,8.391-.97,38.995,38.995,0,0,0,6.715-1.863,17.145,17.145,0,0,0,4.6-2.549,7.345,7.345,0,0,0,1.337-1.385,3.751,3.751,0,0,0,.225-.346,2.5,2.5,0,0,0,.184-.319l.149-.3c.038-.1.069-.194.1-.284a2.7,2.7,0,0,0,.132-.485,1.064,1.064,0,0,1,.042-.194.85.85,0,0,0,0-.163c.017-.194.028-.294.028-.294v.461a1.123,1.123,0,0,1-.038.194,2.423,2.423,0,0,1-.128.488c-.031.09-.059.187-.1.287s-.093.2-.145.3a2.32,2.32,0,0,1-.184.322,3.74,3.74,0,0,1-.222.346,7.49,7.49,0,0,1-1.337,1.385,17.142,17.142,0,0,1-4.6,2.545,38.655,38.655,0,0,1-6.718,1.884,59.878,59.878,0,0,1-8.4.983,68.912,68.912,0,0,1-9.7-.2c-1.7-.159-3.446-.395-5.194-.724a41.9,41.9,0,0,1-5.319-1.33,22.7,22.7,0,0,1-5.174-2.337A9.582,9.582,0,0,1,29.8,84.43a5.54,5.54,0,0,1-.786-1.254,4.024,4.024,0,0,1-.308-1.458,3.955,3.955,0,0,1,.312-1.454,5.413,5.413,0,0,1,.786-1.254,9.651,9.651,0,0,1,2.175-1.846,22.748,22.748,0,0,1,5.17-2.337,42.2,42.2,0,0,1,5.319-1.333c1.763-.346,3.5-.561,5.194-.724a68.912,68.912,0,0,1,9.7-.2,59.293,59.293,0,0,1,8.4.987,38.394,38.394,0,0,1,6.749,1.877,17.141,17.141,0,0,1,4.6,2.542,7.491,7.491,0,0,1,1.337,1.385,3.741,3.741,0,0,1,.222.346,2.807,2.807,0,0,1,.184.322l.145.3c.042.1.069.194.1.284a2.5,2.5,0,0,1,.128.488,1.171,1.171,0,0,0,.038.2v.163C79.29,81.666,79.293,81.753,79.293,81.753Z" transform="translate(-26.861 -60.004)" fill="#257d79"/>
      <path id="Path_2646" data-name="Path 2646" d="M86.427,37.247l-.246-.159-.135-.1c-.052-.031-.114-.055-.177-.087a2.84,2.84,0,0,0-.464-.194l-.287-.093-.329-.066a2.306,2.306,0,0,0-.364-.048,3.657,3.657,0,0,0-.4-.028,7.535,7.535,0,0,0-1.9.218,17.134,17.134,0,0,0-4.807,2.078,38.532,38.532,0,0,0-5.586,4.156,59.6,59.6,0,0,0-5.911,6.074,68.306,68.306,0,0,0-5.773,7.792c-.914,1.444-1.794,2.961-2.611,4.55a41.854,41.854,0,0,0-2.213,5.007,22.557,22.557,0,0,0-1.316,5.492,9.523,9.523,0,0,0,.128,2.871,5.457,5.457,0,0,0,.5,1.357,3.487,3.487,0,0,0,2.23,1.731,5.305,5.305,0,0,0,1.441.142,9.5,9.5,0,0,0,2.812-.589,22.616,22.616,0,0,0,4.994-2.642,41.5,41.5,0,0,0,4.3-3.38c1.34-1.188,2.587-2.424,3.757-3.664a68.515,68.515,0,0,0,6.109-7.532,59.977,59.977,0,0,0,4.391-7.217,38.7,38.7,0,0,0,2.639-6.448,17.252,17.252,0,0,0,.824-5.177,7.48,7.48,0,0,0-.263-1.894c-.028-.135-.087-.256-.125-.381a2.483,2.483,0,0,0-.139-.346q-.076-.156-.145-.3c-.055-.09-.111-.173-.163-.253a2.525,2.525,0,0,0-.3-.4c-.045-.052-.087-.107-.128-.149l-.121-.111-.218-.2s.08.062.225.194l.125.107c.042.042.083.094.132.149a2.7,2.7,0,0,1,.308.4c.052.08.111.163.163.256s.1.194.149.3A2,2,0,0,1,87.67,39c.042.125.1.246.132.381a7.539,7.539,0,0,1,.274,1.9,17.183,17.183,0,0,1-.81,5.194,38.3,38.3,0,0,1-2.628,6.465,59.311,59.311,0,0,1-4.37,7.238,67.874,67.874,0,0,1-6.109,7.553c-1.17,1.25-2.424,2.483-3.761,3.674A42.16,42.16,0,0,1,66.086,74.8a22.467,22.467,0,0,1-5.018,2.656,9.554,9.554,0,0,1-2.847.6,5.562,5.562,0,0,1-1.472-.145,4.083,4.083,0,0,1-1.34-.651,4.02,4.02,0,0,1-.959-1.143,5.489,5.489,0,0,1-.509-1.385,9.537,9.537,0,0,1-.128-2.905,22.7,22.7,0,0,1,1.319-5.52,42.365,42.365,0,0,1,2.209-5.018c.821-1.6,1.7-3.117,2.618-4.557a68.566,68.566,0,0,1,5.79-7.8,59.692,59.692,0,0,1,5.929-6.039,38.092,38.092,0,0,1,5.606-4.156,17.02,17.02,0,0,1,4.848-2.078,7.4,7.4,0,0,1,1.908-.211,3.635,3.635,0,0,1,.4.031,2.4,2.4,0,0,1,.367.052l.346.069c.1.031.2.066.287.1a2.829,2.829,0,0,1,.464.2c.062.035.125.059.177.09l.135.093Z" transform="translate(-43.234 -36.446)" fill="#257d79"/>
      <path id="Path_2647" data-name="Path 2647" d="M24.973,128.866a.935.935,0,1,1-.665-.278.938.938,0,0,1,.665.278Z" transform="translate(-23.37 -96.68)" fill="#257d79"/>
      <path id="Path_2648" data-name="Path 2648" d="M177.457,43.588a.938.938,0,1,1-.938-.938A.938.938,0,0,1,177.457,43.588Z" transform="translate(-122.871 -40.502)" fill="#257d79"/>
      <path id="Path_2649" data-name="Path 2649" d="M44.178,137.849a.239.239,0,1,1-.239-.239A.239.239,0,0,1,44.178,137.849Z" transform="translate(-36.66 -102.578)" fill="#257d79"/>
      <path id="Path_2650" data-name="Path 2650" d="M58.888,61.869a.239.239,0,1,1-.239-.239A.239.239,0,0,1,58.888,61.869Z" transform="translate(-46.276 -52.909)" fill="#257d79"/>
      <path id="Path_2651" data-name="Path 2651" d="M166.428,98.8a.239.239,0,1,1-.239-.239A.239.239,0,0,1,166.428,98.8Z" transform="translate(-116.576 -77.05)" fill="#257d79"/>
      <path id="Path_2652" data-name="Path 2652" d="M176,66.675a.239.239,0,1,1-.239-.235.235.235,0,0,1,.239.235Z" transform="translate(-122.832 -56.053)" fill="#257d79"/>
    </g>
  </g>
</svg>
