<svg xmlns="http://www.w3.org/2000/svg" width="26.12" height="26.12" viewBox="0 0 26.12 26.12">
  <g id="Icon_feather-settings" data-name="Icon feather-settings" transform="translate(1 1)">
    <path id="Path_5145" data-name="Path 5145" d="M20.078,16.789A3.289,3.289,0,1,1,16.789,13.5,3.289,3.289,0,0,1,20.078,16.789Z" transform="translate(-4.729 -4.729)" fill="none" stroke="#1e64cc" stroke-linecap="round" stroke-linejoin="round" stroke-width="2"/>
    <path id="Path_5146" data-name="Path 5146" d="M21.673,16.849a1.809,1.809,0,0,0,.362,2l.066.066a2.194,2.194,0,1,1-3.1,3.1l-.066-.066a1.824,1.824,0,0,0-3.092,1.294v.186a2.193,2.193,0,0,1-4.385,0v-.1a1.809,1.809,0,0,0-1.184-1.656,1.809,1.809,0,0,0-2,.362L8.21,22.1a2.194,2.194,0,1,1-3.1-3.1l.066-.066A1.824,1.824,0,0,0,3.879,15.84H3.693a2.193,2.193,0,1,1,0-4.385h.1a1.809,1.809,0,0,0,1.656-1.184,1.809,1.809,0,0,0-.362-2L5.019,8.21a2.194,2.194,0,1,1,3.1-3.1l.066.066a1.809,1.809,0,0,0,2,.362h.088a1.809,1.809,0,0,0,1.1-1.656V3.693a2.193,2.193,0,0,1,4.385,0v.1a1.824,1.824,0,0,0,3.092,1.294l.066-.066a2.194,2.194,0,1,1,3.1,3.1l-.066.066a1.809,1.809,0,0,0-.362,2v.088a1.809,1.809,0,0,0,1.656,1.1h.186a2.193,2.193,0,1,1,0,4.385h-.1a1.809,1.809,0,0,0-1.656,1.1Z" transform="translate(-1.5 -1.5)" fill="none" stroke="#1e64cc" stroke-linecap="round" stroke-linejoin="round" stroke-width="2"/>
  </g>
</svg>
