<svg xmlns="http://www.w3.org/2000/svg" width="18" height="18" viewBox="0 0 18 18"><path d="M15,18a3,3,0,1,1,3-3A3.009,3.009,0,0,1,15,18Zm0-4.5A1.5,1.5,0,1,0,16.5,15,1.5,1.5,0,0,0,15,13.5Z" transform="translate(-6 -6)" fill="#fff"/><path d="M9.075,18a2.21,2.21,0,0,1-2.25-2.25.631.631,0,0,0-.3-.525.566.566,0,0,0-.6.075,2.335,2.335,0,0,1-3.225.075h0A2.159,2.159,0,0,1,2.025,13.8,2.043,2.043,0,0,1,2.7,12.225a.583.583,0,0,0,.15-.6.506.506,0,0,0-.45-.3H2.25a2.25,2.25,0,0,1,0-4.5.631.631,0,0,0,.525-.3.566.566,0,0,0-.075-.6A2.2,2.2,0,0,1,2.625,2.7a2.175,2.175,0,0,1,3.15,0,.661.661,0,0,0,.6.15c.075,0,.075,0,.15-.075A.412.412,0,0,0,6.75,2.4V2.25a2.25,2.25,0,0,1,4.5,0,.631.631,0,0,0,.3.525.444.444,0,0,0,.525-.075,2.327,2.327,0,0,1,1.65-.675h0A2.159,2.159,0,0,1,15.3,2.7h0a2.175,2.175,0,0,1,0,3.15.583.583,0,0,0-.15.6c0,.075,0,.075.075.15a.573.573,0,0,0,.375.15h.15a2.25,2.25,0,1,1,0,4.5.631.631,0,0,0-.525.3h0a.462.462,0,0,0,.075.525,2.335,2.335,0,0,1,.075,3.225,2.175,2.175,0,0,1-3.15,0,.583.583,0,0,0-.6-.15.506.506,0,0,0-.3.45v.15A2.256,2.256,0,0,1,9.075,18Zm-2.85-4.275a3.19,3.19,0,0,1,.825.15,2.058,2.058,0,0,1,1.275,1.8v.075a.75.75,0,1,0,1.5,0V15.6a1.876,1.876,0,0,1,1.2-1.8,2.094,2.094,0,0,1,2.175.375.775.775,0,0,0,.6.3h0a.743.743,0,0,0,.525-1.275,2.1,2.1,0,0,1-.45-2.25,1.949,1.949,0,0,1,1.8-1.2A.771.771,0,0,0,16.5,9a.709.709,0,0,0-.75-.75H15.6a1.876,1.876,0,0,1-1.8-1.2c0-.075-.075-.15-.075-.225a2.019,2.019,0,0,1,.45-2.025.757.757,0,0,0,.075-1.125h0a.681.681,0,0,0-.525-.225h0a.681.681,0,0,0-.525.225,2.1,2.1,0,0,1-2.25.45,1.949,1.949,0,0,1-1.2-1.8A.731.731,0,0,0,9,1.5a.709.709,0,0,0-.75.75V2.4a1.876,1.876,0,0,1-1.2,1.8c-.075,0-.15.075-.225.075A2.019,2.019,0,0,1,4.8,3.825.757.757,0,0,0,3.675,3.75a.725.725,0,0,0,0,1.05,2.1,2.1,0,0,1,.45,2.25,2.058,2.058,0,0,1-1.8,1.275H2.25a.75.75,0,0,0,0,1.5H2.4a1.876,1.876,0,0,1,1.8,1.2A2.094,2.094,0,0,1,3.825,13.2a.775.775,0,0,0-.3.6.681.681,0,0,0,.225.525h0a.725.725,0,0,0,1.05,0A1.986,1.986,0,0,1,6.225,13.725ZM14.55,11.25Z" fill="#fff"/></svg>