<svg xmlns="http://www.w3.org/2000/svg" width="341.424" height="349.253" viewBox="0 0 341.424 349.253"><g transform="translate(-56.11 -30.887)"><g transform="translate(56.11 360.207)"><ellipse cx="170.712" cy="9.967" rx="170.712" ry="9.967" fill="#f5f5f5"/></g><g transform="translate(106.055 30.887)"><circle cx="18.12" cy="18.12" r="18.12" transform="translate(102.295 1.802) rotate(-2.85)" fill="#0e58c7"/><path d="M252.429,50.934l-4.517,2.228-3.812-7.73,1.611-2.421,2.906.194Z" transform="translate(-128.528 -32.337)" fill="#fff"/><path d="M246.049,43.742a.449.449,0,0,1-.4-.238l-2.659-5.45a.441.441,0,0,1,.792-.387l2.641,5.441a.44.44,0,0,1-.2.59.37.37,0,0,1-.176.044Z" transform="translate(-128.39 -31.668)" fill="#fff"/><path d="M255.838,57.862,253.2,52.5l-4.517,2.228,2.641,5.362-1.514.748.308.616,7.537-3.724-.3-.616Z" transform="translate(-129.075 -33.471)" fill="#fff" opacity="0.4"/><path d="M256.735,62.37l-4.543-9.21L250,54.234l4.543,9.21-.74.37.317.625,3.654-1.8L257.466,62Z" transform="translate(-129.233 -33.55)" fill="#fff"/><path d="M343.367,85.376a18.12,18.12,0,1,1-4.041-25.3A18.12,18.12,0,0,1,343.367,85.376Z" transform="translate(-136.474 -33.964)" fill="#0e58c7"/><path d="M337.6,66.662l-3.39,4.675a.141.141,0,0,1-.229,0c-.335-.572-1.083-2.562,3.443-4.869a.141.141,0,0,1,.176.194Z" transform="translate(-139.242 -35.14)" fill="#fff"/><path d="M327.591,85.744a.466.466,0,0,1-.211-.053.431.431,0,0,1-.167-.6l6.683-12.053a.766.766,0,0,0,0-.8l-.616-.88a.431.431,0,0,1,.114-.608.44.44,0,0,1,.608.106l.616.88A1.646,1.646,0,0,1,334.7,73.5l-6.692,12.062A.44.44,0,0,1,327.591,85.744Z" transform="translate(-138.456 -35.643)" fill="#fff"/><path d="M329.362,91.077a2.7,2.7,0,1,1,.423,0A2.281,2.281,0,0,1,329.362,91.077Zm0-4.455a1.612,1.612,0,0,0-.291,0,1.8,1.8,0,1,0,1.734,2.817h0a1.761,1.761,0,0,0-1.444-2.835Z" transform="translate(-138.422 -37.437)" fill="#fff"/><path d="M338.536,67.307l-3.39,4.675a.132.132,0,0,0,.07.211c.652.15,2.782.229,3.522-4.79a.132.132,0,0,0-.2-.1Z" transform="translate(-139.408 -35.239)" fill="#fff"/><path d="M322.611,82.636a.429.429,0,0,1-.3-.74l9.394-10.116a1.629,1.629,0,0,1,1.664-.449l1.03.308a.431.431,0,0,1,.3.546.44.44,0,0,1-.546.291l-1.03-.308a.766.766,0,0,0-.775.211l-9.447,10.1A.458.458,0,0,1,322.611,82.636Z" transform="translate(-137.862 -35.714)" fill="#fff"/><path d="M320.246,84.5a2.664,2.664,0,0,1-2.157-4.244h0A2.685,2.685,0,0,1,319.85,79.2a2.67,2.67,0,1,1,.836,5.274,3.417,3.417,0,0,1-.44.035Zm0-4.464a1.621,1.621,0,0,0-.291,0,1.761,1.761,0,0,0-1.127.74h0a1.786,1.786,0,1,0,1.426-.74Zm-1.814.484Z" transform="translate(-137.311 -36.658)" fill="#fff"/><circle cx="18.12" cy="18.12" r="18.12" transform="matrix(0.97, -0.244, 0.244, 0.97, 210.56, 89.892)" fill="#0e58c7"/><path d="M386.774,144.331l-3.883,12.326a2.721,2.721,0,0,1-3.39,1.761l-14.6-4.6a2.7,2.7,0,0,1-1.761-3.39l4.6-14.589a2.7,2.7,0,0,1,3.39-1.761l12.326,3.883-.7,2.254a2.7,2.7,0,0,0,1.761,3.39Z" transform="translate(-142.743 -43.209)" fill="#fff" opacity="0.5"/><path d="M385.564,144.093l-3.883,12.326a1.241,1.241,0,0,1-1.55.81l-14.589-4.543a1.25,1.25,0,0,1-.81-1.55l4.631-14.633a1.233,1.233,0,0,1,1.55-.8l12.326,3.883-.264.88a2.7,2.7,0,0,0,1.761,3.39Z" transform="translate(-142.942 -43.41)" fill="#fff" opacity="0.5"/><path d="M377.6,148.062a.775.775,0,1,1-.5-.977.784.784,0,0,1,.5.977Z" transform="translate(-144.307 -44.774)" fill="#fff" opacity="0.5"/><path d="M376.7,150.952a.775.775,0,0,1-.977.511.792.792,0,0,1-.511-.977.784.784,0,0,1,1.488.467Z" transform="translate(-144.198 -45.128)" fill="#fff" opacity="0.5"/><path d="M378.515,145.182a.775.775,0,1,1-.048-.593A.775.775,0,0,1,378.515,145.182Z" transform="translate(-144.415 -44.429)" fill="#fff" opacity="0.5"/><path d="M380.494,148.972a.778.778,0,1,1-.511-.977.784.784,0,0,1,.511.977Z" transform="translate(-144.651 -44.882)" fill="#fff" opacity="0.5"/><path d="M379.584,151.863a.776.776,0,1,1-.506-.973A.776.776,0,0,1,379.584,151.863Z" transform="translate(-144.543 -45.229)" fill="#fff" opacity="0.5"/><path d="M381.4,146.092a.775.775,0,0,1-.977.511.792.792,0,0,1-.511-.977.784.784,0,0,1,1.488.467Z" transform="translate(-144.76 -44.547)" fill="#fff" opacity="0.5"/><path d="M383.376,149.86a.775.775,0,1,1-.155-.777A.775.775,0,0,1,383.376,149.86Z" transform="translate(-144.997 -44.986)" fill="#fff" opacity="0.5"/><path d="M382.465,152.762a.775.775,0,1,1-.5-.977.784.784,0,0,1,.5.977Z" transform="translate(-144.888 -45.335)" fill="#fff" opacity="0.5"/><path d="M384.285,146.993a.775.775,0,1,1-.511-.977A.784.784,0,0,1,384.285,146.993Z" transform="translate(-145.105 -44.646)" fill="#fff" opacity="0.5"/><path d="M374.725,147.153a.775.775,0,1,1-.511-.977.784.784,0,0,1,.511.977Z" transform="translate(-143.962 -44.665)" fill="#fff" opacity="0.5"/><path d="M373.795,150.042a.775.775,0,1,1-.048-.593.775.775,0,0,1,.048.593Z" transform="translate(-143.851 -45.01)" fill="#fff" opacity="0.5"/><path d="M375.634,144.272a.778.778,0,1,1-.511-.977A.784.784,0,0,1,375.634,144.272Z" transform="translate(-144.07 -44.321)" fill="#fff" opacity="0.5"/><path d="M371.844,146.252a.775.775,0,0,1-.977.511.792.792,0,0,1-.511-.977.784.784,0,0,1,1.488.467Z" transform="translate(-143.617 -44.566)" fill="#fff" opacity="0.5"/><path d="M370.934,149.132a.778.778,0,1,1-.511-.977.784.784,0,0,1,.511.977Z" transform="translate(-143.508 -44.902)" fill="#fff" opacity="0.5"/><path d="M372.795,143.362a.775.775,0,1,1-.5-.977.784.784,0,0,1,.5.977Z" transform="translate(-143.732 -44.212)" fill="#fff" opacity="0.5"/><path d="M386.117,138.52l-.713,2.254a2.721,2.721,0,0,0,1.761,3.39l2.254.713Z" transform="translate(-145.405 -43.754)" fill="#fff"/><circle cx="18.12" cy="18.12" r="18.12" transform="translate(29.287 38.107) rotate(-22.5)" fill="#0e58c7"/><g transform="translate(40.918 35.863)" opacity="0.4"><path d="M171.363,71.62a12.045,12.045,0,1,0,8.526,3.528,12.053,12.053,0,0,0-8.526-3.528Zm0,21.219a9.174,9.174,0,1,1,9.157-9.166A9.174,9.174,0,0,1,171.363,92.839Z" transform="translate(-159.31 -71.62)" fill="#fff"/></g><g transform="translate(42.987 37.959)" opacity="0.4"><path d="M171.644,74a9.984,9.984,0,1,0,9.984,9.984A9.984,9.984,0,0,0,171.644,74Zm0,19.15a9.173,9.173,0,1,0,0-.026Z" transform="translate(-161.66 -74)" fill="#fff"/></g><circle cx="18.12" cy="18.12" r="18.12" transform="translate(202.583 191.601) rotate(-80.59)" fill="#0e58c7"/><rect width="22.645" height="10.125" rx="1.58" transform="translate(220.957 164.537) rotate(54.41)" fill="#fff" opacity="0.7"/><path d="M369.383,230.95a1.382,1.382,0,1,1,.317-1.928A1.382,1.382,0,0,1,369.383,230.95Z" transform="translate(-143.243 -54.504)" fill="#fff"/><path d="M365.053,234.05a1.374,1.374,0,1,1,.561-.9,1.382,1.382,0,0,1-.561.9Z" transform="translate(-142.725 -54.874)" fill="#fff"/><path d="M372.093,234.74a1.382,1.382,0,1,1,.317-1.928A1.382,1.382,0,0,1,372.093,234.74Z" transform="translate(-143.567 -54.957)" fill="#fff"/><path d="M367.765,237.832a1.374,1.374,0,1,1,.557-.894,1.374,1.374,0,0,1-.557.894Z" transform="translate(-143.051 -55.328)" fill="#fff"/><path d="M374.8,238.52a1.382,1.382,0,1,1,.317-1.919,1.382,1.382,0,0,1-.317,1.919Z" transform="translate(-143.89 -55.409)" fill="#fff"/><path d="M370.473,241.66a1.382,1.382,0,1,1,.317-1.928,1.382,1.382,0,0,1-.317,1.928Z" transform="translate(-143.373 -55.784)" fill="#fff"/><path d="M366.705,227.162a1.374,1.374,0,1,1,.317-1.919,1.374,1.374,0,0,1-.317,1.919Z" transform="translate(-142.925 -54.053)" fill="#fff"/><path d="M362.342,230.26a1.382,1.382,0,1,1,.317-1.919,1.365,1.365,0,0,1-.317,1.919Z" transform="translate(-142.401 -54.422)" fill="#fff"/><path d="M363.963,223.38a1.382,1.382,0,1,1,.317-1.928A1.382,1.382,0,0,1,363.963,223.38Z" transform="translate(-142.595 -53.599)" fill="#fff"/><path d="M359.635,226.472a1.365,1.365,0,1,1,.561-.893A1.374,1.374,0,0,1,359.635,226.472Z" transform="translate(-142.08 -53.97)" fill="#fff"/><path d="M162.592,253.973a18.12,18.12,0,1,1,6.5-12.268A18.12,18.12,0,0,1,162.592,253.973Z" transform="translate(-115.238 -53.72)" fill="#0e58c7"/><path d="M142.037,249.625h0a1.083,1.083,0,0,1,.141-1.514l18.49-15.285a1.074,1.074,0,0,1,1.514.141h0a1.074,1.074,0,0,1-.141,1.514l-18.49,15.285a1.074,1.074,0,0,1-1.514-.141Z" transform="translate(-116.298 -54.998)" fill="#fff" opacity="0.6"/><path d="M161.467,235.546h0a.722.722,0,0,1,.1-1.021l1.444-1.2a.731.731,0,0,1,1.021.1h0a.74.74,0,0,1-.1,1.021l-1.453,1.215a.713.713,0,0,1-1.013-.114Z" transform="translate(-118.63 -55.068)" fill="#fff" opacity="0.6"/><path d="M143.861,248.533h0a.247.247,0,0,1,0-.343l10.328-8.549a.247.247,0,0,1,.343,0h0a.246.246,0,0,1,0,.343L144.2,248.533A.247.247,0,0,1,143.861,248.533Z" transform="translate(-116.537 -55.834)" fill="#fff" opacity="0.6"/><circle cx="18.12" cy="18.12" r="18.12" transform="translate(0 130.952) rotate(-86.46)" fill="#0e58c7"/><rect width="23.667" height="18.877" rx="2.1" transform="matrix(0.98, -0.199, 0.199, 0.98, 5.741, 107.08)" fill="#fff" opacity="0.4"/><path d="M120.36,156.92l2.492,12.247a1.858,1.858,0,0,0,2.184,1.444l19.564-3.98a1.849,1.849,0,0,0,1.444-2.175l-2.492-12.247Z" transform="translate(-113.736 -45.391)" fill="#fff"/><rect width="2.95" height="2.421" transform="matrix(0.98, -0.199, 0.199, 0.98, 19.896, 110.939)" fill="#0e58c7" opacity="0.2"/><rect width="2.95" height="2.421" transform="matrix(0.98, -0.199, 0.199, 0.98, 20.617, 114.493)" fill="#0e58c7" opacity="0.2"/><rect width="2.95" height="2.421" transform="matrix(0.98, -0.199, 0.199, 0.98, 25.285, 109.844)" fill="#0e58c7" opacity="0.2"/><rect width="2.95" height="2.421" transform="matrix(0.98, -0.199, 0.199, 0.98, 25.997, 113.406)" fill="#0e58c7" opacity="0.2"/><rect width="2.95" height="2.421" transform="matrix(0.98, -0.199, 0.199, 0.98, 14.508, 112.026)" fill="#0e58c7" opacity="0.2"/><rect width="2.95" height="2.421" transform="matrix(0.98, -0.199, 0.199, 0.98, 15.23, 115.597)" fill="#0e58c7" opacity="0.2"/><rect width="2.95" height="2.421" transform="matrix(0.98, -0.199, 0.199, 0.98, 9.121, 113.13)" fill="#0e58c7" opacity="0.2"/><rect width="2.95" height="2.421" transform="matrix(0.98, -0.199, 0.199, 0.98, 9.841, 116.684)" fill="#0e58c7" opacity="0.2"/><rect width="2.95" height="2.421" transform="matrix(0.98, -0.199, 0.199, 0.98, 21.338, 118.055)" fill="#0e58c7" opacity="0.2"/><rect width="2.95" height="2.421" transform="matrix(0.98, -0.199, 0.199, 0.98, 26.735, 116.958)" fill="#0e58c7" opacity="0.2"/><rect width="2.95" height="2.421" transform="matrix(0.98, -0.199, 0.199, 0.98, 15.942, 119.159)" fill="#0e58c7" opacity="0.2"/><rect width="2.95" height="2.421" transform="matrix(0.98, -0.199, 0.199, 0.98, 10.553, 120.246)" fill="#0e58c7" opacity="0.2"/></g><g transform="translate(173.984 111.883)"><path d="M288.206,126.206c11.657-.652,18.49,10.75,11.728,18.005s-1.955,10.821.766,12.142c-2.976,8.576-26.8,9.755-31.855,2.518-4.244-6.075,12.326-13.894,8.329-20.523S279.137,126.021,288.206,126.206Z" transform="translate(-199.331 -123.274)" fill="#263238"/><path d="M210.8,183.668l1.638,1.84a2.861,2.861,0,0,0,2.448.951l4.305-.458a5.362,5.362,0,0,0,4.1-2.7l.519-.933c-2.5-3.24-7.6-4.9-7.6-4.9l-1.4-.634a2.386,2.386,0,0,0-3.2,1.118l-1.294,2.756A2.747,2.747,0,0,0,210.8,183.668Z" transform="translate(-192.39 -129.3)" fill="#ffb573"/><path d="M266.648,183.091c-.942,1.057-1.761,1.972-2.7,2.932s-1.8,1.867-2.721,2.791c-1.84,1.84-3.7,3.663-5.635,5.424a82.524,82.524,0,0,1-12.811,9.905h-.044a3.52,3.52,0,0,1-.352.194,8.928,8.928,0,0,1-4.121.88,10.882,10.882,0,0,1-3.143-.608,17.161,17.161,0,0,1-4.112-2.14,39.619,39.619,0,0,1-5.591-4.851c-1.638-1.655-3.143-3.346-4.578-5.071s-2.809-3.407-4.217-5.283l8.717-6.207c1.092,1.532,2.368,3.214,3.627,4.737s2.641,3.02,3.971,4.4a29.159,29.159,0,0,0,4.085,3.434,6.858,6.858,0,0,0,1.532.792c.132.044.158,0,0,0a2.086,2.086,0,0,0-1.03.229l-.4.211a54.85,54.85,0,0,0,5.388-4.05c1.761-1.5,3.522-3.126,5.186-4.816s3.337-3.443,4.939-5.239c.792-.88,1.585-1.814,2.36-2.738s1.558-1.875,2.228-2.729Z" transform="translate(-193.172 -129.145)" fill="#0e58c7"/><path d="M266.648,183.091c-.942,1.057-1.761,1.972-2.7,2.932s-1.8,1.867-2.721,2.791c-1.84,1.84-3.7,3.663-5.635,5.424a82.524,82.524,0,0,1-12.811,9.905h-.044a3.52,3.52,0,0,1-.352.194,8.928,8.928,0,0,1-4.121.88,10.882,10.882,0,0,1-3.143-.608,17.161,17.161,0,0,1-4.112-2.14,39.619,39.619,0,0,1-5.591-4.851c-1.638-1.655-3.143-3.346-4.578-5.071s-2.809-3.407-4.217-5.283l8.717-6.207c1.092,1.532,2.368,3.214,3.627,4.737s2.641,3.02,3.971,4.4a29.159,29.159,0,0,0,4.085,3.434,6.858,6.858,0,0,0,1.532.792c.132.044.158,0,0,0a2.086,2.086,0,0,0-1.03.229l-.4.211a54.85,54.85,0,0,0,5.388-4.05c1.761-1.5,3.522-3.126,5.186-4.816s3.337-3.443,4.939-5.239c.792-.88,1.585-1.814,2.36-2.738s1.558-1.875,2.228-2.729Z" transform="translate(-193.172 -129.145)" fill="#fff" opacity="0.7"/><path d="M296.743,415.1c6.163,0,5.688-.1,9.13-.211,2.95-.106,3.645.264,6,.211,1.981-.044,1.955-1.937,1.409-4.112-.282-1.092-.713-2.43-1.092-4.2h-9.3a9.562,9.562,0,0,1-7.352,4.684C292.217,411.914,294.3,415.1,296.743,415.1Z" transform="translate(-202.401 -156.819)" fill="#0e58c7"/><path d="M244.361,415.1c6.014,0,8.039-.4,11.446-.511,2.905-.106,3.355.511,6.3.511,1.946,0,2.316-2.192,1.682-3.839a25.269,25.269,0,0,1-1.682-4.473h-8.3c-1.62,2.641-5.785,4.578-10.363,4.9C240.135,411.932,241.957,415.1,244.361,415.1Z" transform="translate(-196.163 -156.819)" fill="#0e58c7"/><path d="M260.712,230s-3.222,43.283-1.946,70.771c-1.374,25.806-3.346,84.9-3.346,84.9.141,1.321,7.088.792,8.3,0,0,0,14.968-43.046,11.182-84.9C291.351,257.1,289.511,230,289.511,230Z" transform="translate(-197.81 -135.685)" fill="#263238"/><path d="M271.24,230s12.775,48.857,17.847,72.849c5.336,25.19,12.538,66.087,11.111,82.825,1.409.836,6.454.88,9.3,0,0,0,10.979-57.459-2.87-81.715C311.468,244.272,295.646,230,295.646,230Z" transform="translate(-199.701 -135.685)" fill="#263238"/><path d="M303.38,402.716a25.171,25.171,0,0,1-.414,3.443.687.687,0,0,0,.572.88c3.39.546,8.338-.246,9.905-.528a.722.722,0,0,0,.59-.59l.6-3.214a.7.7,0,0,0-.7-.828l-9.835.185A.731.731,0,0,0,303.38,402.716Z" transform="translate(-203.49 -156.232)" fill="#263238"/><path d="M303.38,402.716a25.171,25.171,0,0,1-.414,3.443.687.687,0,0,0,.572.88c3.39.546,8.338-.246,9.905-.528a.722.722,0,0,0,.59-.59l.6-3.214a.7.7,0,0,0-.7-.828l-9.835.185A.731.731,0,0,0,303.38,402.716Z" transform="translate(-203.49 -156.232)" fill="#fff" opacity="0.1"/><path d="M254.494,402.572c-.07.88-.194,2.492-.335,3.672a.713.713,0,0,0,.616.792,49.308,49.308,0,0,0,9.166-.106.713.713,0,0,0,.643-.537l.766-3.214a.722.722,0,0,0-.669-.88l-9.43-.37a.7.7,0,0,0-.757.643Z" transform="translate(-197.659 -156.238)" fill="#263238"/><path d="M254.494,402.572c-.07.88-.194,2.492-.335,3.672a.713.713,0,0,0,.616.792,49.308,49.308,0,0,0,9.166-.106.713.713,0,0,0,.643-.537l.766-3.214a.722.722,0,0,0-.669-.88l-9.43-.37a.7.7,0,0,0-.757.643Z" transform="translate(-197.659 -156.238)" fill="#fff" opacity="0.1"/><path d="M259.3,184.083a147.313,147.313,0,0,0,.211,15.117c.255,6.568.7,13.022,1.655,23.772h33.079c-.66-9.315.423-19.916,6.357-40.862A7.713,7.713,0,0,0,294,172.092c-1.312-.132-2.694-.238-4.121-.308a103.962,103.962,0,0,0-14.968,0c-1.638.15-3.319.352-4.939.572A12.432,12.432,0,0,0,259.3,184.083Z" transform="translate(-198.261 -128.694)" fill="#fff"/><path d="M290.7,152.65c-1.3,4.825-2.905,13.673.229,16.9,0,0-4.57-.687-14.281,5.283-2.809-4.032-.722-5.283-.722-5.283,5.476-1.285,5.635-5.283,4.983-9.033Z" transform="translate(-200.173 -126.439)" fill="#ffb573"/><path d="M279.17,175.722c1.823,1.215,2.641,5.934,2.641,5.934s12.08-4.57,11.64-9.905a30.955,30.955,0,0,1-2.809-1.761S281.037,173.882,279.17,175.722Z" transform="translate(-200.649 -128.512)" fill="#0e58c7"/><path d="M275.181,175.364a20.69,20.69,0,0,0-2,5.283c-4.851-4.006.792-8.866.792-8.866a4.094,4.094,0,0,1,2.888-.414,3.416,3.416,0,0,0-1.682,4Z" transform="translate(-199.698 -128.664)" fill="#0e58c7"/><path d="M287.492,156.29l-5.8,4.658a15.288,15.288,0,0,1,.264,2.641c2.078-.3,5.071-2.553,5.45-4.7A7.3,7.3,0,0,0,287.492,156.29Z" transform="translate(-200.951 -126.874)" opacity="0.2"/><path d="M294.336,139.982c-1.462,7.792-1.919,11.111-6.366,14.853-6.691,5.626-15.848,2.641-16.729-5.283-.784-7.149,1.761-18.7,9.773-21.272a10.152,10.152,0,0,1,13.321,11.7Z" transform="translate(-199.685 -123.456)" fill="#ffb573"/><path d="M291.005,130.035c-2.368,6.3,2.7,10.055,3.83,15.5C300.708,141.64,301.122,125.334,291.005,130.035Z" transform="translate(-201.99 -123.635)" fill="#263238"/><path d="M292.258,141.558a1.391,1.391,0,0,1-.625-.15,1.347,1.347,0,0,1-.643-.836,1.382,1.382,0,0,1,.079-1.057,1.4,1.4,0,0,1,.8-.687l4.121-1.338a1.392,1.392,0,1,1,.88,2.641h0l-4.191,1.321a1.417,1.417,0,0,1-.423.106Zm4.121-3.663a.88.88,0,0,0-.291.053l-4.121,1.338a.94.94,0,0,0,.581,1.787l4.121-1.347a.933.933,0,0,0,.6-1.18.841.841,0,0,0-.889-.616ZM296.74,139.938Z" transform="translate(-202.054 -124.618)" fill="#fff"/><path d="M283.26,142.95c-.1.66-.511,1.171-.933,1.136s-.687-.59-.6-1.25.519-1.171.942-1.136S283.357,142.29,283.26,142.95Z" transform="translate(-200.953 -125.13)" fill="#263238"/><path d="M274.219,142.42c-.1.66-.519,1.171-.942,1.136s-.687-.59-.59-1.25.511-1.171.933-1.136S274.307,141.76,274.219,142.42Z" transform="translate(-199.872 -125.066)" fill="#263238"/><path d="M273.8,141.143l-1.488-.563S272.918,141.874,273.8,141.143Z" transform="translate(-199.829 -124.996)" fill="#263238"/><path d="M276.374,144a19.591,19.591,0,0,1-2.914,4.041,2.641,2.641,0,0,0,2.245.608Z" transform="translate(-199.967 -125.405)" fill="#ed893e"/><path d="M279.659,152.06a6.491,6.491,0,0,1-1.1,0,.176.176,0,0,1-.158-.211.211.211,0,0,1,.22-.176,5.529,5.529,0,0,0,4.464-1.761.185.185,0,0,1,.273,0,.194.194,0,0,1,0,.273,5.864,5.864,0,0,1-3.7,1.875Z" transform="translate(-200.557 -126.104)" fill="#263238"/><path d="M297.731,148.493a5.432,5.432,0,0,1-3.707,2.377c-1.867.211-2.342-1.963-1.435-3.927.819-1.761,2.765-4.006,4.455-3.3S298.9,146.82,297.731,148.493Z" transform="translate(-202.2 -125.346)" fill="#ffb573"/><path d="M296.874,151.972a1.9,1.9,0,1,1-1.9-1.9,1.9,1.9,0,0,1,1.9,1.9Z" transform="translate(-202.311 -126.13)" fill="#fff"/><path d="M285.822,138.513a.361.361,0,0,1-.264-.123,2.879,2.879,0,0,0-2.527-.969.361.361,0,0,1-.431-.3.423.423,0,0,1,.335-.458,3.522,3.522,0,0,1,3.2,1.189.387.387,0,0,1-.044.546A.467.467,0,0,1,285.822,138.513Z" transform="translate(-201.059 -124.523)" fill="#263238"/><path d="M271.834,137.857a.379.379,0,0,1-.273-.07.387.387,0,0,1-.053-.546,4.1,4.1,0,0,1,3.187-1.69.352.352,0,0,1,.335.405.414.414,0,0,1-.423.37A3.284,3.284,0,0,0,272.1,137.7.44.44,0,0,1,271.834,137.857Z" transform="translate(-199.723 -124.395)" fill="#263238"/><path d="M282.8,141.682l-1.488-.572S281.918,142.4,282.8,141.682Z" transform="translate(-200.905 -125.059)" fill="#263238"/><path d="M294.419,170c-3.672,2.518-8.584,29.6-9.993,69.891a528.272,528.272,0,0,0,2.492,72.955S303,295.166,313.05,289.953c.194-37.6-7.81-63.278-6.885-72.77s6.163-35.738,2.14-40.668S294.419,170,294.419,170Z" transform="translate(-201.239 -128.513)" fill="#0e58c7"/><path d="M294.419,170c-3.672,2.518-8.584,29.6-9.993,69.891a528.272,528.272,0,0,0,2.492,72.955S303,295.166,313.05,289.953c.194-37.6-7.81-63.278-6.885-72.77s6.163-35.738,2.14-40.668S294.419,170,294.419,170Z" transform="translate(-201.239 -128.513)" fill="#fff" opacity="0.8"/><path d="M272.369,171.527c-4.279,6.348-13.744,85.4-4.816,141.463-7.044-3.909-12.141-14.7-12.141-14.7s-.7-48.795,2.641-75.3C257.366,191.875,253.669,170.8,272.369,171.527Z" transform="translate(-197.802 -128.693)" fill="#0e58c7"/><path d="M272.369,171.527c-4.279,6.348-13.744,85.4-4.816,141.463-7.044-3.909-12.141-14.7-12.141-14.7s-.7-48.795,2.641-75.3C257.366,191.875,253.669,170.8,272.369,171.527Z" transform="translate(-197.802 -128.693)" fill="#fff" opacity="0.8"/><path d="M284.3,226.594a143.149,143.149,0,0,1-6.014-13.013c-2.712-6.85-4.878-14.968-4.878-14.968s-20.532-.775-24.353,1.541C251.3,208.862,261,229.869,261,229.869S276.521,229.6,284.3,226.594Z" transform="translate(-197.05 -131.918)" fill="#e0e0e0"/><path d="M262.854,231.121l18.666-.563c1.875-.053,2.844-1.426,2.139-3.046l-11.772-27.127a5.283,5.283,0,0,0-4.693-2.844l-18.666.564c-1.875.053-2.835,1.426-2.131,3.046l11.772,27.127A5.283,5.283,0,0,0,262.854,231.121Z" transform="translate(-196.704 -131.805)" fill="#0e58c7"/><path d="M261.718,232.311a5.529,5.529,0,0,1-4.772-2.976l-11.781-27.127a2.342,2.342,0,0,1,.07-2.245,2.641,2.641,0,0,1,2.263-1.109l18.657-.563a5.529,5.529,0,0,1,4.9,2.976l11.789,27.127a2.386,2.386,0,0,1-.07,2.254,2.641,2.641,0,0,1-2.263,1.1l-18.666.563Zm.114-.44h0l18.666-.563a2.245,2.245,0,0,0,1.893-.88,1.928,1.928,0,0,0,0-1.84L270.62,201.46a5,5,0,0,0-4.482-2.712l-18.666.563a2.263,2.263,0,0,0-1.9.88,1.937,1.937,0,0,0,0,1.84l11.745,27.127a5.027,5.027,0,0,0,4.508,2.712Z" transform="translate(-196.554 -131.895)" fill="#fff"/><path d="M276.347,212.443l2.21-1.083a2.888,2.888,0,0,1,2.641.053l3.8,2.069a5.283,5.283,0,0,1,2.756,4.059l.132,1.065c-3.522,2.043-8.893,1.638-8.893,1.638l-1.541.053a2.386,2.386,0,0,1-2.536-2.263L274.78,215a2.729,2.729,0,0,1,1.567-2.553Z" transform="translate(-200.124 -133.422)" fill="#ffb573"/><path d="M303.714,189.09c-.74,12.1-.784,23.174,2.448,25.04C309.948,210.406,309.675,205.194,303.714,189.09Z" transform="translate(-203.534 -130.795)" fill="#0e58c7" opacity="0.2"/><path d="M309.719,179.39c.475,1.356.88,2.562,1.241,3.839s.757,2.518,1.109,3.786c.7,2.536,1.382,5.08,1.955,7.669a74.916,74.916,0,0,1,2.1,16.332,3,3,0,0,1,0,.4v.053a8.144,8.144,0,0,1-1.9,4.508,9.491,9.491,0,0,1-2.914,2.263,15.849,15.849,0,0,1-4.622,1.462,40.238,40.238,0,0,1-7.457.44c-2.351,0-4.622-.185-6.876-.4s-4.446-.449-6.8-.8l1.761-10.565c1.9.317,4.015.608,6.022.81s4.05.308,6,.326a29.866,29.866,0,0,0,5.415-.4,6.03,6.03,0,0,0,1.514-.467c.062,0-.07,0-.37.317a2.9,2.9,0,0,0-.669,1.576V211a50.347,50.347,0,0,0-.731-6.665c-.4-2.289-.96-4.614-1.576-6.92s-1.338-4.622-2.122-6.912c-.4-1.145-.8-2.289-1.233-3.416s-.88-2.3-1.285-3.3Z" transform="translate(-201.412 -129.635)" fill="#0e58c7"/><path d="M309.719,179.39c.475,1.356.88,2.562,1.241,3.839s.757,2.518,1.109,3.786c.7,2.536,1.382,5.08,1.955,7.669a74.916,74.916,0,0,1,2.1,16.332,3,3,0,0,1,0,.4v.053a8.144,8.144,0,0,1-1.9,4.508,9.491,9.491,0,0,1-2.914,2.263,15.849,15.849,0,0,1-4.622,1.462,40.238,40.238,0,0,1-7.457.44c-2.351,0-4.622-.185-6.876-.4s-4.446-.449-6.8-.8l1.761-10.565c1.9.317,4.015.608,6.022.81s4.05.308,6,.326a29.866,29.866,0,0,0,5.415-.4,6.03,6.03,0,0,0,1.514-.467c.062,0-.07,0-.37.317a2.9,2.9,0,0,0-.669,1.576V211a50.347,50.347,0,0,0-.731-6.665c-.4-2.289-.96-4.614-1.576-6.92s-1.338-4.622-2.122-6.912c-.4-1.145-.8-2.289-1.233-3.416s-.88-2.3-1.285-3.3Z" transform="translate(-201.412 -129.635)" fill="#fff" opacity="0.8"/><path d="M290.819,131.535c-3.971,3.971-21.783-2.465-21.078,4.138-2.747-6.163,1.576-12.793,12.555-12.793C295.732,122.88,293.232,129.149,290.819,131.535Z" transform="translate(-199.426 -122.88)" fill="#263238"/><path d="M239.6,154.961l-.88-.264a20.955,20.955,0,0,0,.986-5.617h.88a22.321,22.321,0,0,1-.986,5.881Z" transform="translate(-195.814 -126.012)" fill="#0e58c7"/><path d="M238.093,141.056a21.36,21.36,0,0,0-9.333-13.577l.484-.74a22.24,22.24,0,0,1,9.685,14.131Z" transform="translate(-194.623 -123.341)" fill="#0e58c7"/><path d="M212.38,168.84a22.408,22.408,0,0,1-18.771-34.62l.731.475a21.536,21.536,0,0,0,18.041,33.264Z" transform="translate(-189.988 -124.236)" fill="#0e58c7"/><circle cx="19.458" cy="19.458" r="19.458" transform="translate(2.436 3.272) rotate(-1.52)" fill="#0e58c7"/><path d="M211.333,158.449l-.255-.167c2.272-6.1,7.757-10.116,11.006-15.584a4.574,4.574,0,0,0-1.18-5.52l.158-.335a.678.678,0,0,0-.317-.88h0a.678.678,0,0,0-.88.326l-.088.176a3.645,3.645,0,0,0-4.464,1.84c-3.249,5.468-8.734,9.483-11.006,15.584h0a.652.652,0,0,0-.88.194.643.643,0,0,0,.194.88l7.044,4.587a.652.652,0,1,0,.713-1.083Z" transform="translate(-191.583 -124.437)" fill="#fff" opacity="0.5"/><path d="M209.78,150.442a.44.44,0,0,1-.264-.1.431.431,0,0,1-.079-.616c.88-1.083,1.761-2.175,2.641-3.231a.44.44,0,1,1,.66.581c-.88,1.039-1.814,2.122-2.641,3.2A.467.467,0,0,1,209.78,150.442Z" transform="translate(-192.302 -125.684)" fill="#fff"/><path d="M206.02,156.84a.29.29,0,0,1-.15,0,.431.431,0,0,1-.264-.563,18.737,18.737,0,0,1,1.814-3.575.443.443,0,1,1,.748.475,17.793,17.793,0,0,0-1.761,3.407A.458.458,0,0,1,206.02,156.84Z" transform="translate(-191.852 -126.42)" fill="#fff"/><path d="M217.82,149.6a.449.449,0,0,1-.282-.106.431.431,0,0,1-.053-.616c.616-.713,1.2-1.4,1.761-2.087a.431.431,0,0,1,.616-.062.44.44,0,0,1,.062.616c-.572.7-1.162,1.391-1.761,2.1A.44.44,0,0,1,217.82,149.6Z" transform="translate(-193.263 -125.718)" fill="#fff"/><path d="M221.631,144.479a.458.458,0,0,1-.255-.079.449.449,0,0,1-.1-.616,21.632,21.632,0,0,0,1.224-1.858,2.641,2.641,0,0,0-.792-2.985.44.44,0,1,1,.581-.652,3.46,3.46,0,0,1,.969,4.094c-.379.625-.792,1.25-1.268,1.919A.449.449,0,0,1,221.631,144.479Z" transform="translate(-193.719 -124.704)" fill="#fff"/></g><g transform="translate(114.625 240.518)"><path d="M197.032,293.492c.537,4.57,11.965,3.284,19.37-3.355-4.6,2.3-14.351.731-18.49,1.955,1.109-1.761,2.21-3.46,3.284-5.045,1.109,3.126,9.6,1.558,14.968-3.777-3.3,1.875-10.319,1.268-13.788,2.131,1.761-2.553,3.469-4.825,4.983-6.771,2.439,1.039,8.206-2.28,11.085-7.519-2.694,2.765-10.31,3.971-12.194,5.952a2.218,2.218,0,0,0,.335.88c-.731.933-1.5,1.946-2.3,3.02-.59-2.879-5.107-8.329-5.344-11.983-1.391,6.718,1.761,13.982,4.684,12.89-1.312,1.8-2.7,3.777-4.121,5.926-1.065-3.2-6.542-8.752-7.167-12.767-.88,7.475,3.178,15.109,6.313,14.087q-1.717,2.641-3.451,5.547c-1.761-3.812-9.888-9.9-11.446-14.889.282,9.491,6.674,18.278,10.442,16.6q-1.761,2.985-3.4,6.225c-2.386-4.129-12-10.222-14.175-15.7,1.162,10.565,9.025,19.828,13.136,17.768q-1.849,3.738-3.522,7.739c-2.958-3.848-14.756-8.215-18.27-13.568,3.478,10.777,13.718,18.727,17.459,15.531a112.6,112.6,0,0,0-3.7,10.953c-3.645-3.522-16.482-6.278-20.911-11.279,5.168,10.565,16.834,17.231,20.3,13.506a96.21,96.21,0,0,0-2.069,10.125c-4.763-3.2-19.625-3.663-25.533-8.338,7.783,10.565,21.827,15.646,25.216,11.155a75.719,75.719,0,0,0,1.277,25.075l.995-.229A76.125,76.125,0,0,1,180.224,337c1.55,5.749,17,4.033,27.215-4.834-6.85,3.266-21.536.431-26.836,2.545a98.134,98.134,0,0,1,2.536-10.645c1.646,4.763,14.968,3.742,24.124-3.522-6,2.545-18.3-.291-23.359,1.065,1.118-3.443,2.377-6.78,3.751-9.984,1.18,4.816,14.184,4.121,23.209-2.782-5.732,2.316-17.31-.528-22.258.608,1.268-2.826,2.641-5.538,3.98-8.127.528,5.027,13.321,4.279,22.011-2.641-5.406,2.307-16.5-.194-21.131,1.021C194.62,297.568,195.826,295.473,197.032,293.492Z" transform="translate(-126.27 -268.98)" fill="#0e58c7"/><path d="M197.032,293.492c.537,4.57,11.965,3.284,19.37-3.355-4.6,2.3-14.351.731-18.49,1.955,1.109-1.761,2.21-3.46,3.284-5.045,1.109,3.126,9.6,1.558,14.968-3.777-3.3,1.875-10.319,1.268-13.788,2.131,1.761-2.553,3.469-4.825,4.983-6.771,2.439,1.039,8.206-2.28,11.085-7.519-2.694,2.765-10.31,3.971-12.194,5.952a2.218,2.218,0,0,0,.335.88c-.731.933-1.5,1.946-2.3,3.02-.59-2.879-5.107-8.329-5.344-11.983-1.391,6.718,1.761,13.982,4.684,12.89-1.312,1.8-2.7,3.777-4.121,5.926-1.065-3.2-6.542-8.752-7.167-12.767-.88,7.475,3.178,15.109,6.313,14.087q-1.717,2.641-3.451,5.547c-1.761-3.812-9.888-9.9-11.446-14.889.282,9.491,6.674,18.278,10.442,16.6q-1.761,2.985-3.4,6.225c-2.386-4.129-12-10.222-14.175-15.7,1.162,10.565,9.025,19.828,13.136,17.768q-1.849,3.738-3.522,7.739c-2.958-3.848-14.756-8.215-18.27-13.568,3.478,10.777,13.718,18.727,17.459,15.531a112.6,112.6,0,0,0-3.7,10.953c-3.645-3.522-16.482-6.278-20.911-11.279,5.168,10.565,16.834,17.231,20.3,13.506a96.21,96.21,0,0,0-2.069,10.125c-4.763-3.2-19.625-3.663-25.533-8.338,7.783,10.565,21.827,15.646,25.216,11.155a75.719,75.719,0,0,0,1.277,25.075l.995-.229A76.125,76.125,0,0,1,180.224,337c1.55,5.749,17,4.033,27.215-4.834-6.85,3.266-21.536.431-26.836,2.545a98.134,98.134,0,0,1,2.536-10.645c1.646,4.763,14.968,3.742,24.124-3.522-6,2.545-18.3-.291-23.359,1.065,1.118-3.443,2.377-6.78,3.751-9.984,1.18,4.816,14.184,4.121,23.209-2.782-5.732,2.316-17.31-.528-22.258.608,1.268-2.826,2.641-5.538,3.98-8.127.528,5.027,13.321,4.279,22.011-2.641-5.406,2.307-16.5-.194-21.131,1.021C194.62,297.568,195.826,295.473,197.032,293.492Z" transform="translate(-126.27 -268.98)" opacity="0.3"/><path d="M167.235,369.533l-.951-.062c2.166-32.234-23.156-58.991-34.144-68.957l.634-.7C143.859,309.926,169.41,336.956,167.235,369.533Z" transform="translate(-123.714 -272.665)" fill="#0e58c7"/><path d="M142.52,308.617c0-2.545,4.279-8.285,4.279-11.877C148.639,303.414,145.584,311.056,142.52,308.617Z" transform="translate(-124.955 -272.299)" fill="#0e58c7"/><path d="M137.138,302.945c-.229-2.254,3.126-7.686,2.835-10.865C142.139,297.847,140.018,304.82,137.138,302.945Z" transform="translate(-124.31 -271.741)" fill="#0e58c7"/><path d="M147.42,314.077c.431-3.2,6.9-9.685,7.563-14.167C156.084,308.627,150.792,317.6,147.42,314.077Z" transform="translate(-125.541 -272.677)" fill="#0e58c7"/><path d="M152.56,320.718c.775-3.566,8.628-10.231,9.773-15.258C162.791,315.383,156.038,325.041,152.56,320.718Z" transform="translate(-126.155 -273.341)" fill="#0e58c7"/><path d="M158.24,329c1.558-3.522,11.111-8.752,13.365-13.709C169.968,325.662,160.925,334.22,158.24,329Z" transform="translate(-126.834 -274.516)" fill="#0e58c7"/><path d="M164.26,340.547c2.131-3.416,12.784-7.387,15.848-12.177C176.868,338.839,166.25,346.34,164.26,340.547Z" transform="translate(-127.554 -276.08)" fill="#0e58c7"/><path d="M168.42,351.913c3.064-3.372,15.734-5.653,20.118-10.363C182.807,352.556,169.459,358.763,168.42,351.913Z" transform="translate(-128.051 -277.655)" fill="#0e58c7"/><path d="M139.066,308.026c-2.368-.924-9.262,1.074-12.626-.2C132.031,311.908,140.237,311.715,139.066,308.026Z" transform="translate(-123.033 -273.617)" fill="#0e58c7"/><path d="M133.294,300.181c-1.761-1.382-8.179-1.391-10.724-3.311C126.321,301.748,133.373,303.623,133.294,300.181Z" transform="translate(-122.57 -272.314)" fill="#0e58c7"/><path d="M143.25,313.531c-3.073-1.021-11.7,1.99-16.06.6C134.568,318.945,144.984,318.135,143.25,313.531Z" transform="translate(-123.122 -274.28)" fill="#0e58c7"/><path d="M148.182,319.98c-3.522-.942-13.04,3.02-18.032,1.761C138.77,326.619,150.445,325.008,148.182,319.98Z" transform="translate(-123.476 -275.059)" fill="#0e58c7"/><path d="M154.078,328.274c-3.751-.88-13.718,3.478-19.018,2.236C144.278,335.529,156.578,333.583,154.078,328.274Z" transform="translate(-124.063 -276.054)" fill="#0e58c7"/><path d="M160,338.879c-3.9-1.021-14.378,3.39-19.9,2.007C149.644,346.284,162.516,344.461,160,338.879Z" transform="translate(-124.666 -277.317)" fill="#0e58c7"/><path d="M164.213,350.525c-4.349-1.347-16.429,3.1-22.593,1.259C152.133,358.37,166.783,356.97,164.213,350.525Z" transform="translate(-124.847 -278.697)" fill="#0e58c7"/><path d="M162.937,410.052h21.492a2.641,2.641,0,0,0,2.641-2.377l4.165-40.272a2.641,2.641,0,0,0-2.641-2.923H158.8a2.641,2.641,0,0,0-2.641,2.923l4.129,40.272a2.641,2.641,0,0,0,2.65,2.377Z" transform="translate(-126.583 -280.396)" fill="#0e58c7"/><path d="M162.937,410.052h21.492a2.641,2.641,0,0,0,2.641-2.377l4.165-40.272a2.641,2.641,0,0,0-2.641-2.923H158.8a2.641,2.641,0,0,0-2.641,2.923l4.129,40.272a2.641,2.641,0,0,0,2.65,2.377Z" transform="translate(-126.583 -280.396)" fill="#fff" opacity="0.6"/></g></g></svg>