<svg xmlns="http://www.w3.org/2000/svg" width="486.467" height="371.687" viewBox="0 0 486.467 371.687">
  <g id="Psychologist-rafiki" transform="translate(0 -45.534)">
    <g id="freepik--background-complete--inject-1" transform="translate(0 54.744)">
      <rect id="Rectangle_1538" data-name="Rectangle 1538" width="486.467" height="0.243" transform="translate(0 318.539)" fill="#ebebeb"/>
      <rect id="Rectangle_1539" data-name="Rectangle 1539" width="25.296" height="0.243" transform="translate(51.04 327.801)" fill="#ebebeb"/>
      <rect id="Rectangle_1540" data-name="Rectangle 1540" width="52.636" height="0.243" transform="translate(142.37 325.164)" fill="#ebebeb"/>
      <rect id="Rectangle_1541" data-name="Rectangle 1541" width="25.608" height="0.243" transform="translate(77.309 336.84)" fill="#ebebeb"/>
      <rect id="Rectangle_1542" data-name="Rectangle 1542" width="18.71" height="0.243" transform="translate(419.014 335.205)" fill="#ebebeb"/>
      <rect id="Rectangle_1543" data-name="Rectangle 1543" width="29.47" height="0.243" transform="translate(380.875 335.205)" fill="#ebebeb"/>
      <rect id="Rectangle_1544" data-name="Rectangle 1544" width="53.083" height="0.243" transform="translate(251.241 331.099)" fill="#ebebeb"/>
      <path id="Path_5031" data-name="Path 5031" d="M231.62,330.146H43.756a5.555,5.555,0,0,1-5.546-5.555V60.507A5.555,5.555,0,0,1,43.756,55H231.62a5.555,5.555,0,0,1,5.555,5.555V324.59A5.555,5.555,0,0,1,231.62,330.146ZM43.756,55.195a5.312,5.312,0,0,0-5.3,5.312V324.59a5.312,5.312,0,0,0,5.3,5.312H231.62a5.322,5.322,0,0,0,5.312-5.312V60.507a5.322,5.322,0,0,0-5.312-5.312Z" transform="translate(-1.034 -55)" fill="#ebebeb"/>
      <path id="Path_5032" data-name="Path 5032" d="M447.929,330.146H260.055a5.565,5.565,0,0,1-5.555-5.555V60.507A5.565,5.565,0,0,1,260.055,55H447.929a5.555,5.555,0,0,1,5.536,5.507V324.59A5.556,5.556,0,0,1,447.929,330.146ZM260.055,55.195a5.322,5.322,0,0,0-5.312,5.312V324.59a5.322,5.322,0,0,0,5.312,5.312H447.929a5.322,5.322,0,0,0,5.312-5.312V60.507a5.322,5.322,0,0,0-5.312-5.312Z" transform="translate(-6.888 -55)" fill="#ebebeb"/>
      <rect id="Rectangle_1545" data-name="Rectangle 1545" width="154.677" height="144.87" transform="translate(56.644 21.833)" fill="#e6e6e6"/>
      <rect id="Rectangle_1546" data-name="Rectangle 1546" width="157.635" height="144.87" transform="translate(59.242 21.833)" fill="#f0f0f0"/>
      <rect id="Rectangle_1547" data-name="Rectangle 1547" width="154.677" height="6.596" transform="translate(56.644 166.703)" fill="#e6e6e6"/>
      <rect id="Rectangle_1548" data-name="Rectangle 1548" width="157.635" height="6.596" transform="translate(68.495 166.703)" fill="#f0f0f0"/>
      <rect id="Rectangle_1549" data-name="Rectangle 1549" width="129.313" height="142.087" transform="translate(209.093 29.616) rotate(90)" fill="#fafafa"/>
      <path id="Path_5033" data-name="Path 5033" d="M84.17,214.753,129.82,85.44h21.541L105.72,214.753Z" transform="translate(-2.278 -55.824)" fill="#fff"/>
      <path id="Path_5034" data-name="Path 5034" d="M72.565,218.488a.555.555,0,0,0,.555-.555V90.625a.555.555,0,1,0-1.109,0V217.933a.555.555,0,0,0,.555.555Z" transform="translate(-1.949 -55.949)" fill="#e0e0e0"/>
      <path id="Path_5035" data-name="Path 5035" d="M111.08,214.753,156.72,85.44h8.406l-45.65,129.313Z" transform="translate(-3.006 -55.824)" fill="#fff"/>
      <rect id="Rectangle_1550" data-name="Rectangle 1550" width="129.313" height="0.992" transform="translate(209.093 29.606) rotate(90)" fill="#e6e6e6"/>
      <path id="Path_5036" data-name="Path 5036" d="M220.477,101.412H65.8L65.08,88.54H219.757Z" transform="translate(-1.761 -55.908)" fill="#e6e6e6" opacity="0.5"/>
      <path id="Path_5037" data-name="Path 5037" d="M220.477,114.832H65.8l-.72-12.862H219.757Z" transform="translate(-1.761 -56.271)" fill="#e6e6e6" opacity="0.5"/>
      <path id="Path_5038" data-name="Path 5038" d="M220.477,128.252H65.8l-.72-12.862H219.757Z" transform="translate(-1.761 -56.634)" fill="#e6e6e6" opacity="0.5"/>
      <path id="Path_5039" data-name="Path 5039" d="M220.477,141.672H65.8l-.72-12.862H219.757Z" transform="translate(-1.761 -56.998)" fill="#e6e6e6" opacity="0.5"/>
      <path id="Path_5040" data-name="Path 5040" d="M220.477,155.1H65.8l-.72-12.862H219.757Z" transform="translate(-1.761 -57.361)" fill="#e6e6e6" opacity="0.5"/>
      <path id="Path_5041" data-name="Path 5041" d="M220.477,168.522H65.8l-.72-12.862H219.757Z" transform="translate(-1.761 -57.724)" fill="#e6e6e6" opacity="0.5"/>
      <rect id="Rectangle_1551" data-name="Rectangle 1551" width="44.054" height="117.307" transform="translate(214.503 201.232)" fill="#e6e6e6"/>
      <path id="Path_5042" data-name="Path 5042" d="M258.685,381.956h6.684V365.98H251.69Z" transform="translate(-6.812 -63.417)" fill="#f0f0f0"/>
      <rect id="Rectangle_1552" data-name="Rectangle 1552" width="44.054" height="117.307" transform="translate(51.157 201.232)" fill="#e6e6e6"/>
      <rect id="Rectangle_1553" data-name="Rectangle 1553" width="169.174" height="107.5" transform="translate(89.383 201.232)" fill="#f0f0f0"/>
      <rect id="Rectangle_1554" data-name="Rectangle 1554" width="158.812" height="29.48" transform="translate(94.569 205.999)" fill="#e6e6e6"/>
      <path id="Path_5043" data-name="Path 5043" d="M197.9,274.38H155.878c-18.252,0-35.7-3.639-48.248-10.06H246.147C233.6,270.741,216.151,274.38,197.9,274.38Z" transform="translate(-2.913 -60.665)" fill="#f0f0f0"/>
      <path id="Path_5044" data-name="Path 5044" d="M98.554,381.956H91.87V365.98h13.679Z" transform="translate(-2.487 -63.417)" fill="#f0f0f0"/>
      <rect id="Rectangle_1555" data-name="Rectangle 1555" width="158.812" height="29.48" transform="translate(94.569 240.237)" fill="#e6e6e6"/>
      <path id="Path_5045" data-name="Path 5045" d="M197.9,309.58H155.878c-18.252,0-35.7-3.639-48.248-10.06H246.147C233.6,305.941,216.151,309.58,197.9,309.58Z" transform="translate(-2.913 -61.618)" fill="#f0f0f0"/>
      <rect id="Rectangle_1556" data-name="Rectangle 1556" width="158.812" height="29.48" transform="translate(94.569 274.484)" fill="#e6e6e6"/>
      <path id="Path_5046" data-name="Path 5046" d="M197.9,344.78H155.878c-18.252,0-35.7-3.639-48.248-10.06H246.147C233.6,341.141,216.151,344.78,197.9,344.78Z" transform="translate(-2.913 -62.571)" fill="#f0f0f0"/>
      <rect id="Rectangle_1557" data-name="Rectangle 1557" width="92.721" height="124.02" transform="translate(402.591 154.385) rotate(180)" fill="#e6e6e6"/>
      <rect id="Rectangle_1558" data-name="Rectangle 1558" width="97.459" height="124.02" transform="translate(401.297 154.385) rotate(180)" fill="#f0f0f0"/>
      <rect id="Rectangle_1559" data-name="Rectangle 1559" width="97.04" height="70.479" transform="translate(387.812 43.85) rotate(90)" fill="#fff"/>
      <rect id="Rectangle_1560" data-name="Rectangle 1560" width="53.55" height="8.591" transform="translate(379.337 113.843) rotate(180)" fill="#f0f0f0"/>
      <rect id="Rectangle_1561" data-name="Rectangle 1561" width="38.878" height="8.591" transform="translate(372.002 126.209) rotate(180)" fill="#f0f0f0"/>
      <circle id="Ellipse_417" data-name="Ellipse 417" cx="20.179" cy="20.179" r="20.179" transform="translate(332.393 55.506)" fill="#f0f0f0"/>
      <rect id="Rectangle_1562" data-name="Rectangle 1562" width="97.04" height="1.06" transform="translate(318.383 43.85) rotate(90)" fill="#e6e6e6"/>
      <path id="Path_5047" data-name="Path 5047" d="M357.728,294.881a.856.856,0,0,0-.846-.681H324.4a.846.846,0,0,0-.837.681L312,380.013h1.751l11.354-84.062h31.134l11.325,84.1h1.751Z" transform="translate(-8.444 -61.474)" fill="#f0f0f0"/>
      <path id="Path_5048" data-name="Path 5048" d="M422.478,294.881a.856.856,0,0,0-.846-.681H389.116a.846.846,0,0,0-.837.681L376.74,380.013h1.751l11.325-84.062H420.95l11.306,84.062h1.751Z" transform="translate(-10.197 -61.474)" fill="#f0f0f0"/>
      <path id="Path_5049" data-name="Path 5049" d="M421.609,287.52H319.334c-4.865,0-8.844,2.354-8.844,5.254v.185c0,1.051,1.44,1.946,3.22,1.946H427.232c1.78,0,3.22-.856,3.22-1.946v-.185C430.453,289.874,426.493,287.52,421.609,287.52Z" transform="translate(-8.404 -61.293)" fill="#e0e0e0"/>
      <path id="Path_5050" data-name="Path 5050" d="M428.976,244.21H361.357l-9.8,39.929h67.619Z" transform="translate(-9.515 -60.121)" fill="#e6e6e6"/>
      <path id="Path_5051" data-name="Path 5051" d="M419.171,285.25l-.272,2.209H351.27l.272-2.209Z" transform="translate(-9.507 -61.232)" fill="#e6e6e6"/>
      <path id="Path_5052" data-name="Path 5052" d="M426.846,244.21H359.217l-9.8,39.929h67.619Z" transform="translate(-9.457 -60.121)" fill="#f0f0f0"/>
      <path id="Path_5053" data-name="Path 5053" d="M415.673,282.361l8.912-36.281H360.712l-8.9,36.281Z" transform="translate(-9.522 -60.172)" fill="#fff"/>
      <path id="Path_5054" data-name="Path 5054" d="M398.731,285.25l-.272,2.209H323.99l.272-2.209Z" transform="translate(-8.769 -61.232)" fill="#f0f0f0"/>
    </g>
    <g id="freepik--Shadow--inject-1" transform="translate(54.591 395.193)">
      <ellipse id="freepik--path--inject-1" cx="188.642" cy="11.014" rx="188.642" ry="11.014" fill="#f5f5f5"/>
    </g>
    <g id="freepik--character-1--inject-1" transform="translate(75.09 254.098)">
      <rect id="Rectangle_1563" data-name="Rectangle 1563" width="0.973" height="6.363" transform="translate(1.558 70.626) rotate(-18.68)" fill="#1e64cc"/>
      <path id="Path_5055" data-name="Path 5055" d="M77.482,326.459a21.288,21.288,0,0,1,3.347-15.5,18.9,18.9,0,0,1,9.33-6.811l.311.915a17.736,17.736,0,0,0-8.844,6.48,20.266,20.266,0,0,0-3.181,14.8Z" transform="translate(-77.178 -261.098)" fill="#1e64cc"/>
      <path id="Path_5056" data-name="Path 5056" d="M346.6,368.91H195.36l-12.93-38.217c-4.544-13.456-19.138-24.323-32.593-24.323H98.184c-13.446,0-20.665,10.907-16.122,24.323l12.95,38.275A30.161,30.161,0,0,0,123.6,389.488H346.6a7.141,7.141,0,0,0,7.141-7.141v-6.285a7.141,7.141,0,0,0-7.141-7.151Z" transform="translate(-77.274 -261.158)" fill="#1e64cc"/>
      <path id="Path_5057" data-name="Path 5057" d="M182.9,330.693c-4.544-13.456-19.138-24.323-32.593-24.323H115.514c-13.456,0-20.665,10.907-16.122,24.323l12.94,38.275,83.488-.058Z" transform="translate(-77.743 -261.158)" fill="#fff" opacity="0.2"/>
      <rect id="Rectangle_1564" data-name="Rectangle 1564" width="100.368" height="20.578" rx="7.34" transform="translate(276.451 128.33) rotate(180)" fill="#fff" opacity="0.2"/>
      <path id="Path_5058" data-name="Path 5058" d="M270,410.694H265.49V391.8h7.346Z" transform="translate(-82.275 -263.47)" fill="#263238"/>
      <path id="Path_5059" data-name="Path 5059" d="M349.261,410.694h4.514V391.8H346.42Z" transform="translate(-84.466 -263.47)" fill="#263238"/>
      <path id="Path_5060" data-name="Path 5060" d="M134.9,410.694H130.39V391.8h7.346Z" transform="translate(-78.619 -263.47)" fill="#263238"/>
      <path id="Path_5061" data-name="Path 5061" d="M214.151,410.694h4.514V391.8H211.32Z" transform="translate(-80.809 -263.47)" fill="#263238"/>
      <path id="Path_5062" data-name="Path 5062" d="M148.21,271.94c.8,3.181,4.349,6.382,5.39,7.667s-4.145,2.753-4.145,2.753l-5.205-5.633Z" transform="translate(-78.994 -260.226)" fill="#263238"/>
      <path id="Path_5063" data-name="Path 5063" d="M151.6,297.241l1.946.117,2.121.1c1.43,0,2.86.107,4.291.117,2.86,0,5.7,0,8.465-.185,1.382-.088,2.753-.2,4.086-.37s2.656-.331,3.892-.584a30.772,30.772,0,0,0,6.733-2l-3.405,3.678c1.022-1.858,2.072-3.8,3.045-5.838s1.946-4.154,2.919-6.3,1.868-4.33,2.812-6.528,1.868-4.456,2.831-6.577l.088-.195a4.651,4.651,0,0,1,8.883,1.858c0,2.676-.117,5.166-.331,7.735s-.584,5.079-.973,7.618a78.089,78.089,0,0,1-4.184,15.333,6.81,6.81,0,0,1-2.744,3.279l-.662.4a41.679,41.679,0,0,1-10.7,4.612,64.477,64.477,0,0,1-10.5,2.053,87.008,87.008,0,0,1-10.255.593c-1.693,0-3.386,0-5.079-.136-.846,0-1.7-.1-2.549-.175l-1.294-.126-1.411-.165a9.194,9.194,0,0,1,1.469-18.3Z" transform="translate(-78.924 -260.172)" fill="#263238"/>
      <path id="Path_5064" data-name="Path 5064" d="M198.369,270.1c-4.991-1.119-5.945,1.9-6.431,4.271s1.255,5.692,5.205,6.606,4.612-1.81,4.8-3.24S204.138,271.4,198.369,270.1Z" transform="translate(-80.282 -260.17)" fill="#1e64cc"/>
      <path id="Path_5065" data-name="Path 5065" d="M200.785,277.083l3.658-2.277-6.4-7.667s-6.12,3.22-4.777,6.665l2.8,2.763A3.833,3.833,0,0,0,200.785,277.083Z" transform="translate(-80.315 -260.096)" fill="#b55b52"/>
      <path id="Path_5066" data-name="Path 5066" d="M193.246,273.51c-1.129-5.838,4.213-7.511,4.69-10.469a.72.72,0,0,1,1.421-.117,4.6,4.6,0,0,1-.409,3.4c-.7.817,2.987,5.205-.321,7.161a16.239,16.239,0,0,0-5.38.029Z" transform="translate(-80.316 -259.967)" fill="#b55b52"/>
      <path id="Path_5067" data-name="Path 5067" d="M207.734,267.122l-1.022-1.343a3.7,3.7,0,0,0-4.865-.924l-3.658,2.209,6.4,7.667,2.783-2.753A3.7,3.7,0,0,0,207.734,267.122Z" transform="translate(-80.454 -260.02)" fill="#b55b52"/>
      <path id="Path_5068" data-name="Path 5068" d="M311.288,368.464c-1.168-1.946-3.512-1.44-6.168-1.946,0,0,4.407-11.383,6.811-9.982,4.923,2.919,10.7-1.323,15.888-7.19.72-.817,2.569,1.712,1.3,3.892-3.162,5.487-7.706,7.784-10.07,10.5-2.024,2.306-2.033,4.106-3.96,5.653C313.487,370.653,312.446,370.41,311.288,368.464Z" transform="translate(-83.348 -262.317)" fill="#263238"/>
      <path id="Path_5069" data-name="Path 5069" d="M278.451,367c.574-2.2,1.148-5.283-.331-7.55,0,0,11.189-4.865,11.889-2.189,1.42,5.517,2.763,8.066,12.23,9.729,1.07.195,3.036,3.347.506,3.347-7.316,0-11.889-.788-15.46-.574-3.065.175-4.339.817-6.811.535C278.461,370.1,277.867,369.215,278.451,367Z" transform="translate(-82.617 -262.513)" fill="#263238"/>
      <path id="Path_5070" data-name="Path 5070" d="M154.676,300.246c-8.64-.71-19.877,1.2-26.4,6.178a13.281,13.281,0,0,0-5.04,13.718c5.2,21.268,32.3,50.456,65.508,50.456l22.27-41.544s2.462-15.518-30.161-13.874C171.517,305.578,163.257,300.976,154.676,300.246Z" transform="translate(-78.416 -260.988)" fill="#263238"/>
      <path id="Path_5071" data-name="Path 5071" d="M209.832,326.307a287.986,287.986,0,0,1,57.977-14.39c17.766-2.432,21,46.7,21,46.7l-12.93,2.121c-2.384-13.679-9.827-17.386-13.125-27.719-13.874,12.921-44.59,24.08-67.6,14.711,3.522-9.175,4.816-10.624,8.367-16.112C206.524,327.018,209.832,326.307,209.832,326.307Z" transform="translate(-80.371 -261.306)" fill="#1e64cc"/>
      <path id="Path_5072" data-name="Path 5072" d="M209.832,326.307a287.986,287.986,0,0,1,57.977-14.39c17.766-2.432,21,46.7,21,46.7l-12.93,2.121c-2.384-13.679-9.827-17.386-13.125-27.719-13.874,12.921-44.59,24.08-67.6,14.711,3.522-9.175,4.816-10.624,8.367-16.112C206.524,327.018,209.832,326.307,209.832,326.307Z" transform="translate(-80.371 -261.306)" opacity="0.3"/>
      <path id="Path_5073" data-name="Path 5073" d="M200.086,337.5s35.775.525,67.3,8.455c15.11,3.794,43.782,10.235,43.782,10.235L305.611,367.4s-18.252,1.352-47.878-3.824c-19.984,7.355-37.828,8.036-67.132,8.036C190.4,353.193,200.086,337.5,200.086,337.5Z" transform="translate(-80.248 -262)" fill="#1e64cc"/>
      <path id="Path_5074" data-name="Path 5074" d="M200.086,337.5s35.775.525,67.3,8.455c15.11,3.794,43.782,10.235,43.782,10.235L305.611,367.4s-18.252,1.352-47.878-3.824c-19.984,7.355-37.828,8.036-67.132,8.036C190.4,353.193,200.086,337.5,200.086,337.5Z" transform="translate(-80.248 -262)" opacity="0.2"/>
      <path id="Path_5075" data-name="Path 5075" d="M140.843,319.3l-.915,8.688c-.311,2.919-.555,5.838-.808,8.756-.107,1.45-.224,2.919-.292,4.349s-.165,2.919-.234,4.31c-.078,2.841-.126,5.643,0,8.309l-2.033-4.534a23.827,23.827,0,0,0,4.252,4.281c.866.652,1.78,1.323,2.744,1.946s2,1.226,3.065,1.81a66.237,66.237,0,0,0,6.742,3.172c1.177.477,2.364.973,3.58,1.382.6.224,1.206.448,1.819.642l1.722.6.516.185a4.583,4.583,0,0,1-1.284,8.9c-.9.049-1.586.088-2.374.1s-1.508,0-2.257,0c-1.508-.058-3.006-.156-4.514-.321a56.061,56.061,0,0,1-9.029-1.771,45.868,45.868,0,0,1-8.961-3.619,42.393,42.393,0,0,1-4.349-2.724,34.5,34.5,0,0,1-4.077-3.532,6.7,6.7,0,0,1-1.946-3.736l-.136-.827a91.265,91.265,0,0,1-1.08-10.06c-.175-3.289-.195-6.538-.126-9.729s.272-6.412.535-9.593c.146-1.586.292-3.172.5-4.758s.409-3.123.681-4.865a9.2,9.2,0,0,1,18.243,2.423Z" transform="translate(-78.36 -261.226)" fill="#263238"/>
      <path id="Path_5076" data-name="Path 5076" d="M164.844,373.267c3.95-3.055,1.3-6.373-.642-7.842a7.034,7.034,0,0,0-9.2,1.051c-2.306,2.345-1.625,6.684-.36,7.385S159.561,377.344,164.844,373.267Z" transform="translate(-79.243 -262.722)" fill="#1e64cc"/>
      <path id="Path_5077" data-name="Path 5077" d="M164.563,367.724l3.347,2.111-6.11,7.229s-5.838-3.094-4.495-6.344l2.569-2.5a3.794,3.794,0,0,1,4.69-.5Z" transform="translate(-79.342 -262.802)" fill="#b55b52"/>
      <path id="Path_5078" data-name="Path 5078" d="M170.949,377.139l-.973,1.265a3.493,3.493,0,0,1-4.6.846l-3.444-2.111,6.11-7.229,2.617,2.627A3.493,3.493,0,0,1,170.949,377.139Z" transform="translate(-79.472 -262.877)" fill="#b55b52"/>
      <path id="Path_5079" data-name="Path 5079" d="M130,285.12c2.345,5.069,5.429,14.059,2.919,19.556a3.181,3.181,0,0,0,1.459,4.154c2.5,1.245,7.034,2.267,14.866.788,9.583-1.81,9.885-4.193,8.64-5.789a5.555,5.555,0,0,0-3.979-1.8c-3.152-2.5-6.616-7.832-5.069-11.627Z" transform="translate(-78.608 -260.583)" fill="#b55b52"/>
      <path id="Path_5080" data-name="Path 5080" d="M148.983,290.71l-10.615,5.838c-.5.808,1.946,4.086,6.129,4.563a12.415,12.415,0,0,0,7.122-1.44C149.508,297,147.952,293.483,148.983,290.71Z" transform="translate(-78.833 -260.734)" opacity="0.2"/>
      <path id="Path_5081" data-name="Path 5081" d="M149.014,270.261c-.321-5.507-3.95-7.511-3.95-7.511a7.6,7.6,0,0,0-.9,5.75l-8.319,6.665C139.43,278.327,149.335,275.768,149.014,270.261Z" transform="translate(-78.766 -259.977)" fill="#263238"/>
      <path id="Path_5082" data-name="Path 5082" d="M127.549,284.53c3.989,7.3,5.954,11.763,11.549,13.835,8.426,3.113,16.083-4.67,14.351-13.008-1.557-7.5-7.783-18.165-16.54-17.7a11.325,11.325,0,0,0-9.36,16.871Z" transform="translate(-78.502 -260.11)" fill="#b55b52"/>
      <path id="Path_5083" data-name="Path 5083" d="M140.305,281.6c.282.613.846.973,1.245.769s.486-.837.2-1.45-.846-.973-1.245-.759S140,280.976,140.305,281.6Z" transform="translate(-78.882 -260.447)" fill="#263238"/>
      <path id="Path_5084" data-name="Path 5084" d="M147.405,278.268c.282.613.846.973,1.245.769s.486-.837.2-1.45-.846-.973-1.245-.769S147.113,277.655,147.405,278.268Z" transform="translate(-79.075 -260.356)" fill="#263238"/>
      <path id="Path_5085" data-name="Path 5085" d="M145.3,279.68a24.227,24.227,0,0,0,5.371,3.892,3.947,3.947,0,0,1-2.656,1.946Z" transform="translate(-79.022 -260.435)" fill="#a02724"/>
      <path id="Path_5086" data-name="Path 5086" d="M143.907,288.974a6.354,6.354,0,0,0-1.148.973.2.2,0,0,0,.292.272,5.341,5.341,0,0,1,4.514-1.742.2.2,0,0,0,.224-.156.2.2,0,0,0-.156-.234A5.448,5.448,0,0,0,143.907,288.974Z" transform="translate(-78.953 -260.662)" fill="#263238"/>
      <path id="Path_5087" data-name="Path 5087" d="M136.512,277a.379.379,0,0,0-.126.409,3.162,3.162,0,0,1-.448,2.831.409.409,0,0,0,.049.564.4.4,0,0,0,.555-.049,3.892,3.892,0,0,0,.6-3.571.389.389,0,0,0-.486-.263.273.273,0,0,0-.146.078Z" transform="translate(-78.766 -260.36)" fill="#263238"/>
      <path id="Path_5088" data-name="Path 5088" d="M146.07,272.37a.36.36,0,0,0-.234.117.4.4,0,0,0,0,.564,3.892,3.892,0,0,0,3.464,1.061.389.389,0,0,0,.292-.477.4.4,0,0,0-.477-.292,3.133,3.133,0,0,1-2.734-.876.389.389,0,0,0-.311-.1Z" transform="translate(-79.034 -260.237)" fill="#263238"/>
      <path id="Path_5089" data-name="Path 5089" d="M132.475,282.93c.827,3.172,4.388,3.7,5.439,4.972s-4.116,2.792-4.116,2.792l-3.3-2.676Z" transform="translate(-78.622 -260.523)" fill="#263238"/>
      <path id="Path_5090" data-name="Path 5090" d="M126.506,292.25a8.241,8.241,0,0,0,5.7,1.8c2.676-.233,2.919-2.822,1.236-4.865-1.5-1.819-4.7-3.892-6.937-2.656S124.511,290.635,126.506,292.25Z" transform="translate(-78.471 -260.611)" fill="#b55b52"/>
      <path id="Path_5091" data-name="Path 5091" d="M131.471,287.006c2.043-2.335-.234-9.029-1.255-10.43,1.187-.973,5.779-6.071,3.259-9.185s-8.99,0-8.99,0a3.065,3.065,0,0,0,2.092,1.7c-2.851.856-6.811,2.919-7.287,6.567,2.685,0,2.773-.428,2.773-.428s-3.756,6.412-1.946,9.856a1.742,1.742,0,0,0,1.751-1.8S123.182,288.193,131.471,287.006Z" transform="translate(-78.318 -260.065)" fill="#263238"/>
      <path id="Path_5092" data-name="Path 5092" d="M137.656,264.389c-3.707-4.1-8.756-2.053-8.756-2.053a4.261,4.261,0,0,0,2.51,4.047l-.973,10.08C135.243,276.677,141.363,268.475,137.656,264.389Z" transform="translate(-78.578 -259.952)" fill="#263238"/>
      <path id="Path_5093" data-name="Path 5093" d="M144.213,266.195c-1.031-5.419-6.392-6.295-6.392-6.295a4.252,4.252,0,0,0,0,4.758l-6.081,8.095C135.739,275.428,145.244,271.614,144.213,266.195Z" transform="translate(-78.655 -259.9)" fill="#263238"/>
      <path id="Path_5094" data-name="Path 5094" d="M193.2,371.219c-1.946.973-4.777,0-4.777,0S186.9,334.471,210.7,323.01c1.489,0,2.462,2.325,2.462,2.325a46.175,46.175,0,0,0-15.567,21.122C192.554,360.517,193.2,371.219,193.2,371.219Z" transform="translate(-80.189 -261.608)" fill="#1e64cc"/>
    </g>
    <g id="freepik--character-2--inject-1" transform="translate(284.235 117.338)">
      <path id="Path_5095" data-name="Path 5095" d="M357.313,148.65c-1.08,5.517-2.16,15.635,1.7,19.313a40.961,40.961,0,0,0-18.933,10.459c-3.892-7.2,1.78-10.459,1.78-10.459,6.149-1.469,5.993-6.032,4.923-10.323Z" transform="translate(-293.402 -120.129)" fill="#ffc3bd"/>
      <path id="Path_5096" data-name="Path 5096" d="M341.89,173.346c1.265-5.108-2.53-5.9,3.736-8.328,4.865-1.946,14.224-2,16.443-.341,1.236.973-.389,4.067-.389,4.067Z" transform="translate(-293.488 -120.531)" fill="#263238"/>
      <path id="Path_5097" data-name="Path 5097" d="M370.751,173.3c.2.486.311.759.457,1.119l.389.973c.253.671.457,1.343.671,2,.418,1.343.788,2.685,1.119,4.028a57.4,57.4,0,0,1,1.382,8.241,49.678,49.678,0,0,1-1.177,16.939c-.185.691-.36,1.391-.593,2.082l-.156.516-.088.263-.136.409a8.25,8.25,0,0,1-1.1,2.1,9.8,9.8,0,0,1-2.734,2.549,14.469,14.469,0,0,1-2.549,1.275,30.462,30.462,0,0,1-8.756,1.7,71.854,71.854,0,0,1-15.956-.9,2.851,2.851,0,0,1,.146-5.643h.107a141.482,141.482,0,0,0,14.5-2.17,33.679,33.679,0,0,0,3.289-.876,15.239,15.239,0,0,0,2.724-1.09c.72-.36,1.138-.9.8-.623a1.441,1.441,0,0,0-.243.409v-.049l.049-.195.088-.409c.136-.525.224-1.07.331-1.615a44.492,44.492,0,0,0,.146-13.407,62.326,62.326,0,0,0-1.265-6.811c-.272-1.119-.584-2.238-.915-3.327l-.525-1.615-.272-.778-.234-.652-.107-.282a5.711,5.711,0,0,1,10.6-4.232Z" transform="translate(-293.414 -120.701)" fill="#ffc3bd"/>
      <path id="Path_5098" data-name="Path 5098" d="M343.01,217.762l-8.62-.973L337.5,209.2a49.934,49.934,0,0,1,7.394,4.106Z" transform="translate(-293.285 -121.768)" fill="#ffc3bd"/>
      <path id="Path_5099" data-name="Path 5099" d="M330.993,212.748l1.888-3.123a1.868,1.868,0,0,1,1.946-.876l2.627.477-3.113,7.589-2.637-1.489a1.868,1.868,0,0,1-.71-2.578Z" transform="translate(-293.186 -121.755)" fill="#ffc3bd"/>
      <path id="Path_5100" data-name="Path 5100" d="M368.659,169.366c4.261,2.919,7.316,8.669,9.36,19.284-1.946,3.814-15.45,7.91-15.45,7.91S353.783,161.193,368.659,169.366Z" transform="translate(-293.978 -120.657)" fill="#1e64cc"/>
      <path id="Path_5101" data-name="Path 5101" d="M337.956,217.228,312.834,222.3a3.687,3.687,0,0,1-3.892-2.024L292.4,184.021a2.111,2.111,0,0,1,1.527-3.1l25.121-5.069a3.687,3.687,0,0,1,3.892,2.024l16.54,36.252a2.111,2.111,0,0,1-1.528,3.1Z" transform="translate(-292.142 -120.864)" fill="#263238"/>
      <path id="Path_5102" data-name="Path 5102" d="M312.5,219.968a1.362,1.362,0,0,1-1.43-.749l-16.54-36.252a.769.769,0,0,1,.555-1.138L320.2,176.76a1.352,1.352,0,0,1,1.42.739l16.54,36.252a.778.778,0,0,1-.555,1.148Z" transform="translate(-292.203 -120.89)" fill="#fff"/>
      <path id="Path_5103" data-name="Path 5103" d="M306.691,191.75a1.051,1.051,0,0,1-.846-1.644l6.178-8.756a1.041,1.041,0,0,1,1.693,1.206l-6.168,8.756A1.061,1.061,0,0,1,306.691,191.75Z" transform="translate(-292.507 -121.004)" fill="#1e64cc"/>
      <path id="Path_5104" data-name="Path 5104" d="M324.692,181.473c.156,3.717-5.7,12.308,1.537,17.289.846,7.5,1.946,14.886,3.892,27.242H367.9c-4.028-13.621-1.216-22.776,3.785-46.7a9.554,9.554,0,0,0-8.387-11.451c-1.508-.156-3.1-.282-4.738-.36a121.461,121.461,0,0,0-17.153,0c-1.858.175-3.775.409-5.6.662A12.96,12.96,0,0,0,324.692,181.473Z" transform="translate(-292.966 -120.631)" fill="#1e64cc"/>
      <path id="Path_5105" data-name="Path 5105" d="M329.3,222.351a4.369,4.369,0,0,0,.681,2.919,128.613,128.613,0,0,1,37.312-.973,4.486,4.486,0,0,0-.185-2.724S351.132,218.887,329.3,222.351Z" transform="translate(-293.146 -122.076)" fill="#263238"/>
      <path id="Path_5106" data-name="Path 5106" d="M309.238,199.229l.973-7.959-7.861,2.364a51.248,51.248,0,0,0,3.376,7.783Z" transform="translate(-292.418 -121.283)" fill="#ffc3bd"/>
      <path id="Path_5107" data-name="Path 5107" d="M306.489,187.475l-3.3,1.566a1.849,1.849,0,0,0-1.051,1.819l.2,2.666,7.861-2.364-1.226-2.773a1.858,1.858,0,0,0-2.491-.915Z" transform="translate(-292.412 -121.175)" fill="#ffc3bd"/>
      <path id="Path_5108" data-name="Path 5108" d="M338.35,179.619c-.379,1.469-.739,2.724-1.158,4.047s-.846,2.6-1.294,3.892c-.924,2.559-1.946,5.1-3.036,7.6s-2.306,4.981-3.61,7.414-2.753,4.806-4.291,7.141l-.195.3a4.719,4.719,0,0,1-3.483,2.1,14.37,14.37,0,0,1-6.645-.973,15.06,15.06,0,0,1-5.118-3.541,19.38,19.38,0,0,1-3.143-4.514,23.342,23.342,0,0,1-1.031-2.393,21.988,21.988,0,0,1-.73-2.569,2.831,2.831,0,0,1,4.865-2.491l.379.438c.341.389.8.973,1.216,1.45s.866.973,1.313,1.411a14.6,14.6,0,0,0,2.734,2.17,6.567,6.567,0,0,0,2.539.973,5.449,5.449,0,0,0,2.17-.165l-3.678,2.393c1.168-2.15,2.277-4.339,3.308-6.606s2.014-4.553,2.919-6.888,1.79-4.69,2.607-7.064l1.187-3.571c.379-1.168.778-2.423,1.1-3.483v-.126a5.711,5.711,0,1,1,11,3.065Z" transform="translate(-292.478 -120.772)" fill="#ffc3bd"/>
      <path id="Path_5109" data-name="Path 5109" d="M332.608,168.983c-4.69,2.179-9.33,6.5-11.218,16.715,1.245,4.077,13.971,10.858,13.971,10.858S348.632,163.476,332.608,168.983Z" transform="translate(-292.933 -120.663)" fill="#1e64cc"/>
      <path id="Path_5110" data-name="Path 5110" d="M333.1,143.387c.146.73-.126,1.411-.6,1.5s-.973-.418-1.138-1.158.126-1.411.6-1.508S332.954,142.648,333.1,143.387Z" transform="translate(-293.202 -119.955)" fill="#263238"/>
      <path id="Path_5111" data-name="Path 5111" d="M332.158,142.216l-1.868-.156S331.467,143.257,332.158,142.216Z" transform="translate(-293.174 -119.951)" fill="#263238"/>
      <path id="Path_5112" data-name="Path 5112" d="M332.953,144.26a19.916,19.916,0,0,1-1.683,5.215,3.23,3.23,0,0,0,2.715,0Z" transform="translate(-293.201 -120.01)" fill="#ed847e"/>
      <path id="Path_5113" data-name="Path 5113" d="M332.667,148.667a3.892,3.892,0,0,1-2.52-1.109,8.134,8.134,0,0,1-2.257-3.756c-.924-3.269.058-6.421,2.179-7.015a3.473,3.473,0,0,1,3.25.973,8.173,8.173,0,0,1,2.267,3.843c.915,3.269-.058,6.412-2.179,7.005A2.715,2.715,0,0,1,332.667,148.667ZM330.8,137.1a2.5,2.5,0,0,0-.6.078c-1.858.525-2.685,3.405-1.839,6.412a7.6,7.6,0,0,0,2.121,3.61,2.987,2.987,0,0,0,2.792.9c1.868-.525,2.7-3.4,1.849-6.412h0a7.784,7.784,0,0,0-2.121-3.61,3.376,3.376,0,0,0-2.2-.944Z" transform="translate(-293.1 -119.806)" fill="#263238"/>
      <path id="Path_5114" data-name="Path 5114" d="M330.578,139.569a.379.379,0,0,1-.311-.117.448.448,0,0,1,0-.623,4.4,4.4,0,0,1,3.756-1.44.448.448,0,0,1,.36.516.428.428,0,0,1-.506.35,3.512,3.512,0,0,0-2.919,1.177A.438.438,0,0,1,330.578,139.569Z" transform="translate(-293.17 -119.824)" fill="#263238"/>
      <path id="Path_5115" data-name="Path 5115" d="M356.966,135.689c1.245,9.146,1.946,12.989-1.586,18.486-5.341,8.309-16.637,7.783-20.548-.808-3.522-7.783-4.972-21.4,2.987-26.717S355.71,126.514,356.966,135.689Z" transform="translate(-293.22 -119.476)" fill="#ffc3bd"/>
      <path id="Path_5116" data-name="Path 5116" d="M343.585,155.255c5.711,2.753,17.017,1.031,20.723-7.258s-.126-19.965-8.756-22.533c-8.494-2.51-16.073-.1-17.172,8.61S338.682,152.891,343.585,155.255Z" transform="translate(-293.383 -119.476)" fill="#263238"/>
      <path id="Path_5117" data-name="Path 5117" d="M328.133,144.1a.244.244,0,0,1-.029-.486c.117,0,11.675-1.138,17.63-.535a.243.243,0,0,1,.214.272.233.233,0,0,1-.263.214c-5.906-.594-17.416.516-17.513.535Z" transform="translate(-293.109 -119.974)" fill="#263238"/>
      <path id="Path_5118" data-name="Path 5118" d="M330.35,227.59s-.068,49.493,3.687,80.919c.593,29.509,3.96,98.412,3.96,98.412h7.443s11.559-58.726,7.92-93.664c15.158-49.912,5.2-85.618,5.2-85.618Z" transform="translate(-293.176 -122.266)" fill="#ffc3bd"/>
      <path id="Path_5119" data-name="Path 5119" d="M337.515,405.65c-2.17,2.209-4.368,8.825-11.617,11.023-4.7,1.42-2.822,2.919,4.271,2.919,8.2,0,10.469-3.571,13.242-3.571s4.368-1.79,2.462-7.676C339.694,407.586,337.515,405.65,337.515,405.65Z" transform="translate(-292.985 -127.085)" fill="#263238"/>
      <path id="Path_5120" data-name="Path 5120" d="M346.991,411.1a38.118,38.118,0,0,1-.126,8.6h-2.248L342,414Z" transform="translate(-293.491 -127.233)" fill="#263238"/>
      <path id="Path_5121" data-name="Path 5121" d="M340.5,227.59s15.46,57.734,24.216,84.645c9.2,28.215,17.824,92.6,17.844,94.735H389s6.655-52.188-5.011-94.764c-3.152-69.078-15.567-84.567-15.567-84.567Z" transform="translate(-293.45 -122.266)" fill="#ffc3bd"/>
      <path id="Path_5122" data-name="Path 5122" d="M382.83,406.67c-1.654,2.753-3.561,8.756-8,10.031s-2.646,2.919,4.009,2.919c4.514,0,5.838-3.571,8.406-3.571s4.806-1.8,3-7.686C384.844,408.937,382.83,406.67,382.83,406.67Z" transform="translate(-294.314 -127.113)" fill="#263238"/>
      <path id="Path_5123" data-name="Path 5123" d="M391.21,411.37a47.794,47.794,0,0,1-.088,8.338h-3.7l-2.316-5.7Z" transform="translate(-294.658 -127.24)" fill="#263238"/>
      <path id="Path_5124" data-name="Path 5124" d="M341.7,145.071a5.906,5.906,0,0,1-2.452,4.213c-1.771,1.168-3.425-.652-3.58-3-.146-2.111.613-5.273,2.7-5.478S341.984,142.863,341.7,145.071Z" transform="translate(-293.319 -119.917)" fill="#7f3e3b"/>
      <path id="Path_5125" data-name="Path 5125" d="M365.9,150.357c-4.767-2.238-16.793,1.761-25.3,8.231a26.483,26.483,0,0,1-3.629-8.338,31.785,31.785,0,0,0,2.286,9.389c-.71.564-1.382,1.148-2.014,1.732-1.8-4.476-3.95-16-3.512-25.16-.759-.72-2.539-.593-3.619-1.44.652-12.288,13.893-15.567,18.914-15.431a17.776,17.776,0,0,1,10.206,3.123C366.508,127.766,369.378,141.066,365.9,150.357Z" transform="translate(-293.169 -119.336)" fill="#263238"/>
      <path id="Path_5126" data-name="Path 5126" d="M365.9,150.357c-4.767-2.238-16.793,1.761-25.3,8.231a26.483,26.483,0,0,1-3.629-8.338,31.785,31.785,0,0,0,2.286,9.389c-.71.564-1.382,1.148-2.014,1.732-1.8-4.476-3.95-16-3.512-25.16-.759-.72-2.539-.593-3.619-1.44.652-12.288,13.893-15.567,18.914-15.431a17.776,17.776,0,0,1,10.206,3.123C366.508,127.766,369.378,141.066,365.9,150.357Z" transform="translate(-293.169 -119.336)" fill="#fff" opacity="0.2"/>
      <g id="Group_2327" data-name="Group 2327" transform="translate(41.144 179.355)" opacity="0.2">
        <path id="Path_5127" data-name="Path 5127" d="M334.43,321.781c.1,3.327.2,6.879.341,10.576a115.36,115.36,0,0,0,19.361-5.692c-.068-3.172-.234-6.256-.486-9.175a99.6,99.6,0,0,1-19.215,4.291Z" transform="translate(-334.43 -304.054)"/>
        <path id="Path_5128" data-name="Path 5128" d="M384.06,303.68A153.2,153.2,0,0,1,365,313.205c.117.35.224.7.341,1.041.662,2.024,1.313,4.242,1.946,6.606a169.984,169.984,0,0,0,17.172-9.671Q384.313,307.319,384.06,303.68Z" transform="translate(-335.257 -303.68)"/>
      </g>
      <path id="Path_5129" data-name="Path 5129" d="M330.347,227.551s-.837,38.83,2.063,97.235c27.359-2.082,53.93-19.391,53.93-19.391s-.8-61.645-18.213-77.835C358.29,224.924,330.541,226.666,330.347,227.551Z" transform="translate(-293.172 -122.227)" fill="#263238"/>
    </g>
    <g id="freepik--speech-bubbles--inject-1" transform="translate(103.944 45.534)">
      <path id="Path_5130" data-name="Path 5130" d="M155.185,247.535a.574.574,0,0,1-.253-.068.487.487,0,0,1-.234-.486c.915-6.626-1.43-16.705-8.708-24.323-18.311-4.378-31.766-15.791-36.972-31.328-9.029-27.242,10.77-58.376,44.152-69.448s67.891,2.024,76.93,29.188c4.378,13.193,2.189,27.69-6.168,40.815s-21.833,23.263-37.944,28.633a77.835,77.835,0,0,1-18.3,3.726c1.206,12.921-12.074,23.078-12.21,23.185A.555.555,0,0,1,155.185,247.535Zm22.027-128.651a75.431,75.431,0,0,0-23.691,3.892c-32.9,10.926-52.363,41.525-43.539,68.193,5.069,15.246,18.32,26.435,36.368,30.716a.467.467,0,0,1,.243.136c7.151,7.453,9.729,17.2,9.194,24.061,2.977-2.549,12.181-11.4,10.877-22.047a.477.477,0,0,1,.107-.37.506.506,0,0,1,.341-.175,76.084,76.084,0,0,0,18.573-3.717c15.937-5.293,29.246-15.324,37.468-28.215s10.352-27.077,6.061-39.988C222.493,131.153,201.37,118.884,177.212,118.884Z" transform="translate(-106.836 -47.494)" fill="#263238"/>
      <path id="Path_5131" data-name="Path 5131" d="M304.083,119.444h-.068c-.448-.058-10.9-1.644-14.38-9.379a50.591,50.591,0,0,1-11.558,3.58c-10.994,2.024-21.969.448-30.92-4.456s-14.837-12.57-16.54-21.58c-3.415-18.486,12.3-37.03,35.026-41.223s44.016,7.492,47.431,26.036c1.946,10.576-2.17,21.4-11.306,29.733-1.732,6.616.088,13.057,2.666,16.54a.487.487,0,0,1-.389.778Zm-14.2-10.527a.4.4,0,0,1,.185,0,.467.467,0,0,1,.272.272c2.452,6.129,9.836,8.367,12.648,9.019a21.755,21.755,0,0,1-2.121-16.54.4.4,0,0,1,.146-.233c8.951-8.1,13-18.651,11.111-28.935-3.327-18.019-24.08-29.344-46.292-25.3S228.263,69.289,231.58,87.3c1.605,8.756,7.3,16.131,16.014,20.908s19.507,6.334,30.278,4.349a49.921,49.921,0,0,0,11.782-3.717.525.525,0,0,1,.233.078Z" transform="translate(-110.173 -45.534)" fill="#263238"/>
      <path id="Path_5132" data-name="Path 5132" d="M174.969,207.715H172.6c-8.455-.321-17.367-2.228-28.05-6.022-4.038-1.43-8.572-3.259-11.374-6.927a16.453,16.453,0,0,1-2.131-3.824,27.777,27.777,0,0,1-1.693-14.292c-.1-1.041-.195-2.082-.282-3.113-.049-.623-.107-1.255-.156-1.878l-.175-1.819c-.574-6-1.168-12.21,1.041-17.844a24.219,24.219,0,0,1,9.9-11.325,50.758,50.758,0,0,1,14.02-5.585c3.756-.973,7.326-1.771,10.761-2.354a13.251,13.251,0,0,1,1.839-.866c3.347-1.284,7.064-1.148,10.245-.837.915.088,1.858.195,2.822.341,1.148,0,2.277,0,3.4.088a17.814,17.814,0,0,1,12.278,6.295,21.064,21.064,0,0,1,5.088,15.567,39.647,39.647,0,0,1,11.549,19.527c13.193-2,27.554-8.114,37.594-16.462,14.808-12.3,26.045-24.82,36.349-49.153,8.289-19.575,8.562-33.206.856-41.661a24.411,24.411,0,0,0-34.471-1.586A23.224,23.224,0,0,0,250.5,96.791a22.115,22.115,0,0,0,31.231,1.44,21.045,21.045,0,0,0,1.362-29.713,20.023,20.023,0,0,0-28.264-1.294,19.06,19.06,0,0,0-1.236,26.892,18.116,18.116,0,0,0,25.588,1.177A17.221,17.221,0,0,0,280.3,70.969a16.413,16.413,0,0,0-23.166-1.07,15.616,15.616,0,0,0-.973,22.037,14.837,14.837,0,0,0,20.967.973,14.117,14.117,0,0,0,.915-19.935,13.417,13.417,0,0,0-18.962-.876,12.784,12.784,0,0,0-.9,17.98,12.171,12.171,0,0,0,17.163.788A11.568,11.568,0,0,0,276.1,74.55a10.984,10.984,0,0,0-15.518-.71,10.43,10.43,0,0,0-.671,14.75,9.934,9.934,0,0,0,14.02.642,9.438,9.438,0,0,0,.613-13.329,8.98,8.98,0,0,0-12.648-.584,8.533,8.533,0,0,0-.593,12.074,8.1,8.1,0,0,0,11.442.525,7.715,7.715,0,0,0,.5-10.877,7.316,7.316,0,0,0-10.333-.467,6.937,6.937,0,0,0-.448,9.807,6.6,6.6,0,0,0,9.321.438,6.285,6.285,0,0,0,.409-8.863,5.964,5.964,0,0,0-4.125-1.946,5.886,5.886,0,0,0-4.281,1.557.379.379,0,0,1-.516,0,.37.37,0,0,1,0-.516,6.645,6.645,0,0,1,4.845-1.751,6.577,6.577,0,0,1,4.631,2.131,7,7,0,0,1-.448,9.885,7.346,7.346,0,0,1-10.362-.477,7.686,7.686,0,0,1,.506-10.848,8.056,8.056,0,0,1,11.364.525,8.445,8.445,0,0,1-.555,11.909,8.844,8.844,0,0,1-12.473-.574,9.272,9.272,0,0,1,.6-13.076,9.729,9.729,0,0,1,13.7.632,10.157,10.157,0,0,1-.662,14.361,10.7,10.7,0,0,1-15.061-.662,11.169,11.169,0,0,1,.73-15.771,11.675,11.675,0,0,1,16.54.759,12.278,12.278,0,0,1-.8,17.338,12.882,12.882,0,0,1-18.184-.837,13.5,13.5,0,0,1,.876-19.06,14.146,14.146,0,0,1,19.994.915,14.837,14.837,0,0,1-.973,20.967,15.567,15.567,0,0,1-21.988-.973,16.345,16.345,0,0,1,1.061-23.068A17.114,17.114,0,0,1,280.8,70.483a17.951,17.951,0,0,1-1.158,25.374,18.856,18.856,0,0,1-26.629-1.216,19.809,19.809,0,0,1,1.3-27.914,20.762,20.762,0,0,1,29.3,1.352,21.765,21.765,0,0,1-1.42,30.735,22.825,22.825,0,0,1-32.243-1.489A23.954,23.954,0,0,1,251.51,63.5a25.121,25.121,0,0,1,35.5,1.635c7.92,8.679,7.676,22.562-.73,42.43-10.391,24.43-21.667,37-36.553,49.386-10.118,8.416-24.586,14.594-37.944,16.608a40.343,40.343,0,0,1,.759,4.592,24.537,24.537,0,0,1-1.206,11.354c-1.771,4.524-5.575,8.6-10.994,11.8C193.241,205.517,184.494,207.715,174.969,207.715Zm-18.748-3.24a78.807,78.807,0,0,0,16.375,2.462c10.313.389,19.78-1.78,27.4-6.266,3.678-2.17,8.523-5.915,10.7-11.432a23.75,23.75,0,0,0,1.158-11.014,37.8,37.8,0,0,0-.749-4.563,59.275,59.275,0,0,1-8.348.623,59.719,59.719,0,0,1-2.277,7.89c-.214.642-.448,1.275-.681,1.946a18.135,18.135,0,0,1-3.347,7.618,28.809,28.809,0,0,1-9.895,8.046,47.324,47.324,0,0,1-30.336,4.69Zm-26.162-27.865a35.532,35.532,0,0,0,2.432,10.79c3.191,7.316,10.6,13,20.305,15.567a46.613,46.613,0,0,0,29.82-2.15l-1.041.282c-5.244,1.362-10.761,1.489-15.937,1.43-7.229-.078-14.837-.584-21.482-3.717-2.812-1.323-6.4-3.7-7.56-7.5a15.5,15.5,0,0,1,.117-7.414q.467-2.355,1.051-4.612c-1.216-7.015-.078-14.954,3.4-22.845a16.747,16.747,0,0,0-1.391.973,20.977,20.977,0,0,0-5.079,6.13,35.026,35.026,0,0,0-4.6,13.067Zm-.272,3.658a26.094,26.094,0,0,0,1.9,10.342,16.18,16.18,0,0,0,2.033,3.668c2.685,3.5,7.1,5.283,11.043,6.684l2.16.749c-7.112-3.084-12.473-8.007-15.1-14.02a30.1,30.1,0,0,1-2-7.424Zm8.756-.973a27.241,27.241,0,0,0,2.812,8.153c4.5,8.3,13.913,13.874,23.963,14.2,9.321.292,19.089-3.892,26.1-11.14a27.428,27.428,0,0,0,3.756-4.758q.438-.73.817-1.489a16.841,16.841,0,0,1-13.037,7.511,15.371,15.371,0,0,1-2.316-.1,37.147,37.147,0,0,1-18.768,2.374c-9.642-1.109-16.939-5.692-19.546-12.249-1.566-3.95-1.3-8.26-.613-11.87a67.909,67.909,0,0,0-3.172,9.389Zm60.419-.837a31.214,31.214,0,0,1-3.162,7.667,28.03,28.03,0,0,1-3.892,4.865,37.681,37.681,0,0,1-18.817,10.624,45.151,45.151,0,0,0,8.289-1.255c3.892-.973,9.437-3.23,13.232-7.978a30.229,30.229,0,0,0,4.456-8.523,13.942,13.942,0,0,0,.078-4.261,10.3,10.3,0,0,0-.185-1.119Zm-60.828,2.462q-.36,1.537-.671,3.094c-.438,2.2-.846,4.748-.136,7.064,1.08,3.551,4.495,5.838,7.171,7.054a41.263,41.263,0,0,0,14.721,3.415,28.731,28.731,0,0,1-18.486-13.757,27.621,27.621,0,0,1-2.6-6.849Zm5.127-14.4v.088c-1.07,3.95-2.257,9.729-.224,14.915,2.5,6.3,9.583,10.7,18.943,11.8a36.972,36.972,0,0,0,17.3-1.878,16.708,16.708,0,0,1-3.454-1.138,14.594,14.594,0,0,1-3.22-.9,13.4,13.4,0,0,1-6.966-6.859,5.565,5.565,0,0,1-1.4.389,4.749,4.749,0,0,1-.973,0,17.7,17.7,0,0,1-6.168.535c-5.536-.564-11.588-5.069-11.675-11.383-.068-3.357,1.566-6.918,4.865-10.586a38.061,38.061,0,0,1,13.738-9.729,63.242,63.242,0,0,0-11.091.866,54.066,54.066,0,0,0-9.671,13.894Zm38.771,24.518h.9a16.024,16.024,0,0,0,14.2-10.7c.506-1.547.9-3.756-.088-5.555h0a24.411,24.411,0,0,1-7.891,11.909,18.038,18.038,0,0,1-2.715,1.771,28.455,28.455,0,0,1-3.726,2.316Zm-3.629-.545a14.5,14.5,0,0,0,2.131.428c.623-.263,1.226-.555,1.819-.856l.379-.2a17.007,17.007,0,0,1-4.33.652Zm-2.413-.9a16.433,16.433,0,0,0,10.041-1.829,23.944,23.944,0,0,0,9.184-13.339q.126-.525.233-1.08a19.263,19.263,0,0,1-3.055-1.489,20.675,20.675,0,0,0-5.254.117h-.272c-2.744.292-5.74.545-8.844.593a27.574,27.574,0,0,1-4.865,5.04,29.4,29.4,0,0,1-5.322,3.541.626.626,0,0,0,.1.224,15.839,15.839,0,0,0,8.056,8.241Zm-9.729-7.375a12.648,12.648,0,0,0,6.606,6.509l.428.175a16.3,16.3,0,0,1-6.013-7.229l-.058-.146a7.034,7.034,0,0,1-.973.71Zm-.409-30.336a37.108,37.108,0,0,0-15.1,10.187c-3.162,3.522-4.728,6.918-4.67,10.089.107,5.906,5.838,10.138,11.053,10.7a16.073,16.073,0,0,0,4.407-.185,7.258,7.258,0,0,1-3.415-2.792,14.438,14.438,0,0,1-1.946-6.616c-.35-3.892-.243-11.082,4.427-15.723a15.791,15.791,0,0,1,11.121-4.232h0c2.325,0,5.526.5,7.472,2.822a7.948,7.948,0,0,1,1.187,1.946,11.773,11.773,0,0,1,.973,3.649,20.169,20.169,0,0,1,8.523-1.4,15.109,15.109,0,0,0-3.405-3.6,17.513,17.513,0,0,0-5.147-2.247,62.53,62.53,0,0,0-15.489-2.578Zm5.886,2.1a15.09,15.09,0,0,0-10.654,4.018c-4.456,4.427-4.544,11.383-4.2,15.139a13.679,13.679,0,0,0,1.829,6.285,6.236,6.236,0,0,0,4.407,2.831c.681-.185,1.372-.409,2.063-.671a12,12,0,0,1-.642-2.919,6.246,6.246,0,0,1-4.923-3.182,7.277,7.277,0,0,1-.671-2.325,11.2,11.2,0,0,1,12.113-12.648c.214-.175.448-.331.671-.5,2.033-1.4,3.892-1.878,5.458-1.4a4.991,4.991,0,0,1,3.182,3.425l.243-.088a11.159,11.159,0,0,0-.876-3.61,7.347,7.347,0,0,0-1.08-1.8c-1.868-2.228-5.137-2.569-6.927-2.569ZM196.111,173.6c-.068.35-.146.691-.224,1.022a22.436,22.436,0,0,1-2.977,6.811,26.756,26.756,0,0,0,3.551-7.511,4.059,4.059,0,0,0-.35-.36Zm-30.842,5.166a11.1,11.1,0,0,0,.574,2.549c.34-.136.671-.292.973-.448h.058a13.092,13.092,0,0,1-.516-2.043q-.526,0-1.051-.058Zm34.053-1.673a15.563,15.563,0,0,1,.555,2.442,14.34,14.34,0,0,1,.136,1.712,57.7,57.7,0,0,0,1.946-6.966,18.209,18.209,0,0,1-1.946-.068c-.088.389-.185.778-.282,1.158-.088.564-.234,1.138-.379,1.722Zm-32.194,1.625a13.138,13.138,0,0,0,.36,1.518,12.378,12.378,0,0,0,1.343-1.829,11.156,11.156,0,0,1-1.673.311Zm2.724-.632a16.925,16.925,0,0,1-1.138,1.8,30.289,30.289,0,0,0,3.97-2.783c.788-.642,1.508-1.3,2.179-1.946A16.675,16.675,0,0,1,170,178.08Zm-4.631-.068a10.14,10.14,0,0,0,1.09,0v-.058a11.743,11.743,0,0,1,1.323-6.246l-.4-.126a11.218,11.218,0,0,0-1.722,3.7,9.8,9.8,0,0,0-.263,2.734Zm33.031-1.819a7.472,7.472,0,0,1,.058,1.8c.088-.292.175-.594.253-.9a8.064,8.064,0,0,0-.282-.9Zm-29.908-4.3a11.062,11.062,0,0,0-1.313,6.013v.078a10.537,10.537,0,0,0,2.325-.5l.088-.165a36.275,36.275,0,0,0,2.14-4.972c-.973-.1-1.946-.224-2.919-.389Zm1.761-10.7a10.459,10.459,0,0,0-10.44,11.86,6.645,6.645,0,0,0,.6,2.092,5.517,5.517,0,0,0,4.223,2.753,10.449,10.449,0,0,1,.3-2.8,12.074,12.074,0,0,1,1.761-3.833,2.753,2.753,0,0,1-1.031-.973c-.564-.973-.409-2.277.448-3.892a18.9,18.9,0,0,1,4.232-5.215Zm-27.875-5.4c-.107.243-.214.486-.331.73a40.367,40.367,0,0,0-3.649,20.976,67.844,67.844,0,0,1,4.349-11.218,69.728,69.728,0,0,1,4.719-12.356,25.792,25.792,0,0,0-5.059,1.9Zm30.093,16.6a34.492,34.492,0,0,1-1.946,4.67,16.248,16.248,0,0,0,5.964-4.475c-1.294.01-2.607-.049-3.989-.165Zm25.87,1.644q.37.856.7,1.751c.049-.2.1-.418.156-.623s.165-.681.243-1.031l-.6-.049Zm-35.356-40.279q-4.31.817-8.941,2.024a50.049,50.049,0,0,0-13.816,5.507c-3.22,2.014-7.5,5.536-9.622,10.916s-1.566,11.6-.973,17.513l.175,1.819c.058.632.107,1.255.165,1.887v.438a36.506,36.506,0,0,1,4.252-10.7,22,22,0,0,1,5.264-6.334,16.426,16.426,0,0,1,2.355-1.518c3.22-6.811,7.4-11.461,12.454-13.757q.73-.321,1.518-.613,1.211-1.459,2.51-2.919A29.43,29.43,0,0,1,162.837,133.763Zm37.847,21.054a37.438,37.438,0,0,1,2.491,16.871c-.078.623-.165,1.255-.272,1.868a59.452,59.452,0,0,0,8.046-.6,39.083,39.083,0,0,0-10.264-18.136Zm-.457,18.68c.632,0,1.284,0,1.946.058.117-.642.214-1.294.282-1.946.7-6.344-.837-12.512-2.977-17.951h0l-.749-.662a38.469,38.469,0,0,0-10.663-6.489,23.126,23.126,0,0,1,5.118,6.684c.224.467.448.973.652,1.44a18.641,18.641,0,0,1,7,14.253,23.869,23.869,0,0,1-.6,4.612Zm-2.335-.214c.292,0,.584.088.885.117l.71.049a22.961,22.961,0,0,0,.613-4.6,17.688,17.688,0,0,0-5.7-12.736,37.941,37.941,0,0,1,1.255,4.612c.185.846.331,1.673.467,2.471a7.248,7.248,0,0,1,1.751,2.919,11.675,11.675,0,0,1-.078,5.838c-.058.253-.117.516-.185.778a4.162,4.162,0,0,1,.282.555Zm-1.362-.311.234.058a2.915,2.915,0,0,0,.078-.311c-.136-.3-.272-.613-.418-.924a6.492,6.492,0,0,1-.126.973Zm-3.892-1.79h0a8.232,8.232,0,0,1,2.919,1.1c.078-.584.136-1.177.175-1.79a77.351,77.351,0,0,0-4.991-8.756l-.379-.584h-.253a19.352,19.352,0,0,0-8.756,1.382,14.3,14.3,0,0,1-.117,2.4c3.006.71,5.614,2.491,8.153,4.213,1.119.71,2.179,1.4,3.25,2.033Zm-20.052.535c1.469.117,2.919.175,4.359.175a15.712,15.712,0,0,0,2.5-4.865,10.607,10.607,0,0,0,.389-1.654,12.006,12.006,0,0,0-5.993,1.031,37.936,37.936,0,0,1-1.255,5.312Zm8.581-6.11a15.8,15.8,0,0,1-1.07,3.444,18.484,18.484,0,0,1-1.557,2.831c2.919-.068,5.682-.311,8.25-.584h.272a28.062,28.062,0,0,1,3.95-.234c-.671-.438-1.333-.885-1.946-1.333-2.5-1.7-5.04-3.434-7.9-4.125Zm-12.415,5.624h.078c.973.165,2,.3,3.016.4a36.327,36.327,0,0,0,1.187-4.865l-.613.321q-.593.486-1.168,1.022a14.711,14.711,0,0,0-2.5,3.123Zm27.787-.876c.195.4.389.808.574,1.206a10.517,10.517,0,0,0,.058-5.254,6.13,6.13,0,0,0-.866-1.751A31.28,31.28,0,0,1,196.539,170.355ZM167.711,171l.292.078a14.153,14.153,0,0,1,.924-1.421A14.289,14.289,0,0,0,167.711,171Zm3.59-9.729a18.087,18.087,0,0,0-4.66,5.5c-.73,1.333-.885,2.393-.457,3.143a2,2,0,0,0,.837.769,16.141,16.141,0,0,1,4.952-4.193h.049c.389-.311.788-.613,1.2-.885.1-.71.175-1.421.224-2.131a2.306,2.306,0,0,0-.136-1.284,2.131,2.131,0,0,0-1.654-.846Zm20.149.058a83.3,83.3,0,0,1,4.407,7.618,34.843,34.843,0,0,0-.428-5.429,9.185,9.185,0,0,0-3.979-2.16Zm-19.332-.662a2.5,2.5,0,0,1,1.829,1.158,3.006,3.006,0,0,1,.224,1.673,11.88,11.88,0,0,1-.156,1.557,32.669,32.669,0,0,1,5.7-2.753,4.31,4.31,0,0,0-2.7-2.987c-1.372-.4-3,0-4.865,1.313Zm7.783,2.355a36,36,0,0,0-4.349,1.995,11.675,11.675,0,0,1,4.4-.389,6.722,6.722,0,0,0-.078-1.576Zm.7-.263a8.225,8.225,0,0,1,.1.856c0-.3,0-.6,0-.9Zm-32.34-9.1a68.276,68.276,0,0,0-3.892,9.214,54.036,54.036,0,0,1,7.268-9.963q-1.245.234-2.481.525c-.3.1-.613.165-.924.253Zm42.624,6.811a10.4,10.4,0,0,1,4.388,1.946c-.088-.506-.195-1.031-.3-1.547a34.79,34.79,0,0,0-1.712-5.838c-.165-.136-.331-.272-.506-.4a25.821,25.821,0,0,0-15.645-4.8,33.177,33.177,0,0,0-9.321,1.391,63.378,63.378,0,0,1,13.728,2.559,18.125,18.125,0,0,1,5.361,2.355,16.667,16.667,0,0,1,3.979,4.33Zm-36.1-18.388-.3.126c-4.68,2.131-8.6,6.344-11.675,12.561a28.935,28.935,0,0,1,4.962-1.712,68.241,68.241,0,0,1,6.986-10.975Zm22.378,7.083a26.872,26.872,0,0,1,15.45,4.544l-.088-.175a22.952,22.952,0,0,0-6.48-7.783,38.3,38.3,0,0,0-14.263-2.033,26.96,26.96,0,0,0-8.309,1.576,28.459,28.459,0,0,0-9.729,6.558,64.545,64.545,0,0,1,12.016-.681,34.519,34.519,0,0,1,11.335-2ZM156.1,141.556a68.777,68.777,0,0,0-7.433,11.267l.321-.068c1.168-.272,2.335-.506,3.5-.71a29.84,29.84,0,0,1,10.751-7.433,27.778,27.778,0,0,1,8.533-1.625,39.141,39.141,0,0,1,12.347,1.421,26.632,26.632,0,0,0-5.02-2.52,35.552,35.552,0,0,0-18-1.518,28.458,28.458,0,0,0-5,1.187Zm30.278,3.561a39.306,39.306,0,0,1,12.444,7.025c-.866-2.043-1.8-3.97-2.714-5.74-2.471-4.865-5.419-9.681-10.167-12.23A20.831,20.831,0,0,0,179.3,132.1h-.049a86.31,86.31,0,0,0-14.594,1.323,25.627,25.627,0,0,0-5.993,5.1c-.593.652-1.177,1.323-1.751,1.995a31.831,31.831,0,0,1,4.028-.866,36.339,36.339,0,0,1,18.369,1.557A27.1,27.1,0,0,1,186.382,145.117Zm-3.279-12.9a17.278,17.278,0,0,1,3.182,1.313c4.923,2.646,7.949,7.589,10.479,12.541.9,1.751,1.819,3.649,2.676,5.662a20.179,20.179,0,0,0-4.962-13.543,17.182,17.182,0,0,0-11.354-5.974Zm-10.342-.671a18.486,18.486,0,0,0-5.39.72c2.228-.311,4.378-.545,6.48-.691C173.49,131.554,173.13,131.544,172.761,131.544Z" transform="translate(-107.414 -45.842)" fill="#1e64cc"/>
    </g>
  </g>
</svg>
