<svg xmlns="http://www.w3.org/2000/svg" width="67" height="67" viewBox="0 0 67 67">
  <g id="Group_2419" data-name="Group 2419" transform="translate(-393 -1306)">
    <g id="Group_2391" data-name="Group 2391" transform="translate(393 1306)">
      <rect id="Rectangle_1591" data-name="Rectangle 1591" width="67" height="67" rx="10" fill="#edf4fd"/>
      <g id="Group_2390" data-name="Group 2390" transform="translate(24.227 24.837)">
        <path id="Icon_material-work" data-name="Icon material-work" d="M19.692,6.709H15.982V4.855A1.848,1.848,0,0,0,14.128,3H10.419A1.848,1.848,0,0,0,8.564,4.855V6.709H4.855A1.84,1.84,0,0,0,3.009,8.564L3,18.764a1.848,1.848,0,0,0,1.855,1.855H19.692a1.848,1.848,0,0,0,1.855-1.855V8.564A1.848,1.848,0,0,0,19.692,6.709Zm-5.564,0H10.419V4.855h3.709Z" transform="translate(-3 -3)" fill="#0e57c4"/>
        <path id="Icon_awesome-medal" data-name="Icon awesome-medal" d="M2.877,1.681,1.988.2A.411.411,0,0,0,1.636,0H.206A.206.206,0,0,0,.038.324L1.468,2.368A2.661,2.661,0,0,1,2.877,1.681ZM6.378,0H4.949A.411.411,0,0,0,4.6.2L3.707,1.681a2.662,2.662,0,0,1,1.409.686L6.547.324A.206.206,0,0,0,6.378,0ZM3.292,2.058A2.263,2.263,0,1,0,5.555,4.321,2.263,2.263,0,0,0,3.292,2.058ZM4.482,4.08l-.488.475.115.672a.148.148,0,0,1-.214.155l-.6-.317-.6.317a.148.148,0,0,1-.214-.155l.115-.672L2.1,4.08a.148.148,0,0,1,.082-.252l.674-.1.3-.611a.148.148,0,0,1,.265,0l.3.611.674.1a.148.148,0,0,1,.082.252Z" transform="translate(5.981 7.217)" fill="#fff"/>
      </g>
    </g>
  </g>
</svg>
